<svg width="102" height="123" viewBox="0 0 102 123" fill="none" xmlns="http://www.w3.org/2000/svg">
<path d="M57.2713 103.134C56.8746 103.141 56.4466 103.168 55.9931 103.214C51.1368 103.692 43.6034 106.184 43.6034 106.184L35.0356 118.641C34.8022 118.979 34.4635 119.229 34.0727 119.353C33.6818 119.477 33.2608 119.467 32.8759 119.326C26.2526 116.875 20.4408 113.762 15.5863 109.861C15.2835 109.618 15.0653 109.286 14.9631 108.911C14.8608 108.537 14.8798 108.139 15.0173 107.776C15.1235 107.499 15.2478 107.187 15.3902 106.851C16.1875 105 17.579 102.466 19.5849 101.269C22.9461 99.2653 27.4546 101.974 27.4546 101.974C27.4546 101.974 33.4766 93.1379 35.453 90.9355C37.4293 88.733 44.0759 86.0237 44.0759 86.0237L55.953 94.4196C55.953 94.4196 61.9402 103.06 57.2713 103.134Z" fill="#F8F8F8"/>
<path d="M99.0214 91.4697C99.0071 92.9381 98.4978 94.3587 97.5758 95.5017C95.4121 98.1903 90.7114 102.495 83.1736 101.831C81.4476 101.68 79.9296 100.485 78.5968 98.5852C71.5381 88.54 69.6204 58.7479 69.6204 58.7479L79.3897 50.7292C79.3897 50.7292 88.9334 51.0655 92.4361 54.2011C93.9651 55.5701 95.4923 60.1103 96.6916 66.1526C97.2879 69.1568 97.8054 72.5339 98.1985 76.078C98.5124 78.8989 98.7473 81.8224 98.8852 84.7473C98.9941 87.0039 99.0382 89.2606 99.0214 91.4697Z" fill="#F8F8F8"/>
<path d="M84.7203 102.714C84.1949 102.714 83.6554 102.69 83.1019 102.642C78.1984 102.21 74.3057 94.6203 71.5311 80.0842C69.512 69.506 68.8143 58.9063 68.8077 58.8005C68.7992 58.6929 68.8122 58.5846 68.8459 58.4821C68.8796 58.3795 68.9334 58.2847 69.0041 58.2031C69.0748 58.1215 69.161 58.0547 69.2577 58.0068C69.3544 57.9588 69.4597 57.9305 69.5675 57.9236C69.6752 57.9167 69.7832 57.9312 69.8853 57.9664C69.9874 58.0016 70.0814 58.0568 70.162 58.1287C70.2425 58.2005 70.308 58.2877 70.3546 58.3851C70.4011 58.4825 70.4279 58.5882 70.4332 58.696C70.4398 58.8009 71.1322 69.3112 73.1333 79.7915C75.6808 93.1306 79.2717 100.67 83.2451 101.02C90.4263 101.651 94.9084 97.5143 96.9412 94.9919C97.7471 93.9908 98.1928 92.7478 98.2066 91.4627C98.3463 74.8925 94.8511 57.458 91.8914 54.8081C88.6514 51.9066 79.4546 51.5465 79.362 51.5435C79.1461 51.5359 78.9421 51.4428 78.7948 51.2848C78.6475 51.1267 78.569 50.9166 78.5766 50.7007C78.5842 50.4848 78.6773 50.2808 78.8353 50.1335C78.9934 49.9862 79.2034 49.9077 79.4193 49.9153C79.8213 49.9294 89.2993 50.3005 92.9779 53.5947C96.6392 56.8731 99.9718 75.283 99.8356 91.4764C99.8183 93.1292 99.2457 94.7282 98.2097 96.0162C96.1293 98.5955 91.7125 102.713 84.7203 102.714Z" fill="#371A45"/>
<path d="M98.8838 84.7474C95.832 86.7171 90.5306 88.1337 88.4819 86.5884L88.7393 75.7277L88.8716 70.2729C88.8716 70.2729 92.7026 67.4583 96.6915 66.1528C98.5347 65.5498 99.5625 68.2512 100.163 71.6181C100.17 71.6587 100.177 71.7041 100.186 71.7504C100.864 75.6449 100.984 80.3702 101.133 81.9019C101.219 82.8094 100.291 83.8372 98.8838 84.7474Z" fill="#F8F8F8"/>
<path d="M91.0163 88.0591C89.8263 88.0591 88.7618 87.8211 87.9896 87.2384C87.8207 87.1071 87.7102 86.9145 87.6821 86.7024C87.654 86.4903 87.7105 86.2756 87.8394 86.1048C87.9683 85.934 88.1592 85.8207 88.3709 85.7896C88.5826 85.7584 88.7981 85.8118 88.9708 85.9382C90.3724 86.996 94.4912 86.3032 97.7859 84.4555C99.593 83.4418 100.367 82.4624 100.319 81.9807C100.278 81.5567 100.24 80.9228 100.192 80.1171C100.001 76.8926 99.4916 68.3274 97.543 67.0011C97.3522 66.8715 97.1785 66.8499 96.9427 66.9271C93.1297 68.1753 89.3873 70.9018 89.3498 70.9291C89.2637 70.9943 89.1655 71.0417 89.061 71.0686C88.9564 71.0955 88.8475 71.1014 88.7406 71.0858C88.6338 71.0702 88.5311 71.0336 88.4386 70.9779C88.346 70.9223 88.2654 70.8488 88.2015 70.7618C88.1376 70.6748 88.0917 70.5759 88.0663 70.4709C88.041 70.3659 88.0368 70.257 88.0539 70.1504C88.0711 70.0438 88.1093 69.9416 88.1663 69.8499C88.2232 69.7582 88.2979 69.6787 88.3859 69.6161C88.5468 69.498 92.3703 66.7098 96.4363 65.3787C97.1508 65.1451 97.8507 65.2403 98.4594 65.6546C100.869 67.2938 101.457 73.9298 101.818 80.0206C101.865 80.8074 101.902 81.4288 101.94 81.822C102.07 83.1495 100.878 84.5895 98.5828 85.8769C96.5804 86.9995 93.5251 88.0591 91.0163 88.0591Z" fill="#371A45"/>
<g opacity="0.25">
<path d="M98.8838 84.7473C98.9922 87.004 99.0394 89.2606 99.0213 91.4697C99.007 92.9381 98.4976 94.3588 97.5756 95.5017C95.412 98.1904 90.7113 102.495 83.1735 101.831C81.4475 101.68 79.9295 100.485 78.5967 98.5853C78.721 94.1848 79.3354 93.8621 79.8233 89.5859C80.3496 84.9509 81.2531 81.9397 81.8565 81.2622L88.7389 75.7277L89.069 75.4632C89.069 75.4632 89.3128 78.0429 92.8503 77.9208C94.6662 77.8574 96.7153 77.198 98.1971 76.0776C99.6018 75.0136 100.494 73.534 100.185 71.7494C100.862 75.6439 100.982 80.3693 101.131 81.9009C101.219 82.8093 100.291 83.8371 98.8838 84.7473Z" fill="#371A45"/>
</g>
<path d="M99.2876 69.2446C98.0306 69.6289 96.7586 70.0644 95.5412 70.562C94.7064 70.9291 93.7394 71.2945 93.1007 71.9041C93.0703 71.9336 93.0624 71.9548 93.039 71.9803C93.039 71.9962 93.0276 71.9909 93.0227 72.0072C92.9827 72.2073 92.9559 72.4097 92.9425 72.6133C92.868 73.9228 92.9077 75.2807 92.9425 76.6215C92.9836 77.9667 93.0408 79.3125 93.114 80.6588C92.9109 79.3263 92.7224 77.9909 92.5485 76.6528C92.3832 75.3098 92.21 73.9801 92.1518 72.5978C92.1518 72.3775 92.1447 72.1231 92.1769 71.8975C92.1901 71.7132 92.2866 71.514 92.392 71.3686C93.1206 70.4774 94.0929 70.0304 95.0365 69.4914C96.257 68.8479 97.4893 68.2864 98.7636 67.7553C99.7954 67.3705 100.34 68.895 99.2894 69.2468L99.2876 69.2446Z" fill="#371A45"/>
<path d="M33.5193 120.255C33.2042 120.255 32.8917 120.199 32.5963 120.089C25.7364 117.552 19.8426 114.325 15.0785 110.496C14.6408 110.146 14.3254 109.666 14.1779 109.126C14.0303 108.585 14.0581 108.011 14.2573 107.487C14.9859 105.564 16.5934 102.11 19.1696 100.571C22.1196 98.8114 25.7139 100.196 27.1944 100.916C28.5982 98.8696 33.1398 92.2975 34.849 90.393C36.9268 88.0777 43.4905 85.3834 43.7686 85.2697C43.9686 85.1878 44.193 85.1888 44.3922 85.2724C44.5915 85.3559 44.7495 85.5152 44.8313 85.7153C44.9131 85.9153 44.9121 86.1396 44.8286 86.3389C44.745 86.5382 44.5857 86.6961 44.3857 86.7779C42.5856 87.5127 37.5808 89.7901 36.0633 91.4808C34.1451 93.618 28.1905 102.347 28.1297 102.434C28.0126 102.606 27.8343 102.727 27.6312 102.771C27.4281 102.816 27.2157 102.781 27.0375 102.674C26.9974 102.65 22.8997 100.243 20.0048 101.969C17.8522 103.253 16.4347 106.338 15.7815 108.062C15.7047 108.265 15.6941 108.486 15.7512 108.695C15.8083 108.904 15.9302 109.09 16.0993 109.225C20.7272 112.943 26.4672 116.084 33.1618 118.56C33.3766 118.639 33.6117 118.645 33.8301 118.576C34.0484 118.507 34.2375 118.367 34.3673 118.178L42.9356 105.721C43.0364 105.574 43.1824 105.465 43.3512 105.409C43.7232 105.286 52.5216 102.395 57.2597 102.319C57.9649 102.307 58.0972 102.057 58.1377 101.974C58.7358 100.811 56.7894 97.0537 55.2856 94.8812C55.2197 94.7935 55.1723 94.6935 55.1461 94.587C55.1198 94.4805 55.1154 94.3699 55.133 94.2616C55.1505 94.1534 55.1898 94.0498 55.2483 93.9571C55.3069 93.8644 55.3836 93.7845 55.4738 93.7222C55.564 93.6598 55.6659 93.6163 55.7733 93.5943C55.8807 93.5722 55.9914 93.5721 56.0989 93.5939C56.2064 93.6157 56.3083 93.659 56.3986 93.7212C56.489 93.7833 56.5658 93.8631 56.6246 93.9556C57.3404 94.9888 60.847 100.266 59.5865 102.72C59.3053 103.268 58.6776 103.926 57.2857 103.949C53.2308 104.014 45.6176 106.393 44.1212 106.874L35.7094 119.103C35.4652 119.458 35.1383 119.748 34.7567 119.949C34.3751 120.15 33.9504 120.255 33.5193 120.255Z" fill="#371A45"/>
<g opacity="0.25">
<path d="M57.5921 99.4073C57.5921 99.9155 57.2532 100.198 56.8578 101.214C56.693 101.637 56.3813 102.367 55.9948 103.214C51.1385 103.692 43.6051 106.184 43.6051 106.184L35.0373 118.642C34.8039 118.979 34.4653 119.229 34.0744 119.353C33.6835 119.477 33.2625 119.467 32.8776 119.326C26.2543 116.875 20.4425 113.762 15.588 109.861C15.2852 109.618 15.067 109.286 14.9648 108.911C14.8625 108.537 14.8815 108.139 15.019 107.776C15.1252 107.499 15.2495 107.187 15.3919 106.851L17.5829 108.14C25.1952 112.284 30.7382 112.572 33.4219 107.538C33.4219 107.538 38.6171 100.535 42.7659 97.6439C46.9148 94.7525 46.355 90.1444 46.355 90.1444L56.3505 98.1631C56.6886 98.4474 57.5921 98.8992 57.5921 99.4073Z" fill="#371A45"/>
</g>
<path d="M43.7009 106.636C43.6467 106.636 43.5927 106.629 43.54 106.617C35.2696 104.606 30.2662 98.1348 30.0572 97.8603C30.0033 97.7895 29.9639 97.7087 29.9412 97.6227C29.9184 97.5367 29.9129 97.447 29.9248 97.3588C29.9367 97.2707 29.9659 97.1857 30.0107 97.1088C30.0555 97.0319 30.1149 96.9646 30.1857 96.9106C30.2565 96.8567 30.3372 96.8173 30.4233 96.7946C30.5093 96.7718 30.599 96.7663 30.6871 96.7782C30.7753 96.7901 30.8603 96.8193 30.9372 96.8641C31.0141 96.9089 31.0814 96.9683 31.1353 97.0391C31.19 97.1101 36.0745 103.407 43.86 105.3C44.0211 105.339 44.1624 105.435 44.2571 105.572C44.3517 105.708 44.3931 105.874 44.3735 106.038C44.3539 106.203 44.2746 106.355 44.1507 106.465C44.0267 106.575 43.8666 106.636 43.7009 106.636Z" fill="#371A45"/>
<path d="M27.2425 89.146C27.2425 89.146 33.6458 87.8317 38.7203 84.1038L26.2495 85.0536" fill="#F8F8F8"/>
<g opacity="0.25">
<path d="M27.2425 89.146C27.2425 89.146 33.6458 87.8317 38.7203 84.1038L26.2495 85.0536" fill="#371A45"/>
</g>
<path d="M27.2417 89.9606C27.0401 89.9602 26.8458 89.8852 26.6963 89.7499C26.5469 89.6145 26.4529 89.4286 26.4326 89.228C26.4123 89.0274 26.4671 88.8264 26.5865 88.6639C26.7058 88.5014 26.8812 88.3889 27.0787 88.3483C27.1408 88.3355 33.374 87.0207 38.2382 83.4475C38.4125 83.3243 38.6281 83.2744 38.8388 83.3086C39.0495 83.3428 39.2384 83.4583 39.3647 83.6304C39.4911 83.8024 39.5449 84.0171 39.5146 84.2284C39.4842 84.4396 39.3722 84.6306 39.2025 84.7601C34.0457 88.5506 27.675 89.8887 27.4061 89.9438C27.3521 89.955 27.297 89.9606 27.2417 89.9606Z" fill="#371A45"/>
<path d="M79.8979 107.84L71.0545 119.396C68.8508 122.276 64.802 123.042 61.737 121.104C59.0175 119.385 56.7198 116.175 55.3059 112.791C54.2445 110.259 53.6795 107.627 53.7972 105.443C53.8449 104.671 54.1041 103.927 54.5465 103.293L55.4549 101.967C55.4549 101.967 47.5014 99.5427 45.7891 87.1349V83.8958C45.7891 83.8958 41.6486 83.6203 41.3458 83.0804C41.043 82.5405 37.2146 69.365 37.2146 69.365C37.2146 69.365 42.401 60.928 49.855 57.655C53.3696 56.1123 58.2783 55.5204 62.4818 55.3238C67.194 55.1034 71.0228 55.3846 71.0228 55.3846L77.65 55.0347C77.65 55.0347 83.286 56.6408 86.2968 61.9849C89.3076 67.3291 90.2138 76.7648 87.5031 81.5739C91.0252 93.5546 89.5139 102.855 79.8979 107.84Z" fill="#F8F8F8"/>
<path d="M65.4169 122.975C63.9607 122.978 62.5335 122.568 61.302 121.791C56.057 118.472 52.7099 110.488 52.984 105.399C53.0403 104.478 53.3487 103.59 53.8757 102.832L54.2173 102.333C51.92 101.217 46.3996 97.5076 44.983 87.2455C44.9777 87.2087 44.975 87.1716 44.9751 87.1344V84.6525C41.1145 84.3339 40.8059 83.7825 40.6362 83.4779C40.3348 82.938 37.8727 74.5464 36.4319 69.5941C36.4001 69.485 36.3915 69.3705 36.4067 69.2579C36.4219 69.1453 36.4605 69.0372 36.52 68.9404C36.7373 68.5878 41.9281 60.2492 49.5281 56.9113C57.0804 53.5942 70.5133 54.5339 71.081 54.5753C71.2949 54.5931 71.493 54.6946 71.6325 54.8577C71.7719 55.0208 71.8413 55.2323 71.8257 55.4463C71.8101 55.6603 71.7107 55.8595 71.549 56.0006C71.3874 56.1417 71.1766 56.2133 70.9625 56.1999C70.8272 56.1902 57.3634 55.2488 50.1826 58.4037C43.8317 61.1928 39.0918 67.991 38.0993 69.4967C39.4581 74.1634 41.5552 81.2649 42.0114 82.5541C42.5778 82.759 44.3659 82.9882 45.8433 83.087C46.0495 83.1007 46.2428 83.1923 46.384 83.3432C46.5251 83.4941 46.6037 83.6931 46.6036 83.8997V87.0811C48.2424 98.7889 55.618 101.169 55.6925 101.191C55.8148 101.229 55.9267 101.294 56.0189 101.383C56.1112 101.471 56.1814 101.58 56.2237 101.701C56.266 101.822 56.2793 101.951 56.2625 102.078C56.2457 102.204 56.1993 102.325 56.1271 102.431L55.2191 103.756C54.8614 104.266 54.6507 104.865 54.61 105.487C54.3601 110.115 57.5415 117.484 62.172 120.415C64.8448 122.107 68.4616 121.442 70.4062 118.901L79.2513 107.347C79.3242 107.252 79.4171 107.174 79.5233 107.119C88.074 102.687 90.4267 94.4064 86.7217 81.8043C86.691 81.6999 86.6815 81.5903 86.6938 81.4822C86.7062 81.374 86.7401 81.2694 86.7936 81.1745C89.2049 76.897 88.6196 67.7667 85.5885 62.3868C82.7862 57.4125 77.4786 55.8337 77.4266 55.8196C77.2189 55.7602 77.0432 55.6208 76.9383 55.432C76.8334 55.2432 76.8078 55.0204 76.8671 54.8127C76.9264 54.6049 77.0658 54.4293 77.2546 54.3243C77.4435 54.2194 77.6663 54.1938 77.874 54.2531C78.1173 54.3223 83.8683 56.0161 87.0078 61.5882C89.9463 66.8036 91.1103 76.3769 88.3781 81.6681C90.1949 87.9802 90.5343 93.1719 89.4165 97.5354C88.1965 102.296 85.1755 105.977 80.4352 108.481L71.7007 119.894C70.1652 121.897 67.8001 122.975 65.4169 122.975Z" fill="#371A45"/>
<path d="M51.816 71.7494H68.9962C69.7358 71.7494 70.4452 72.0432 70.9681 72.5662C71.4911 73.0891 71.7849 73.7984 71.7849 74.538V84.9399C71.7849 85.6675 71.5005 86.3664 70.9925 86.8873C70.4844 87.4082 69.7929 87.7099 69.0654 87.7281L51.8852 88.1543C51.5133 88.1635 51.1433 88.0982 50.7969 87.9622C50.4506 87.8262 50.135 87.6223 49.8687 87.3624C49.6024 87.1026 49.3908 86.7922 49.2463 86.4493C49.1018 86.1065 49.0273 85.7382 49.0273 85.3661V74.538C49.0273 73.7984 49.3211 73.0891 49.8441 72.5662C50.3671 72.0432 51.0764 71.7494 51.816 71.7494Z" fill="#F8F8F8"/>
<path d="M51.813 88.9707C50.8579 88.9697 49.9422 88.5897 49.2671 87.914C48.5921 87.2382 48.2129 86.3222 48.2129 85.3671V74.5381C48.2141 73.5828 48.5941 72.667 49.2695 71.9916C49.945 71.3161 50.8608 70.9361 51.8161 70.9349H68.9963C69.9516 70.9361 70.8674 71.3161 71.5429 71.9916C72.2183 72.667 72.5983 73.5828 72.5995 74.5381V84.94C72.6048 85.8817 72.239 86.7876 71.5815 87.4618C70.9239 88.1359 70.0273 88.5241 69.0858 88.5423L51.9055 88.9685C51.8747 88.9699 51.8438 88.9707 51.813 88.9707ZM51.8161 72.564C51.2927 72.5646 50.7909 72.7727 50.4208 73.1428C50.0507 73.5129 49.8425 74.0147 49.8419 74.5381V85.3671C49.8418 85.6305 49.8945 85.8912 49.9967 86.134C50.099 86.3768 50.2488 86.5966 50.4373 86.7806C50.6259 86.9645 50.8493 87.1089 51.0945 87.2052C51.3397 87.3015 51.6017 87.3477 51.865 87.3412L69.0452 86.915C69.5612 86.905 70.0526 86.6923 70.413 86.3229C70.7733 85.9534 70.9738 85.4569 70.9709 84.9408V74.539C70.9702 74.0156 70.7619 73.5138 70.3918 73.1437C70.0216 72.7736 69.5197 72.5654 68.9963 72.5649L51.8161 72.564Z" fill="#371A45"/>
<path d="M46.8653 71.9376H64.0456C64.7852 71.9377 65.4945 72.2316 66.0175 72.7547C66.5404 73.2777 66.8342 73.9871 66.8342 74.7267V85.1286C66.8343 85.8563 66.55 86.5552 66.0419 87.0761C65.5338 87.597 64.8422 87.8987 64.1148 87.9168L46.9345 88.343C46.5626 88.3522 46.1926 88.2869 45.8463 88.1509C45.4999 88.0149 45.1843 87.8109 44.918 87.5511C44.6517 87.2913 44.4401 86.9808 44.2956 86.638C44.1511 86.2951 44.0767 85.9268 44.0767 85.5548V74.7267C44.0766 74.3605 44.1487 73.9978 44.2888 73.6594C44.4289 73.321 44.6343 73.0136 44.8933 72.7546C45.1522 72.4956 45.4597 72.2901 45.798 72.1499C46.1364 72.0098 46.4991 71.9376 46.8653 71.9376Z" fill="#F8F8F8"/>
<path d="M58.7033 88.842C58.4971 88.842 58.299 88.7613 58.1514 88.6171C58.0038 88.473 57.9185 88.2769 57.9135 88.0707C57.8791 86.6739 57.8377 84.4851 57.8778 83.3573C56.6393 83.0487 52.9241 82.5573 49.5859 82.2113C49.3977 82.1919 49.2227 82.1056 49.0927 81.9681C48.9627 81.8306 48.8864 81.651 48.8776 81.462L48.4258 71.9747C48.4184 71.8696 48.432 71.7641 48.466 71.6644C48.4999 71.5647 48.5535 71.4727 48.6234 71.394C48.6934 71.3152 48.7784 71.2512 48.8734 71.2058C48.9685 71.1603 49.0716 71.1343 49.1769 71.1293C49.2821 71.1243 49.3873 71.1403 49.4862 71.1765C49.5851 71.2127 49.6758 71.2683 49.753 71.3401C49.8301 71.4118 49.8922 71.4982 49.9354 71.5943C49.9787 71.6903 50.0024 71.794 50.005 71.8994L50.4246 80.7092C58.7721 81.5955 59.1212 82.0808 59.3327 82.3744C59.4027 82.4708 59.4515 82.5809 59.4759 82.6975C59.5003 82.8141 59.4997 82.9346 59.4742 83.0509C59.42 83.396 59.4407 85.8585 59.4941 88.0315C59.4991 88.2411 59.4208 88.4441 59.2762 88.5959C59.1317 88.7477 58.9327 88.8359 58.7232 88.8411L58.7033 88.842ZM57.9307 82.7102C57.9267 82.7274 57.9236 82.7446 57.921 82.7618C57.9241 82.7424 57.9272 82.7252 57.9307 82.7085V82.7102Z" fill="#371A45"/>
<path d="M46.8627 89.1588C45.9075 89.158 44.9917 88.7779 44.3166 88.1022C43.6414 87.4265 43.2622 86.5104 43.2622 85.5552V74.7262C43.2634 73.771 43.6434 72.8552 44.3188 72.1797C44.9943 71.5042 45.9101 71.1242 46.8654 71.123H64.0456C65.0009 71.1242 65.9167 71.5042 66.5922 72.1797C67.2676 72.8552 67.6476 73.771 67.6488 74.7262V85.1281C67.6541 86.0698 67.2884 86.9757 66.6308 87.6499C65.9732 88.324 65.0767 88.7122 64.1351 88.7304L46.9549 89.1566L46.8627 89.1588ZM46.8654 72.7521C46.342 72.7527 45.8401 72.9608 45.4699 73.3309C45.0998 73.701 44.8915 74.2028 44.8908 74.7262V85.5552C44.8908 85.8186 44.9436 86.0793 45.0459 86.3221C45.1482 86.5648 45.2981 86.7846 45.4866 86.9686C45.6752 87.1525 45.8986 87.2969 46.1438 87.3932C46.389 87.4895 46.651 87.5358 46.9143 87.5293L64.0945 87.1031C64.6105 87.0931 65.1018 86.8804 65.4621 86.511C65.8224 86.1415 66.0228 85.645 66.0198 85.129V74.7271C66.0192 74.2037 65.811 73.7019 65.4409 73.3318C65.0708 72.9617 64.569 72.7535 64.0456 72.753L46.8654 72.7521Z" fill="#371A45"/>
<path d="M66.2952 81.944L66.2321 83.1367C66.212 83.5084 66.0537 83.8592 65.7883 84.1201C65.5229 84.3811 65.1694 84.5334 64.7975 84.5472L42.9386 85.3264L12.7243 86.4063C12.5281 86.4132 12.3325 86.3813 12.1487 86.3125C11.9649 86.2436 11.7965 86.1391 11.6531 86.005C11.5098 85.8709 11.3944 85.7098 11.3135 85.5309C11.2325 85.3521 11.1878 85.159 11.1817 84.9628L11.1433 83.7229C11.136 83.4923 11.1825 83.2632 11.2793 83.0538C11.3761 82.8444 11.5205 82.6604 11.7009 82.5166H11.7035C11.9521 82.3131 12.2609 82.1972 12.582 82.1869L42.7151 81.141H42.776L64.7547 80.3776C64.9612 80.3704 65.1669 80.4062 65.3587 80.4828C65.5506 80.5593 65.7245 80.6749 65.8693 80.8222C66.0142 80.9695 66.1268 81.1452 66.2001 81.3384C66.2734 81.5315 66.3058 81.7377 66.2952 81.944Z" fill="#BCC4CC"/>
<g opacity="0.61">
<path d="M66.2952 81.9442L66.2512 82.771C66.1671 82.4407 65.9727 82.1491 65.7001 81.9445C65.4275 81.7399 65.0932 81.6347 64.7526 81.6462L42.7976 82.4096L42.7664 81.1402L64.7561 80.3768C64.9625 80.3698 65.1682 80.4058 65.3599 80.4825C65.5517 80.5591 65.7255 80.6748 65.8702 80.8222C66.0149 80.9695 66.1274 81.1454 66.2006 81.3385C66.2738 81.5317 66.306 81.7379 66.2952 81.9442Z" fill="#CEB7FF"/>
</g>
<path d="M42.984 85.215L42.9342 85.2106L11.7036 82.518H11.7009L10.5153 79.9228L1.49872 60.1986C1.38329 59.9474 1.33728 59.6699 1.3655 59.395C1.39372 59.12 1.49512 58.8577 1.65916 58.6352L2.35952 57.6818C2.49599 57.4976 2.67161 57.346 2.87373 57.2379C3.07585 57.1297 3.29945 57.0677 3.5284 57.0564L29.704 55.6716C30.5727 55.6251 31.4338 55.8537 32.165 56.325C32.8962 56.7962 33.4601 57.486 33.7766 58.2963L33.8308 58.432L42.7152 81.1446L42.8685 83.478L42.984 85.215Z" fill="#BCC4CC"/>
<g opacity="0.61">
<path d="M42.7398 81.5184L34.2284 59.7609C33.9118 58.9507 33.3479 58.2609 32.6167 57.7897C31.8855 57.3185 31.0244 57.0898 30.1558 57.1362L3.98018 58.5224C3.75122 58.5341 3.52772 58.5966 3.32582 58.7052C3.12391 58.8138 2.94863 58.9659 2.81262 59.1504L2.11225 60.1034C1.94321 60.3324 1.84085 60.6038 1.81651 60.8875L1.49872 60.1986C1.38329 59.9474 1.33728 59.6699 1.3655 59.395C1.39372 59.12 1.49512 58.8577 1.65916 58.6352L2.35952 57.6818C2.49599 57.4976 2.67161 57.346 2.87373 57.2379C3.07585 57.1297 3.29945 57.0677 3.5284 57.0564L29.704 55.6716C30.5727 55.6251 31.4338 55.8537 32.165 56.325C32.8962 56.7962 33.4601 57.486 33.7766 58.2963L42.7152 81.1446L42.7398 81.5184Z" fill="#CEB7FF"/>
</g>
<path d="M12.6699 87.0983C12.1041 87.0975 11.5607 86.8768 11.1546 86.4827C10.7486 86.0887 10.5116 85.5522 10.4939 84.9866L10.4551 83.7454C10.4377 83.169 10.6491 82.6091 11.0431 82.188C11.437 81.7668 11.9816 81.5186 12.5579 81.4976L64.7311 79.6856C65.0331 79.6752 65.3339 79.7277 65.6145 79.8397C65.8951 79.9517 66.1494 80.1208 66.3611 80.3364C66.5728 80.5519 66.7375 80.8091 66.8445 81.0916C66.9516 81.3741 66.9987 81.6758 66.983 81.9776L66.9208 83.1702C66.8949 83.7152 66.6645 84.2304 66.2755 84.6129C65.8866 84.9955 65.3677 85.2174 64.8224 85.2343L12.7497 87.0943C12.7232 87.0978 12.6963 87.0983 12.6699 87.0983ZM12.606 82.8771C12.3943 82.885 12.1943 82.9761 12.0496 83.1308C11.9049 83.2854 11.8271 83.491 11.8333 83.7027L11.8717 84.9438C11.875 85.0493 11.8991 85.1531 11.9426 85.2492C11.9861 85.3453 12.0482 85.4319 12.1253 85.5039C12.2024 85.5759 12.2929 85.6321 12.3918 85.669C12.4906 85.7059 12.5957 85.723 12.7012 85.7191L64.7734 83.8592C64.9739 83.8529 65.1647 83.7713 65.3077 83.6307C65.4507 83.49 65.5353 83.3005 65.5448 83.1002L65.6074 81.9075C65.6136 81.7966 65.5964 81.6856 65.557 81.5817C65.5176 81.4778 65.4568 81.3834 65.3786 81.3045C65.3014 81.2245 65.2081 81.1618 65.1048 81.1205C65.0016 81.0792 64.8907 81.0604 64.7796 81.0652L12.606 82.8771Z" fill="#371A45"/>
<path d="M42.9841 85.9034C42.8093 85.9032 42.641 85.8366 42.5134 85.717C42.3859 85.5975 42.3085 85.4339 42.297 85.2594L42.0352 81.2926L33.1354 58.5434C32.8716 57.8682 32.4016 57.2933 31.7924 56.9005C31.1831 56.5076 30.4655 56.3168 29.7416 56.3551L3.5664 57.7395C3.43919 57.746 3.31504 57.7808 3.20296 57.8414C3.09088 57.9019 2.99371 57.9867 2.91849 58.0895L2.21769 59.0419C2.12707 59.1657 2.07112 59.3115 2.05562 59.4641C2.04013 59.6167 2.06564 59.7707 2.12954 59.9102L12.3304 82.2306C12.368 82.3129 12.3891 82.4018 12.3923 82.4922C12.3956 82.5827 12.381 82.6729 12.3494 82.7577C12.3178 82.8425 12.2698 82.9202 12.2082 82.9865C12.1465 83.0527 12.0724 83.1062 11.9901 83.1438C11.9078 83.1814 11.8189 83.2025 11.7285 83.2057C11.638 83.209 11.5478 83.1944 11.463 83.1628C11.3782 83.1312 11.3005 83.0832 11.2342 83.0216C11.168 82.9599 11.1145 82.8858 11.0769 82.8035L0.872943 60.4845C0.707149 60.1216 0.641305 59.721 0.682218 59.3241C0.723132 58.9272 0.86932 58.5484 1.10566 58.227L1.80646 57.2741C2.00235 57.007 2.25522 56.7868 2.54674 56.6295C2.83826 56.4722 3.16112 56.3818 3.49191 56.3648L29.6671 54.9799C30.6807 54.9256 31.6855 55.1924 32.5387 55.7423C33.3918 56.2922 34.0498 57.0972 34.4189 58.0427L43.3574 80.8911C43.3824 80.957 43.3973 81.0262 43.4015 81.0965L43.6704 85.1686C43.6764 85.259 43.6646 85.3496 43.6356 85.4353C43.6066 85.521 43.5609 85.6002 43.5013 85.6683C43.4416 85.7364 43.3691 85.792 43.288 85.8321C43.2068 85.8721 43.1185 85.8957 43.0282 85.9016C43.015 85.9029 42.9995 85.9034 42.9841 85.9034Z" fill="#371A45"/>
<g opacity="0.25">
<path d="M42.9387 85.3278L12.7245 86.4076C12.5283 86.4146 12.3327 86.3827 12.1488 86.3138C11.965 86.245 11.7966 86.1405 11.6533 86.0064C11.5099 85.8723 11.3945 85.7111 11.3136 85.5323C11.2327 85.3534 11.1879 85.1604 11.1818 84.9642L11.1435 83.7243C11.1361 83.4937 11.1827 83.2646 11.2795 83.0552C11.3763 82.8457 11.5206 82.6618 11.701 82.518L10.5154 79.9228C24.5314 79.5702 33.3465 74.4786 32.3901 61.4948V57.6549L33.8309 58.4298L42.7153 81.1424H42.7761C42.81 81.9736 42.8418 82.7617 42.8686 83.4784C42.8938 84.1245 42.9162 84.7094 42.9343 85.2132C42.9365 85.2511 42.9365 85.2894 42.9387 85.3278Z" fill="#371A45"/>
</g>
<path d="M15.8596 87.3226C15.8596 87.3226 17.1774 82.3156 22.4859 83.1795C27.7944 84.0434 29.0364 89.3162 25.3094 91.2361C21.5824 93.1561 9.72338 92.855 11.229 83.4431C11.229 83.4449 11.6803 86.193 15.8596 87.3226Z" fill="#F8F8F8"/>
<g opacity="0.25">
<path d="M25.3086 91.237C22.7337 92.5633 16.2779 92.8295 13.0295 89.7645C16.1761 90.6067 19.804 90.196 21.5802 89.2796C24.0925 87.9856 24.3473 85.1687 22.6191 83.2056C27.8121 84.1378 29.0043 89.333 25.3086 91.237Z" fill="#371A45"/>
</g>
<path d="M20.4292 92.9851C17.9306 92.9851 15.2089 92.4192 13.2321 90.9871C11.5828 89.7922 9.75674 87.4915 10.4249 83.318C10.4554 83.127 10.5528 82.9531 10.6998 82.8275C10.8468 82.7018 11.0337 82.6326 11.2271 82.6322C11.4203 82.6316 11.6074 82.6998 11.755 82.8244C11.9026 82.9491 12.001 83.1221 12.0328 83.3127C12.0473 83.3889 12.4427 85.2701 15.3499 86.3098C16.1944 84.3176 18.4352 81.6947 22.6167 82.3765C25.6288 82.868 27.826 84.7698 28.2143 87.2218C28.5228 89.1809 27.5531 90.9968 25.6826 91.9608C24.4736 92.5844 22.5303 92.9851 20.4292 92.9851ZM12.0108 86.2032C12.2616 87.6396 12.9888 88.7997 14.1877 89.6679C17.2835 91.9105 22.7075 91.6624 24.9364 90.5138C26.1806 89.8729 26.8047 88.7375 26.6051 87.477C26.3953 86.152 25.1563 84.4423 22.3544 83.9853C17.8288 83.2461 16.6934 87.3549 16.6471 87.5298C16.6198 87.6337 16.5722 87.7312 16.507 87.8166C16.4419 87.902 16.3605 87.9737 16.2675 88.0275C16.1746 88.0813 16.0719 88.1162 15.9654 88.1302C15.8589 88.1442 15.7507 88.137 15.647 88.109C13.9439 87.6484 12.79 86.9317 12.0108 86.2032Z" fill="#371A45"/>
<path d="M76.7042 75.3919C76.4058 77.9174 75.3128 80.368 73.7428 81.5722L66.2975 79.0762C66.2975 79.0762 64.538 81.1089 60.1062 80.6571C55.6744 80.2054 53.6403 75.7167 53.6403 75.7167C53.6403 75.7167 51.7495 79.6425 49.4615 78.0615C48.8379 77.63 48.5359 77.0989 48.4381 76.5436C48.3094 75.8207 48.5196 75.0547 48.8066 74.4112C49.1538 73.6476 49.6419 72.9563 50.2452 72.3736L54.4875 68.197C58.0633 63.4919 63.0712 66.88 66.5338 68.8744H75.0047C76.5301 70.3858 76.9978 72.9236 76.7042 75.3919Z" fill="#F8F8F8"/>
<path d="M73.7428 82.388C73.6547 82.3873 73.5674 82.3724 73.484 82.3439L66.4884 79.9991C65.6716 80.6479 63.6398 81.8361 60.0225 81.4677C56.6974 81.1287 54.6228 78.7976 53.6192 77.3043C53.0735 78.0465 52.2572 78.891 51.2391 79.1612C50.4744 79.3639 49.7 79.2141 48.9987 78.7297C47.5147 77.7036 47.1828 76.0512 48.0634 74.0771C48.4522 73.2208 48.9986 72.4452 49.674 71.7909L53.8757 67.6557C57.6596 62.739 62.8398 65.7701 66.2715 67.7778L66.7537 68.059H75.0038C75.2184 68.0589 75.4243 68.1437 75.5768 68.2948C77.0189 69.7219 77.7484 72.0884 77.5787 74.7871C77.383 77.8944 76.0717 80.8114 74.2386 82.2178C74.0966 82.3276 73.9223 82.3874 73.7428 82.388ZM66.2975 78.2634C66.3856 78.2639 66.473 78.2788 66.5562 78.3074L73.5643 80.6567C74.8566 79.4393 75.7993 77.1108 75.9518 74.6884C76.0841 72.6115 75.6098 70.8137 74.6485 69.6915H66.5333C66.3906 69.6916 66.2505 69.654 66.1269 69.5827C65.9066 69.4557 65.6796 69.3231 65.4473 69.186C61.2553 66.7332 57.8337 65.1394 55.1336 68.691C55.1101 68.7222 55.0843 68.7517 55.0565 68.7792L50.8138 72.9544C50.2836 73.4663 49.8544 74.0732 49.5483 74.7435C48.7334 76.57 49.5973 77.1676 49.9225 77.3924C50.3289 77.6736 50.6278 77.6393 50.8186 77.5899C51.7587 77.3431 52.6627 75.863 52.9051 75.3641C52.9726 75.2248 53.0783 75.1076 53.21 75.0263C53.3416 74.9449 53.4937 74.9028 53.6484 74.9047C53.8031 74.9066 53.9541 74.9526 54.0837 75.0372C54.2132 75.1219 54.316 75.2417 54.3799 75.3826C54.398 75.4218 56.2871 79.4521 60.1864 79.8496C64.0858 80.2472 65.6659 78.5626 65.6809 78.5459C65.7573 78.4572 65.852 78.3861 65.9584 78.3373C66.0648 78.2885 66.1805 78.2633 66.2975 78.2634Z" fill="#371A45"/>
<path d="M52.9254 75.3252L55.9543 71.5105L54.3526 76.1102C54.317 76.2127 54.2615 76.3071 54.1893 76.3881C54.1172 76.4691 54.0298 76.5351 53.9321 76.5824C53.8345 76.6296 53.7285 76.6571 53.6202 76.6634C53.5119 76.6697 53.4034 76.6545 53.301 76.6189C52.7694 76.4452 52.5728 75.7545 52.9254 75.3252Z" fill="#371A45"/>
<path d="M65.554 78.7447L67.4743 76.7626L67.0406 79.4106L65.554 78.7447Z" fill="#371A45"/>
<g opacity="0.25">
<path d="M76.7041 75.3918C76.4057 77.9174 75.3127 80.368 73.7427 81.5721L66.2974 79.0761C66.2974 79.0761 64.5379 81.1089 60.1061 80.6571C55.6743 80.2053 53.6402 75.7167 53.6402 75.7167C53.6402 75.7167 51.7494 79.6425 49.4614 78.0615C48.8378 77.63 48.5358 77.0989 48.438 76.5435L48.6888 76.2927C48.6888 76.2927 50.383 77.422 52.2285 74.8991C54.0356 72.4277 56.3848 70.354 56.4796 70.2711C56.421 70.4157 54.5843 75.0057 58.2867 77.1562C62.0521 79.3401 66.6082 73.3542 66.6082 73.3542C66.6082 73.3542 69.3188 75.7259 75.8698 75.3874C76.1477 75.3717 76.4264 75.3732 76.7041 75.3918Z" fill="#371A45"/>
</g>
<path d="M54.9598 101.321C57.2865 99.6462 60.9982 97.9621 63.7925 99.4117C65.0826 100.187 66.1978 101.241 67.1705 102.371C68.1187 103.471 68.9404 104.674 69.6202 105.958C67.9251 104.156 66.0942 102.514 63.9437 101.318C63.1354 100.878 62.29 100.536 61.3574 100.518C59.4233 100.528 57.5118 101.517 55.9506 102.614C55.0757 103.26 54.1047 102.003 54.9598 101.321Z" fill="#371A45"/>
<path d="M66.9581 122.798C66.7736 122.798 66.5948 122.734 66.4529 122.616C66.3109 122.498 66.2146 122.334 66.1807 122.153C66.1468 121.971 66.1774 121.784 66.2672 121.623C66.357 121.461 66.5004 121.337 66.6725 121.27C66.8801 121.189 67.1749 121.016 67.3336 120.444C68.1437 117.512 64.4246 109.747 61.6175 106.142C58.7014 102.398 56.3548 102.764 56.2565 102.781C56.1553 102.802 56.0508 102.804 55.9491 102.784C55.8474 102.765 55.7505 102.726 55.6639 102.67C55.5773 102.613 55.5027 102.54 55.4445 102.454C55.3863 102.369 55.3456 102.273 55.3248 102.171C55.2825 101.965 55.3238 101.75 55.4394 101.574C55.555 101.398 55.7357 101.275 55.9418 101.232C56.0776 101.203 59.2916 100.579 62.8674 105.171C65.5283 108.588 69.9314 116.989 68.8595 120.865C68.6056 121.784 68.0476 122.434 67.2455 122.744C67.1539 122.78 67.0564 122.798 66.9581 122.798Z" fill="#371A45"/>
<path d="M61.9266 99.1561C61.9104 99.1716 61.8956 99.1885 61.8825 99.2068C61.8786 99.2121 61.8658 99.2332 61.8697 99.2262C61.8966 99.1821 61.9619 99.0697 61.9892 99.0247C63.1709 97.0246 64.5844 95.1721 66.1658 93.4712C68.3475 91.0783 71.4386 89.3585 74.6825 89.0425C75.4822 88.9901 76.2852 89.0325 77.075 89.1685C76.2842 89.2294 75.5138 89.3448 74.7729 89.5551C72.5691 90.1889 70.6465 91.4944 69.0104 93.067C68.4652 93.5876 67.9059 94.0927 67.3633 94.6247C66.0182 95.9743 64.8669 97.5191 63.8373 99.123C63.7447 99.2724 63.475 99.7061 63.3882 99.8564L63.3137 99.9825L63.274 100.05C62.6733 101.115 61.1689 100.122 61.9235 99.1574L61.9266 99.1561Z" fill="#371A45"/>
<path d="M76.2343 113.304C76.0739 113.304 75.9188 113.247 75.7966 113.143C75.6743 113.039 75.5928 112.896 75.5665 112.737C74.2293 104.681 69.1954 98.1273 64.3444 98.1273C64.1677 98.1228 63.9997 98.0494 63.8763 97.9228C63.7529 97.7962 63.6838 97.6264 63.6838 97.4496C63.6838 97.2728 63.7529 97.103 63.8763 96.9764C63.9997 96.8499 64.1677 96.7765 64.3444 96.772C69.9218 96.772 75.4383 103.687 76.9033 112.515C76.9328 112.693 76.8906 112.874 76.786 113.021C76.6815 113.167 76.5231 113.266 76.3458 113.295C76.3089 113.301 76.2716 113.304 76.2343 113.304Z" fill="#371A45"/>
<path d="M74.8663 68.0726L79.3906 68.1224L75.1418 69.6779C73.8931 70.0441 73.5665 68.144 74.8663 68.0726Z" fill="#371A45"/>
<path d="M82.3401 84.2837C78.178 84.2837 73.7136 82.4444 73.428 82.325C73.2318 82.2395 73.0771 82.0803 72.9974 81.8817C72.9176 81.6831 72.9193 81.4611 73.0019 81.2637C73.0845 81.0663 73.2415 80.9093 73.439 80.8267C73.6364 80.7442 73.8584 80.7426 74.057 80.8224C76.7456 81.9468 84.2918 84.1792 86.875 81.0547C87.0136 80.8914 87.2109 80.7892 87.4243 80.7703C87.6376 80.7514 87.8498 80.8173 88.015 80.9537C88.1801 81.0901 88.2848 81.2861 88.3065 81.4992C88.3282 81.7123 88.265 81.9254 88.1307 82.0922C86.7666 83.7424 84.5972 84.2837 82.3401 84.2837Z" fill="#371A45"/>
<path d="M72.4887 68.8144L72.2935 65.1482L74.0565 68.3688C74.1622 68.5633 74.1866 68.7917 74.1244 69.0041C74.0623 69.2165 73.9185 69.3957 73.7246 69.5024C73.2027 69.8048 72.5085 69.4116 72.4905 68.8144H72.4887Z" fill="#371A45"/>
<path d="M44.5232 72.0422C44.6572 70.8492 44.8665 69.6659 45.15 68.4994C45.4316 67.3512 45.7904 66.211 46.2959 65.147C45.9301 66.8615 45.9116 68.5932 46.0006 70.325C46.0337 70.8944 46.0804 71.4802 46.1505 72.0223C46.2452 73.2304 44.4571 73.2564 44.5197 72.0422H44.5232Z" fill="#371A45"/>
<g opacity="0.25">
<path d="M87.5035 81.5738C91.0251 93.5545 89.5138 102.854 79.8978 107.84L71.0545 119.396C68.8507 122.276 64.8019 123.041 61.7369 121.103C59.0174 119.385 56.7197 116.175 55.3058 112.791C55.5703 113.003 55.8368 113.235 56.1053 113.487C65.2903 122.071 64.3435 109.647 64.3435 109.647C73.1622 117.266 68.5924 104.729 68.5201 104.526L71.7843 107.087C71.7843 107.087 72.5566 105.055 79.3896 99.0683C86.2226 93.082 82.2135 85.9673 82.2135 85.9673C77.3568 86.9273 71.7843 83.3695 71.7843 83.4757C71.7843 83.5819 67.3614 82.9177 67.1921 83.0305C67.0229 83.1434 67.1538 79.3648 67.1538 79.3648L74.1446 81.7321L76.7041 75.3918C78.5517 75.3649 82.6221 75.3477 82.6221 75.3477C87.2642 65.6343 78.6579 60.3148 78.6579 60.3148C68.1587 64.9344 55.2767 61.5688 54.7976 61.433L62.4822 55.3206C67.1943 55.1002 71.0232 55.3815 71.0232 55.3815L77.6504 55.0315C77.6504 55.0315 83.2863 56.6376 86.2971 61.9818C89.3079 67.3259 90.2141 76.7647 87.5035 81.5738Z" fill="#371A45"/>
</g>
<g opacity="0.25">
<path d="M95.41 54.2304L95.342 54.2033C95.3647 54.1913 95.41 54.2304 95.41 54.2304Z" fill="#371A45"/>
</g>
<path d="M60.1151 61.3913C76.8037 61.3913 90.3324 47.8625 90.3324 31.1739C90.3324 14.4853 76.8037 0.956543 60.1151 0.956543C43.4265 0.956543 29.8977 14.4853 29.8977 31.1739C29.8977 47.8625 43.4265 61.3913 60.1151 61.3913Z" fill="#F8F8F8"/>
<g opacity="0.25">
<path d="M88.3631 41.9037C82.4358 57.5064 64.9849 65.3493 49.3844 59.4224C44.5809 57.6062 40.3228 54.5899 37.0159 50.6611C39.1329 52.1729 41.4362 53.4052 43.8688 54.3273C59.4715 60.2537 76.9202 52.4113 82.847 36.8107C86.8826 26.1863 84.5325 14.7042 77.6959 6.58765C88.5989 14.3727 93.3441 28.7925 88.3631 41.9037Z" fill="#371A45"/>
</g>
<path d="M32.0591 42.7578C33.7499 46.6492 36.5835 50.8307 41.2515 54.7904C54.6241 63.6977 72.6369 60.2558 80.2545 41.7387L79.0512 26.3934C78.4104 24.0278 77.1004 21.7844 75.3048 19.7516C64.2863 7.29497 35.0016 2.75518 30.2009 26.8809C30.2009 26.8809 28.2933 34.0929 32.0591 42.7578Z" fill="#371A45"/>
<g opacity="0.7">
<path d="M32.0591 42.7579C33.7498 46.6493 36.5834 50.8307 41.2515 54.7905C54.624 63.6977 72.6369 60.2559 80.2545 41.7388L79.0512 26.3935C78.4103 24.0279 77.1004 21.7845 75.3048 19.7517C79.3452 40.7255 53.5839 62.0559 32.2468 42.8509L32.0591 42.7579Z" fill="#111A28"/>
</g>
<path d="M58.8756 62.0696C58.2923 62.0696 57.6974 62.0499 57.0909 62.0105C56.9897 62.0059 56.8903 61.9812 56.7987 61.9377C56.7071 61.8942 56.625 61.8329 56.5574 61.7574C56.4898 61.6818 56.4379 61.5936 56.4048 61.4977C56.3717 61.4019 56.358 61.3004 56.3646 61.1992C56.3712 61.098 56.3979 60.9991 56.4432 60.9084C56.4884 60.8177 56.5514 60.7369 56.6282 60.6707C56.7051 60.6046 56.7944 60.5545 56.8909 60.5233C56.9873 60.4921 57.0891 60.4804 57.1901 60.489C64.8416 60.9893 71.3952 58.2077 76.6715 52.2231C80.2787 48.1333 82.0289 43.858 82.3353 43.065L81.6926 24.1478C78.7321 17.4324 72.7404 12.0305 64.8068 8.92583C56.685 5.74622 47.8783 5.59151 41.2488 8.51108C41.0646 8.58783 40.8576 8.58929 40.6723 8.51513C40.487 8.44098 40.3382 8.29714 40.2578 8.11447C40.1773 7.93181 40.1717 7.7249 40.2422 7.53816C40.3126 7.35141 40.4534 7.19972 40.6344 7.11565C47.627 4.03564 56.8714 4.18153 65.3609 7.50572C73.7273 10.781 80.0442 16.5231 83.1489 23.6735C83.1872 23.7613 83.2084 23.8555 83.2115 23.9512L83.8642 43.1682C83.8676 43.264 83.8526 43.3596 83.8202 43.4498C83.7479 43.6526 82.0042 48.4687 77.8506 53.1945C74.2236 57.3209 68.053 62.0687 58.8756 62.0696Z" fill="#371A45"/>
<path d="M56.2475 60.2267C50.9663 60.2267 45.605 58.5836 40.8377 55.4079C40.6772 55.2967 40.5666 55.1269 40.53 54.935C40.4934 54.7431 40.5335 54.5445 40.6419 54.3819C40.7502 54.2194 40.918 54.1058 41.1092 54.0658C41.3004 54.0257 41.4997 54.0623 41.6642 54.1676C48.2649 58.5646 56.0522 59.864 63.0294 57.7334C70.2375 55.5296 76.0806 49.8116 79.4978 41.6171L78.313 26.5212C77.123 22.2106 73.3766 17.9705 68.028 14.8852C62.6887 11.8026 56.2915 10.148 50.478 10.3428C44.377 10.5486 33.7248 12.9873 30.9304 27.0276C30.8918 27.2215 30.7778 27.3921 30.6135 27.5019C30.4491 27.6117 30.2479 27.6518 30.054 27.6132C29.8601 27.5746 29.6895 27.4606 29.5797 27.2962C29.4699 27.1319 29.4299 26.9306 29.4684 26.7367C31.6563 15.7469 39.2973 9.22857 50.4277 8.85305C63.4481 8.41626 77.1547 16.5222 79.7697 26.1995C79.7817 26.244 79.7895 26.2896 79.7931 26.3356L80.9977 41.6792C81.0067 41.7959 80.9883 41.913 80.9439 42.0213C77.3632 50.724 71.1556 56.8104 63.4644 59.1596C61.1249 59.871 58.6927 60.2306 56.2475 60.2267Z" fill="#371A45"/>
<path d="M60.1278 62.323C56.3445 62.3192 52.5937 61.6259 49.0591 60.277C33.0129 54.1804 24.9158 36.1645 31.0119 20.1184C33.9649 12.3443 39.7688 6.18606 47.3538 2.77725C54.9388 -0.631559 63.3973 -0.881027 71.1709 2.07204C87.2184 8.16858 95.3142 26.1836 89.2181 42.2311C86.2651 50.0047 80.4612 56.163 72.8762 59.5718C68.8695 61.3812 64.5241 62.3189 60.1278 62.323ZM60.1031 1.85563C55.9649 1.85984 51.8748 2.74291 48.1035 4.44639C40.9633 7.65466 35.5019 13.451 32.7211 20.768C26.9834 35.8723 34.6036 52.8286 49.7079 58.5664C57.0244 61.3458 64.9858 61.1096 72.1247 57.9013C79.2637 54.693 84.7264 48.8967 87.5071 41.5801L88.3622 41.9049L87.5071 41.5801C93.2449 26.4758 85.6247 9.51906 70.5204 3.78129C67.1938 2.51191 63.6637 1.85936 60.1031 1.85563Z" fill="#371A45"/>
<path d="M91.3157 33.4667C91.3871 38.8854 88.6959 43.2515 84.4805 43.3062C80.2651 43.3608 76.791 39.0136 76.7196 33.595C76.6482 28.1763 80.0077 23.7383 84.2226 23.6832C88.4376 23.6282 91.2448 28.0481 91.3157 33.4667Z" fill="#F8F8F8"/>
<g opacity="0.25">
<path d="M84.4796 43.3048C80.2655 43.3595 76.7906 39.0127 76.7223 33.5945C76.6998 31.8756 77.0207 30.2558 77.6073 28.8445C78.3059 33.42 81.4723 36.8579 85.2214 36.8098C88.0101 36.7719 90.1319 34.8515 91.2285 31.9862C91.2818 32.471 91.3118 32.9638 91.3166 33.4654C91.3858 38.8853 88.6968 43.2502 84.4796 43.3048Z" fill="#371A45"/>
</g>
<path d="M84.3998 44.2216C82.1079 44.2216 79.9557 43.1064 78.3315 41.0746C76.739 39.0819 75.8421 36.4299 75.8046 33.6068C75.7271 27.6923 79.4977 22.8303 84.2107 22.7682C86.5093 22.7444 88.6007 23.8851 90.0728 25.9989C91.4259 27.9405 92.192 30.5885 92.2299 33.4548C92.311 39.6328 89.0564 44.1607 84.4919 44.2207L84.3998 44.2216ZM84.3015 24.5973H84.235C80.5326 24.6462 77.5699 28.6765 77.6347 33.5821C77.6664 36.0006 78.4214 38.2542 79.7609 39.9317C81.0465 41.5404 82.7183 42.414 84.4686 42.3907C87.9735 42.3466 90.4682 38.5966 90.4007 33.4786C90.3681 30.9742 89.7189 28.6893 88.5725 27.0435C87.7919 25.9249 86.4194 24.5973 84.3015 24.5973Z" fill="#371A45"/>
<path d="M87.0289 42.667C83.3402 42.667 80.2955 38.5477 80.2272 33.4419C80.1959 31.0019 80.8372 28.6901 82.0343 26.932C83.2869 25.0896 84.9975 24.0622 86.8513 24.0384C87.2282 24.0341 87.6043 24.0735 87.9721 24.1556C88.0043 24.1627 88.0359 24.1719 88.0669 24.183C88.2511 24.2493 88.4028 24.3839 88.4905 24.5589C88.5782 24.734 88.5952 24.9361 88.538 25.1233C88.4808 25.3105 88.3537 25.4686 88.1831 25.5647C88.0126 25.6609 87.8115 25.6877 87.6217 25.6397C87.3747 25.5864 87.1225 25.5608 86.8698 25.5634C85.5295 25.5802 84.2597 26.3709 83.2953 27.7892C82.274 29.2913 81.7262 31.2919 81.7526 33.4217C81.8099 37.6935 84.1719 41.1419 87.0276 41.1419H87.0756C87.4573 41.1384 87.8355 41.0687 88.1934 40.9361C88.2876 40.8991 88.3882 40.8812 88.4894 40.8835C88.5906 40.8858 88.6904 40.9083 88.7828 40.9495C88.8752 40.9907 88.9585 41.05 89.0278 41.1237C89.0971 41.1975 89.1511 41.2843 89.1865 41.3792C89.2219 41.474 89.238 41.5749 89.234 41.676C89.23 41.7772 89.2059 41.8765 89.1631 41.9682C89.1203 42.06 89.0597 42.1423 88.9848 42.2103C88.9098 42.2784 88.8221 42.3308 88.7267 42.3646C88.2045 42.5583 87.6528 42.6605 87.0959 42.6665L87.0289 42.667Z" fill="#371A45"/>
<g opacity="0.5">
<path d="M52.4625 15.0652C43.5028 20.65 38.2957 28.3901 37.371 38.5888C37.2969 39.4064 36.1395 39.5183 35.9121 38.7298C32.1798 25.794 34.0137 14.6116 52.0266 13.686C52.7988 13.645 53.1183 14.6557 52.4625 15.0652Z" fill="#CEB7FF"/>
</g>
<g opacity="0.5">
<path d="M69.8946 33.9607L69.7346 33.974C69.0286 34.0314 68.3264 33.824 67.7649 33.3922C67.2034 32.9604 66.8227 32.3351 66.6969 31.638C66.6675 31.4728 66.6367 31.3128 66.6043 31.158C66.2905 29.6202 67.2655 28.1168 68.8042 27.8003L68.9249 27.7756C69.6195 27.6334 70.3422 27.755 70.952 28.1166C71.5618 28.4783 72.0151 29.054 72.2236 29.7317C72.2876 29.9374 72.348 30.1431 72.4047 30.3487C72.5182 30.7534 72.5408 31.1782 72.471 31.5927C72.4012 32.0071 72.2406 32.401 72.0007 32.7462C71.7609 33.0913 71.4477 33.3792 71.0836 33.5891C70.7195 33.7991 70.3135 33.926 69.8946 33.9607Z" fill="#CEB7FF"/>
</g>
<g opacity="0.5">
<path d="M64.0563 51.2583C63.7283 51.0623 63.4431 50.8024 63.2178 50.4938C62.9925 50.1853 62.8316 49.8346 62.7447 49.4625C62.6578 49.0905 62.6468 48.7048 62.7122 48.3284C62.7776 47.952 62.9181 47.5926 63.1254 47.2717C64.4877 45.1755 65.4531 42.8468 65.9736 40.4016C66.305 38.8488 67.812 37.8452 69.3643 38.1784L69.7641 38.2639C71.3305 38.5998 72.3235 40.164 71.9374 41.719C70.9753 45.5911 69.1673 48.6265 67.8305 50.4812C67.4131 51.06 66.7936 51.461 66.0947 51.6049C65.3958 51.7488 64.6684 51.6251 64.0563 51.2583Z" fill="#CEB7FF"/>
</g>
<g opacity="0.25">
<path d="M49.0273 96.4481C49.0273 96.4481 59.0413 99.2571 66.8339 93.4594L63.2254 98.8428L61.9397 99.6925C59.2238 99.8442 57.0205 100.462 55.6431 101.831C52.8857 100.82 50.6044 99.1341 49.0273 96.4481Z" fill="#371A45"/>
</g>
<g opacity="0.25">
<path d="M45.8297 66.8699C45.8297 66.8699 42.4478 69.8891 40.6729 75.9234L42.9833 80.9225L43.793 80.3755C43.793 80.3755 44.1694 74.1366 44.0755 74.0238C43.9816 73.911 45.0813 72.7531 45.336 71.087C45.5908 69.421 45.5723 68.3949 45.5723 68.3949" fill="#371A45"/>
</g>
<path d="M28.1025 101.48L29.4688 104.603L26.8093 102.471C26.723 102.402 26.6512 102.317 26.5978 102.221C26.5445 102.125 26.5107 102.019 26.4984 101.909C26.4861 101.799 26.4956 101.689 26.5262 101.583C26.5569 101.477 26.6081 101.378 26.6771 101.292C27.0508 100.801 27.8671 100.915 28.0998 101.48H28.1025Z" fill="#371A45"/>
<path d="M83.1352 58.7344C82.9824 58.7342 82.8328 58.6911 82.7034 58.61C82.574 58.5288 82.4699 58.4129 82.4033 58.2755C82.3366 58.1381 82.3099 57.9846 82.3262 57.8327C82.3425 57.6809 82.4013 57.5366 82.4957 57.4165C86.3593 52.5065 92.3069 53.358 92.5586 53.3964C92.7689 53.4325 92.9567 53.5497 93.0815 53.7229C93.2063 53.896 93.2582 54.1112 93.2259 54.3222C93.1937 54.5331 93.08 54.723 92.9092 54.851C92.7384 54.979 92.5242 55.0348 92.3126 55.0065C92.0962 54.9743 87.0399 54.2757 83.7756 58.4237C83.6994 58.5206 83.6022 58.599 83.4912 58.6529C83.3803 58.7067 83.2585 58.7346 83.1352 58.7344Z" fill="#371A45"/>
<g opacity="0.25">
<path d="M83.4573 51.1136C83.4573 51.1136 78.825 53.2464 85.3191 60.3175C82.9857 57.9286 80.5647 56.0682 77.9875 55.1448L81.5735 50.8893" fill="#371A45"/>
</g>
<path d="M25.1616 65.3369C25.2632 65.5581 25.3506 65.7855 25.4234 66.0178C24.4758 66.7909 22.6026 67.8761 20.3604 68.9013C18.1183 69.9264 16.0736 70.6347 14.8686 70.8463C14.7406 70.6393 14.6258 70.4243 14.5248 70.2028L14.5103 70.1715C14.4659 70.0725 14.4243 69.9729 14.3855 69.8727C14.2958 69.6412 14.221 69.4042 14.1616 69.1631C14.1616 69.1534 14.1568 69.1437 14.1546 69.134C13.8394 67.8202 13.9887 66.4377 14.5771 65.2215C15.1656 64.0053 16.1569 63.0303 17.3827 62.462C18.6085 61.8938 19.9932 61.7674 21.3016 62.1044C22.61 62.4413 23.7615 63.2207 24.5604 64.3103C24.578 64.3341 24.5952 64.3579 24.612 64.3822C24.7555 64.5848 24.8859 64.7963 25.0025 65.0155C25.0465 65.098 25.0906 65.1817 25.129 65.2668C25.14 65.2901 25.151 65.3131 25.1616 65.3369Z" fill="#CEB7FF"/>
<path d="M25.6707 68.2749C25.5935 69.1615 25.3152 70.0188 24.8567 70.7816C24.3983 71.5443 23.7718 72.1924 23.0251 72.6766C22.2784 73.1607 21.4311 73.4681 20.5476 73.5754C19.6642 73.6827 18.7679 73.5869 17.927 73.2956C17.3874 73.1084 16.878 72.8435 16.4148 72.5093C17.8477 72.1425 19.5032 71.5532 21.2155 70.77C22.9278 69.9868 24.456 69.1194 25.6707 68.2749Z" fill="#CEB7FF"/>
<path d="M25.4234 66.0174C24.4758 66.7909 22.6026 67.8765 20.3609 68.9012C18.1192 69.926 16.0732 70.6347 14.8682 70.8463C14.7405 70.6391 14.6257 70.4241 14.5244 70.2028L14.5103 70.1715C14.4662 70.0723 14.4222 69.9727 14.3856 69.8727C14.296 69.6411 14.2212 69.4041 14.1617 69.163C14.159 69.1534 14.1568 69.1437 14.1546 69.134C13.8783 67.9793 13.9597 66.7679 14.3879 65.6605C14.8161 64.5531 15.571 63.6022 16.5523 62.9338C15.8907 63.9635 15.5671 65.174 15.6268 66.3964C15.6449 66.7564 15.6966 67.1139 15.781 67.4644C15.781 67.4741 15.7859 67.4838 15.7881 67.4935C15.7903 67.5032 15.7956 67.5221 15.8013 67.5406C16.0992 68.5455 17.1813 68.966 18.2255 68.8713C20.215 68.691 24.5239 66.362 25.4406 65.8243C25.505 65.979 25.3741 65.8609 25.4234 66.0174Z" fill="#CEB7FF"/>
<path d="M21.2155 70.77C22.9278 69.9868 24.456 69.1194 25.6707 68.2749C25.6499 68.513 25.6145 68.7495 25.5645 68.9832C24.63 69.6681 23.1359 70.5157 21.3949 71.3121C19.7275 72.0751 18.1725 72.6344 17.0517 72.9094C16.8309 72.79 16.6182 72.6563 16.4148 72.5092C17.8477 72.1425 19.5032 71.5532 21.2155 70.77Z" fill="#CEB7FF"/>
<path d="M25.1292 65.2668C25.1402 65.2902 25.1512 65.3109 25.1618 65.3369C25.2634 65.5581 25.3508 65.7856 25.4236 66.0179C24.476 66.791 22.6028 67.8761 20.3607 68.9013C18.1185 69.9265 16.0739 70.6348 14.8688 70.8464C14.7408 70.6393 14.626 70.4244 14.525 70.2029L14.5105 70.1716C15.6538 70.0394 17.7373 69.354 20.0199 68.3094C22.3952 67.2234 24.335 66.0479 25.1292 65.2668Z" fill="#CEB7FF"/>
<path d="M13.9912 68.2631L14.0097 67.8691C14.807 67.907 16.8892 67.2357 19.0731 66.2383C21.6784 65.0482 23.3595 63.9071 23.6737 63.3976L24.0092 63.6047C23.5935 64.2787 21.6758 65.481 19.2371 66.597C16.9663 67.6346 14.8582 68.3041 13.9912 68.2631Z" fill="#CEB7FF"/>
<path d="M14.2746 66.2721L14.2151 65.8825C15.1107 65.7454 16.663 65.205 18.2656 64.4721C19.9449 63.7038 21.395 62.8584 22.0561 62.2656L22.3206 62.5583C21.6348 63.1753 20.1441 64.0472 18.4309 64.8308C16.7962 65.5775 15.2063 66.1302 14.2746 66.2721Z" fill="#CEB7FF"/>
<path d="M14.1548 69.331V68.9369C15.0698 68.9369 17.2211 68.2344 19.5082 67.188C21.9077 66.0905 23.9193 64.8595 24.4006 64.1948L24.7201 64.4258C24.1948 65.1517 22.1664 66.4057 19.6726 67.5468C17.3018 68.631 15.1359 69.3314 14.1548 69.331Z" fill="#CEB7FF"/>
<path d="M17.9346 73.394L17.9271 73.2961L17.8831 73.208L17.9011 73.1983H17.9218C18.7126 73.1379 20.2186 72.6438 21.7564 71.9395C23.3052 71.2312 24.6262 70.4409 25.2049 69.8723L25.3429 70.0134C24.7492 70.5947 23.4062 71.4013 21.8388 72.1184C20.2548 72.8421 18.7593 73.3309 17.9346 73.394Z" fill="#CEB7FF"/>
<path d="M25.6707 68.2749C25.581 69.3057 25.2195 70.2942 24.6232 71.1397C24.0268 71.9852 23.2169 72.6575 22.276 73.0879C21.3351 73.5183 20.2969 73.6916 19.2673 73.5899C18.2376 73.4883 17.2533 73.1154 16.4148 72.5093C17.8477 72.1425 19.5032 71.5532 21.2155 70.77C22.9278 69.9868 24.456 69.1194 25.6707 68.2749Z" fill="#CEB7FF"/>
<path d="M28.5238 64.7101C28.8804 65.4889 27.7221 66.8491 25.6708 68.2749C24.4561 69.1194 22.928 69.9868 21.2156 70.7701C19.5033 71.5533 17.8478 72.1426 16.4149 72.5093C13.9947 73.1294 12.2083 73.1158 11.8518 72.3369C11.5282 71.6291 12.4534 70.4417 14.1618 69.1635C14.2211 69.4046 14.2959 69.6416 14.3857 69.8731C13.9136 70.2627 13.6805 70.5713 13.7633 70.7498C13.8462 70.9283 14.2451 70.9561 14.8687 70.8467C16.0738 70.6352 18.1206 69.9264 20.3606 68.9017C22.6005 67.8769 24.4759 66.7913 25.4235 66.0183C25.9141 65.6176 26.1561 65.3007 26.0728 65.1187C25.9895 64.9367 25.606 64.9137 25.0026 65.016C24.8861 64.7967 24.7556 64.5852 24.6121 64.3826C26.6977 63.9264 28.2003 64.0022 28.5238 64.7101Z" fill="#CEB7FF"/>
<path d="M14.3496 69.778C14.3615 69.8097 14.3734 69.8414 14.3857 69.8732C13.9137 70.2623 13.6805 70.5704 13.7634 70.7494C13.8462 70.9283 14.2455 70.9557 14.8688 70.8463C15.6679 70.7062 16.8381 70.347 18.1894 69.8216C18.1676 69.9311 18.1676 70.0439 18.1894 70.1535C17.6676 70.3496 17.162 70.5224 16.6825 70.67C14.5973 71.3109 13.509 71.3021 13.3821 71.0226C13.3076 70.8591 13.524 70.447 14.3496 69.778Z" fill="#CEB7FF"/>
<path d="M14.1926 69.4941L14.2424 69.5563C13.8879 69.825 13.554 70.1196 13.2432 70.4378C13.4287 70.1676 13.7447 69.8538 14.1926 69.4941Z" fill="#CEB7FF"/>
<path d="M14.2944 69.6186L14.2441 69.5559C14.2513 69.5497 14.2597 69.5439 14.2681 69.5377L14.2944 69.6186Z" fill="#CEB7FF"/>
<path d="M13.245 70.4395C13.0524 70.7224 13.003 70.9591 13.0925 71.1552C13.1819 71.3514 13.3851 71.4523 13.6694 71.4973C14.4108 71.6149 15.6868 71.3099 16.7763 70.975C17.2695 70.8238 17.79 70.6448 18.326 70.4434C18.4291 70.5756 18.5825 70.6753 18.7809 70.7519C17.9875 71.0547 17.2188 71.3108 16.4982 71.5123C13.9295 72.2307 12.8135 72.0376 12.6376 71.6546C12.5402 71.4404 12.6808 71.0323 13.245 70.4395Z" fill="#CEB7FF"/>
<path d="M21.1125 70.8181C19.4376 71.578 17.8205 72.1501 16.4167 72.5093C13.9969 73.1295 12.2101 73.1158 11.854 72.3365C11.5304 71.6313 12.4556 70.4413 14.164 69.1631C14.1816 69.2339 14.2005 69.3046 14.2208 69.3751L14.1234 69.2477C13.1317 70.0067 12.0188 71.0632 12.3502 71.7856C12.4781 72.065 12.7809 72.2162 13.1815 72.2797C14.1247 72.4282 15.6057 72.0928 16.5864 71.8186C17.517 71.554 18.4331 71.2408 19.3309 70.8803C19.8034 70.9402 20.4073 70.9182 21.1125 70.8181Z" fill="#CEB7FF"/>
<path d="M18.326 70.4435C17.7896 70.6449 17.2681 70.8238 16.7763 70.975C15.6867 71.31 14.4107 71.615 13.6694 71.4973C13.3851 71.4532 13.1797 71.3457 13.0924 71.1553C13.0051 70.9649 13.0523 70.7225 13.2449 70.4395C13.5557 70.1213 13.8897 69.8267 14.2441 69.558L14.2939 69.6201C14.312 69.6735 14.3305 69.7264 14.3495 69.7797C13.5239 70.4488 13.3075 70.8609 13.3824 71.0239C13.5103 71.3038 14.5976 71.3126 16.6828 70.6713C17.1624 70.5237 17.6679 70.3509 18.1898 70.1548C18.1999 70.2054 18.2159 70.2546 18.2374 70.3015C18.261 70.3523 18.2908 70.3999 18.326 70.4435Z" fill="#CEB7FF"/>
<path d="M14.2441 69.5562C13.8896 69.8249 13.5557 70.1196 13.2449 70.4377C13.4287 70.1658 13.7447 69.852 14.1943 69.4923L14.2441 69.5562Z" fill="#CEB7FF"/>
<path d="M14.2939 69.6179L14.3936 69.7422C14.3786 69.7537 14.364 69.7656 14.3495 69.7775C14.3305 69.7246 14.312 69.6717 14.2939 69.6179Z" fill="#CEB7FF"/>
<path d="M24.2739 67.5463C23.2285 68.2009 21.9675 68.8717 20.6271 69.4857C19.8479 69.8422 19.0713 70.1662 18.3259 70.4452C18.2908 70.4012 18.2612 70.3531 18.2378 70.3019C18.2163 70.255 18.2004 70.2058 18.1902 70.1552C18.9355 69.8771 19.7139 69.5531 20.4949 69.1961C21.8229 68.5883 23.0711 67.9245 24.1043 67.2766C25.9528 66.1178 26.6567 65.2892 26.5284 65.0102C26.4517 64.8432 25.9841 64.7374 24.8976 64.9388L24.8535 64.703L24.839 64.625C25.4076 64.5192 25.8527 64.4853 26.1793 64.5241C26.5165 64.5646 26.7272 64.6823 26.8167 64.8767C27.1345 65.5651 25.6081 66.7089 24.2739 67.5463Z" fill="#CEB7FF"/>
<path d="M19.3287 70.8802C18.4309 71.2408 17.5147 71.554 16.5841 71.8186C15.603 72.0928 14.1225 72.4282 13.1793 72.2796C12.7786 72.2162 12.474 72.065 12.348 71.7856C12.0165 71.0632 13.1295 70.0067 14.1212 69.2477L14.2186 69.3751C14.2344 69.4297 14.2503 69.4844 14.2679 69.5381C14.2596 69.5443 14.2512 69.55 14.2441 69.5562L14.1943 69.4941C13.7447 69.8537 13.4287 70.1675 13.2449 70.4395C12.6808 71.0323 12.5397 71.4404 12.6376 71.6533C12.8139 72.0363 13.9294 72.2294 16.4982 71.511C17.2188 71.3095 17.9879 71.0535 18.7808 70.7507C18.9577 70.8152 19.1416 70.8587 19.3287 70.8802Z" fill="#CEB7FF"/>
<path d="M14.1926 69.4941L14.2424 69.5563C13.8879 69.825 13.554 70.1196 13.2432 70.4378C13.4287 70.1676 13.7447 69.8538 14.1926 69.4941Z" fill="#CEB7FF"/>
<path d="M14.2185 69.375L14.315 69.5011L14.2679 69.5381C14.2502 69.4856 14.2366 69.4297 14.2185 69.375Z" fill="#CEB7FF"/>
<path d="M25.0351 67.9514C23.8729 68.7227 22.4594 69.4941 20.9471 70.1878C20.4041 70.4364 19.862 70.6678 19.3269 70.8802C19.1398 70.8587 18.956 70.8152 18.7791 70.7507C19.4459 70.4968 20.13 70.2103 20.8149 69.8974C22.3135 69.2129 23.7098 68.4477 24.8593 67.6856C27.0825 66.2113 27.666 65.2408 27.491 64.8573C27.3936 64.6449 26.9943 64.4844 26.1798 64.5223C25.734 64.5492 25.2909 64.609 24.854 64.7013L24.7658 64.7194L24.7011 64.4069C25.9233 64.1525 27.4505 64.0018 27.7811 64.7242C28.2126 65.6635 26.2472 67.1497 25.0351 67.9514Z" fill="#CEB7FF"/>
<path d="M28.5238 64.7101C28.8804 65.4889 27.7221 66.8491 25.6708 68.2749C24.4561 69.1194 22.928 69.9868 21.2156 70.7701C19.5033 71.5533 17.8478 72.1426 16.4149 72.5093C13.9947 73.1294 12.2083 73.1158 11.8518 72.3369C11.5282 71.6291 12.4534 70.4417 14.1618 69.1635C14.2211 69.4046 14.2959 69.6416 14.3857 69.8731C13.9136 70.2627 13.6805 70.5713 13.7633 70.7498C13.8462 70.9283 14.2451 70.9561 14.8687 70.8467C16.0738 70.6352 18.1206 69.9264 20.3606 68.9017C22.6005 67.8769 24.4759 66.7913 25.4235 66.0183C25.9141 65.6176 26.1561 65.3007 26.0728 65.1187C25.9895 64.9367 25.606 64.9137 25.0026 65.016C24.8861 64.7967 24.7556 64.5852 24.6121 64.3826C26.6977 63.9264 28.2003 64.0022 28.5238 64.7101Z" fill="#CEB7FF"/>
<g opacity="0.41">
<path d="M25.4252 66.0377C25.315 66.1258 25.192 66.2219 25.0576 66.3198C25.0021 66.1658 24.9399 66.0133 24.8712 65.8623C24.8601 65.8389 24.8491 65.8182 24.8385 65.7926C24.7986 65.7071 24.7564 65.6234 24.7121 65.5414C24.5955 65.322 24.4651 65.1103 24.3215 64.9076C24.3048 64.8838 24.2872 64.86 24.27 64.8362C23.7094 64.0724 22.9717 63.4561 22.1203 63.0404C21.2689 62.6247 20.3293 62.4219 19.3822 62.4496C18.4352 62.4773 17.509 62.7345 16.6833 63.1992C15.8576 63.6639 15.1572 64.3222 14.6421 65.1174C15.056 64.3122 15.651 63.614 16.3804 63.0777C17.1099 62.5415 17.9538 62.1818 18.8457 62.0269C19.7377 61.8721 20.6535 61.9263 21.521 62.1853C22.3885 62.4443 23.184 62.9011 23.8451 63.5196C24.1097 63.7666 24.3504 64.038 24.564 64.3302C24.582 64.354 24.5988 64.3782 24.616 64.4025C24.7594 64.6049 24.8899 64.8163 25.0065 65.0354C25.0505 65.1178 25.0946 65.202 25.1325 65.2866C25.144 65.31 25.155 65.3334 25.1651 65.3572C25.2659 65.5784 25.3527 65.8057 25.4252 66.0377Z" fill="#CEB7FF"/>
</g>
<path d="M25.1617 65.3369C25.2632 65.5581 25.3507 65.7856 25.4235 66.0179C24.4759 66.7909 22.6026 67.8761 20.3605 68.9013C18.1184 69.9265 16.0737 70.6348 14.8687 70.8463C14.7407 70.6393 14.6258 70.4244 14.5249 70.2028C14.4747 70.0935 14.4282 69.9835 14.3856 69.8727C13.8471 68.4826 13.8598 66.9392 14.4211 65.5582C14.9825 64.1771 16.0501 63.0625 17.4058 62.4423C18.7615 61.8221 20.3028 61.7431 21.7148 62.2214C23.1268 62.6997 24.3029 63.6992 25.0026 65.0156C25.0587 65.1205 25.1117 65.2276 25.1617 65.3369Z" fill="#CEB7FF"/>
<path d="M24.6875 65.5688C24.7794 65.7693 24.8586 65.9754 24.9247 66.1858C24.067 66.8853 22.3714 67.8669 20.3443 68.7942C18.3173 69.7216 16.4657 70.3629 15.3757 70.5542C15.2602 70.3666 15.1562 70.1722 15.0645 69.9719L15.0517 69.9433C15.0112 69.8551 14.9736 69.7651 14.9389 69.6731C14.8578 69.4637 14.7901 69.2493 14.7361 69.0313C14.7361 69.0225 14.7317 69.0137 14.73 69.0049C14.4446 67.8163 14.5795 66.5655 15.1118 65.4651C15.6442 64.3647 16.541 63.4825 17.6501 62.9685C18.7591 62.4544 20.0119 62.3401 21.1957 62.6451C22.3794 62.9501 23.4211 63.6555 24.1436 64.6414C24.1595 64.663 24.1749 64.6855 24.1904 64.7066C24.3201 64.8899 24.4379 65.0813 24.543 65.2796C24.5826 65.3541 24.621 65.4299 24.6571 65.5066C24.6681 65.5265 24.6778 65.5476 24.6875 65.5688Z" fill="#FFB200"/>
<path d="M25.148 68.2269C25.1024 68.7444 24.9812 69.2524 24.7883 69.7348C24.2835 70.9982 23.3111 72.0185 22.0735 72.5836C20.8358 73.1487 19.4279 73.215 18.1426 72.7689C17.8691 72.6742 17.6038 72.5575 17.3492 72.4198C17.1495 72.3116 16.9569 72.1906 16.7727 72.0575C18.069 71.7257 19.5667 71.1928 21.1159 70.484C22.6652 69.7753 24.0492 68.9908 25.148 68.2269Z" fill="#FF9100"/>
<path d="M24.9247 66.1844C24.0674 66.8844 22.3714 67.8664 20.3443 68.7933C18.3173 69.7202 16.4657 70.3619 15.3757 70.5532C15.2602 70.3657 15.1563 70.1712 15.0645 69.971C15.0601 69.9613 15.0561 69.952 15.0517 69.9428C15.0112 69.8546 14.9737 69.7629 14.9389 69.6721C14.8578 69.4627 14.7901 69.2484 14.7361 69.0304C14.7361 69.0216 14.7317 69.0128 14.73 69.004C14.4802 67.9594 14.5538 66.8635 14.9412 65.8617C15.3286 64.86 16.0113 63.9997 16.8989 63.3949C16.3 64.3262 16.0072 65.4214 16.0615 66.5273C16.0777 66.853 16.1244 67.1765 16.2008 67.4935L16.2074 67.5199C16.21 67.5314 16.214 67.5455 16.2189 67.564C16.4886 68.4733 17.4675 68.8537 18.4121 68.7682C20.2121 68.6051 24.1102 66.4978 24.9392 66.0117C24.9983 66.1496 24.8797 66.043 24.9247 66.1844Z" fill="#FF9100"/>
<path d="M21.1179 70.484C22.6667 69.7753 24.0493 68.9908 25.1481 68.2269C25.1294 68.4423 25.0973 68.6564 25.0521 68.8678C24.2067 69.4875 22.8549 70.254 21.2801 70.9746C19.7714 71.6644 18.3649 72.1721 17.3512 72.4198C17.1514 72.3116 16.9588 72.1906 16.7747 72.0575C18.0714 71.7257 19.5699 71.1928 21.1179 70.484Z" fill="#D66B09"/>
<path d="M24.6578 65.5052C24.6679 65.5264 24.6776 65.5493 24.6873 65.5687C24.7792 65.7692 24.8584 65.9753 24.9245 66.1858C24.0667 66.8853 22.3712 67.8668 20.3441 68.7942C18.3171 69.7215 16.4655 70.3628 15.3755 70.5541C15.2599 70.3666 15.156 70.1721 15.0643 69.9719L15.0515 69.9432C16.0855 69.8247 17.9706 69.2036 20.0369 68.2587C22.1847 67.2753 23.9394 66.2113 24.6578 65.5052Z" fill="#D66B09"/>
<path d="M14.5818 68.2159L14.5985 67.8598C15.3201 67.8941 17.2034 67.2868 19.1793 66.3828C21.5365 65.3043 23.058 64.2738 23.3414 63.8127L23.6451 64.0001C23.2691 64.6101 21.5338 65.6979 19.3256 66.7072C17.2735 67.6469 15.3663 68.2516 14.5818 68.2159Z" fill="#D66B09"/>
<path d="M14.8384 66.415L14.7842 66.0624C15.5947 65.9386 16.999 65.4498 18.4491 64.7864C19.9683 64.0914 21.2818 63.3262 21.8773 62.7898L22.1162 63.0542C21.4956 63.6136 20.1473 64.4012 18.5972 65.1099C17.1193 65.7865 15.6789 66.2863 14.8384 66.415Z" fill="#D66B09"/>
<path d="M14.73 69.1824V68.8245C15.5577 68.8245 17.5037 68.1894 19.573 67.2427C21.7437 66.2496 23.5636 65.1363 23.9991 64.5347L24.2882 64.744C23.8126 65.4003 21.9778 66.5348 19.7215 67.5649C17.5768 68.5491 15.6177 69.1829 14.73 69.1824Z" fill="#D66B09"/>
<path d="M18.1493 72.8579L18.1427 72.7698L18.1008 72.6909L18.1171 72.6821H18.1356C18.851 72.6279 20.2134 72.1805 21.6066 71.5431C23.0073 70.9023 24.2027 70.1861 24.7263 69.6735L24.851 69.8008C24.3137 70.3267 23.099 71.0566 21.6811 71.7054C20.2486 72.3586 18.8955 72.8011 18.1493 72.8579Z" fill="#D66B09"/>
<path d="M19.8784 73.2802C18.7176 73.2808 17.5861 72.9157 16.6445 72.2369L16.262 71.9605L16.719 71.8433C18.0492 71.503 19.5399 70.9618 21.0252 70.283C22.5106 69.6043 23.8937 68.8285 25.0216 68.0453L25.409 67.776L25.368 68.2463C25.249 69.6201 24.619 70.8994 23.6027 71.8314C22.5863 72.7634 21.2574 73.2804 19.8784 73.2802ZM17.3088 72.1426C18.0117 72.555 18.8038 72.7919 19.6178 72.8332C20.4317 72.8746 21.2437 72.7191 21.9848 72.38C22.726 72.0409 23.3745 71.5282 23.8754 70.8853C24.3763 70.2423 24.7149 69.4882 24.8624 68.6866C23.7962 69.3887 22.5436 70.0745 21.2095 70.685C19.8753 71.2954 18.5371 71.7953 17.3092 72.1426H17.3088Z" fill="#371A45"/>
<path d="M27.7291 65.0014C28.0518 65.7066 27.0041 66.9368 25.1481 68.2269C24.0492 68.9907 22.6666 69.7752 21.1178 70.484C19.569 71.1927 18.0708 71.7256 16.7746 72.0575C14.5849 72.6186 12.9691 72.6062 12.6464 71.9014C12.3538 71.2615 13.1908 70.1882 14.7361 69.0304C14.79 69.2483 14.8578 69.4627 14.9388 69.6721C14.5117 70.0247 14.3019 70.3037 14.3755 70.4655C14.4491 70.6272 14.8114 70.6519 15.3756 70.5536C16.4656 70.3623 18.3176 69.721 20.3442 68.7937C22.3708 67.8663 24.0669 66.8848 24.9246 66.1853C25.368 65.823 25.5857 65.536 25.5121 65.3712C25.4385 65.2064 25.0894 65.1861 24.5424 65.2786C24.4373 65.0803 24.3196 64.8889 24.1898 64.7057C26.0772 64.2927 27.4365 64.3614 27.7291 65.0014Z" fill="#FFD766"/>
<path d="M14.9061 69.5867C14.9166 69.6153 14.9277 69.644 14.9387 69.6748C14.5116 70.0274 14.3013 70.306 14.3754 70.4682C14.4494 70.6304 14.8117 70.6546 15.3755 70.5563C16.0983 70.4294 17.157 70.1041 18.3797 69.6307C18.36 69.73 18.36 69.8321 18.3797 69.9313C17.9076 70.1076 17.4501 70.265 17.0164 70.3985C15.13 70.9781 14.1462 70.9715 14.0307 70.7172C13.9633 70.5647 14.159 70.1909 14.9061 69.5867Z" fill="#FFAA39"/>
<path d="M14.7655 69.3297L14.8096 69.3861C14.489 69.6298 14.187 69.8969 13.906 70.1852C14.0729 69.9393 14.3594 69.6541 14.7655 69.3297Z" fill="#FF9100"/>
<path d="M14.8562 69.4423L14.8118 69.3858C14.8184 69.38 14.826 69.3747 14.8335 69.3694L14.8562 69.4423Z" fill="#FF9100"/>
<path d="M13.9069 70.1852C13.7306 70.4408 13.6865 70.6555 13.7685 70.8327C13.8505 71.0098 14.033 71.1015 14.2908 71.1412C14.9617 71.2474 16.116 70.9715 17.1015 70.6687C17.5476 70.5316 18.0179 70.3699 18.5036 70.1878C18.613 70.3159 18.7551 70.4118 18.9148 70.4655C18.1977 70.7397 17.5017 70.9715 16.8499 71.1535C14.5257 71.8036 13.5164 71.6291 13.3573 71.2822C13.2691 71.0905 13.3965 70.7198 13.9069 70.1852Z" fill="#FFAA39"/>
<path d="M21.0244 70.5273C19.5095 71.2149 18.0466 71.7327 16.7764 72.0576C14.5871 72.6187 12.9709 72.6063 12.6482 71.9011C12.356 71.2616 13.193 70.1883 14.7383 69.03C14.7542 69.0944 14.7718 69.1583 14.7899 69.2222L14.7017 69.1067C13.8048 69.7934 12.7977 70.7494 13.0974 71.4031C13.2133 71.6561 13.487 71.7922 13.8497 71.85C14.7026 71.9844 16.0421 71.6807 16.9302 71.4326C17.772 71.1931 18.6008 70.9098 19.413 70.5837C19.8401 70.6388 20.387 70.6181 21.0244 70.5273Z" fill="#FFAA39"/>
<path d="M18.5037 70.1909C18.0189 70.3729 17.5477 70.5347 17.1017 70.6718C16.1162 70.9746 14.9618 71.2505 14.291 71.1442C14.0336 71.1037 13.848 71.0072 13.7687 70.8357C13.6894 70.6643 13.7326 70.4439 13.9071 70.1882C14.1881 69.8999 14.4901 69.6328 14.8106 69.3892L14.8547 69.4451C14.8706 69.4936 14.8878 69.5417 14.905 69.5897C14.1557 70.1949 13.9622 70.5677 14.0301 70.7154C14.1455 70.9684 15.1293 70.9763 17.0158 70.3967C17.4495 70.2645 17.907 70.1067 18.379 69.9295C18.3884 69.9752 18.4032 70.0196 18.4231 70.0617C18.4444 70.108 18.4715 70.1514 18.5037 70.1909Z" fill="#FFCF6E"/>
<path d="M14.8096 69.3861C14.489 69.6298 14.187 69.8969 13.906 70.1852C14.072 69.9393 14.3582 69.6541 14.7646 69.3297L14.8096 69.3861Z" fill="#FFEC90"/>
<path d="M14.856 69.4417L14.9441 69.554C14.9309 69.5646 14.9172 69.5752 14.9044 69.5862C14.889 69.5386 14.8718 69.4906 14.856 69.4417Z" fill="#FFEC90"/>
<path d="M23.8844 67.5667C22.8231 68.2208 21.7212 68.8067 20.5854 69.3209C19.8802 69.6431 19.1776 69.9379 18.5037 70.1887C18.4714 70.1483 18.4444 70.1038 18.4235 70.0565C18.4036 70.0143 18.3888 69.9699 18.3794 69.9243C19.0538 69.6726 19.7581 69.3795 20.4646 69.056C21.6657 68.5064 22.7953 67.906 23.7297 67.3198C25.402 66.2717 26.0389 65.522 25.9234 65.2694C25.8542 65.1187 25.4311 65.0226 24.4495 65.2051L24.4098 64.9918L24.3966 64.9208C24.9114 64.8252 25.3143 64.7947 25.6096 64.83C25.9146 64.8666 26.105 64.9728 26.1861 65.1491C26.4721 65.7754 25.0921 66.8094 23.8844 67.5667Z" fill="#FFEC90"/>
<path d="M19.4106 70.5837C18.5984 70.9098 17.7697 71.1931 16.9278 71.4326C16.0397 71.6807 14.7003 71.9844 13.8474 71.85C13.4846 71.7922 13.2109 71.656 13.095 71.403C12.7953 70.7494 13.8002 69.7934 14.6994 69.1067L14.7875 69.2222C14.8016 69.2715 14.8162 69.3209 14.8316 69.3698C14.8241 69.3751 14.8166 69.3804 14.81 69.3861L14.7659 69.3297C14.359 69.655 14.0728 69.9402 13.9073 70.1852C13.3969 70.7212 13.2696 71.0905 13.3577 71.2831C13.5168 71.63 14.5262 71.8046 16.8503 71.1544C17.5021 70.9724 18.1981 70.7406 18.9152 70.4664C19.0751 70.525 19.2414 70.5644 19.4106 70.5837Z" fill="#FFCF6E"/>
<path d="M14.7655 69.3297L14.8096 69.3861C14.489 69.6298 14.187 69.8969 13.906 70.1852C14.0729 69.9393 14.3594 69.6541 14.7655 69.3297Z" fill="#FFAA39"/>
<path d="M14.7876 69.2212L14.8757 69.3353L14.8317 69.3688C14.8162 69.3208 14.8017 69.2714 14.7876 69.2212Z" fill="#FFEC90"/>
<path d="M24.575 67.9342C23.5233 68.6319 22.2443 69.3314 20.8762 69.9573C20.3852 70.1821 19.8946 70.3914 19.4106 70.5836C19.2413 70.5644 19.0748 70.525 18.9148 70.4664C19.5182 70.2367 20.137 69.9776 20.7567 69.6946C22.1107 69.0749 23.3757 68.3834 24.415 67.6936C26.4266 66.3598 26.9542 65.4819 26.7951 65.1372C26.7069 64.945 26.3455 64.7996 25.609 64.8344C25.2056 64.8581 24.8045 64.9122 24.4093 64.9961L24.3295 65.0125L24.2709 64.7299C25.3767 64.4999 26.7585 64.3632 27.0573 65.0169C27.4474 65.864 25.6694 67.2083 24.575 67.9342Z" fill="#FFEC90"/>
<path d="M14.1485 72.6803C13.3552 72.6803 12.6826 72.5084 12.4472 71.9936C11.9959 71.0063 13.6055 69.6025 14.6069 68.8533L14.874 68.6531L14.9538 68.9775C15.0055 69.1871 15.0704 69.3932 15.1482 69.5946L15.2055 69.7436L15.0825 69.845C14.7167 70.1469 14.6197 70.3082 14.5941 70.369C14.6585 70.3902 14.8511 70.4232 15.3408 70.3377C16.4458 70.1438 18.3291 69.4756 20.2552 68.5945C22.1813 67.7135 23.9183 66.7253 24.7879 66.0157C25.1727 65.7014 25.2728 65.5344 25.2997 65.4718C25.2366 65.4511 25.0506 65.4189 24.5839 65.4982L24.4265 65.5251L24.3516 65.3845C24.2505 65.1943 24.1375 65.0107 24.0131 64.8349L23.8205 64.5625L24.1462 64.4915C25.3667 64.2249 27.4818 63.9252 27.9332 64.912C28.4326 66.0029 26.4835 67.5724 25.2772 68.4107C24.1286 69.2094 22.7208 69.9975 21.213 70.6872C19.7051 71.377 18.1876 71.9271 16.8323 72.274C16.0777 72.4644 15.0358 72.6803 14.1485 72.6803ZM14.6131 69.4042C13.0643 70.6172 12.679 71.4374 12.8501 71.8098C13.044 72.233 14.1723 72.4961 16.7221 71.8433C18.0523 71.5031 19.5429 70.9618 21.0283 70.2831C22.5136 69.6043 23.8967 68.8286 25.0246 68.0453C27.1843 66.5441 27.7247 65.5172 27.5308 65.0923C27.3606 64.7203 26.4884 64.4752 24.5579 64.8538C24.5949 64.9138 24.6306 64.9737 24.6654 65.035C25.275 64.9499 25.6007 65.0266 25.7157 65.2778C25.8418 65.5533 25.6417 65.8852 25.0669 66.3546C24.1563 67.0977 22.4264 68.0837 20.439 68.993C18.4516 69.9022 16.5736 70.5665 15.4144 70.7697C14.6836 70.8975 14.301 70.8318 14.175 70.5563C14.0604 70.3051 14.2155 70.008 14.6783 69.6025C14.6545 69.5377 14.6334 69.4712 14.6113 69.4042H14.6131Z" fill="#371A45"/>
<g opacity="0.41">
<path d="M24.926 66.2025C24.8264 66.2839 24.7156 66.3689 24.5937 66.4577C24.5434 66.319 24.4872 66.1812 24.4249 66.0443C24.4152 66.0231 24.405 66.0002 24.3953 65.9812C24.3592 65.9037 24.3209 65.8278 24.2812 65.7538C24.1758 65.5556 24.058 65.3642 23.9286 65.1808L23.8819 65.116C23.3746 64.425 22.7072 63.8676 21.937 63.4915C21.1667 63.1155 20.3167 62.9321 19.4599 62.9572C18.6031 62.9822 17.7652 63.215 17.0182 63.6354C16.2713 64.0558 15.6376 64.6513 15.1716 65.3708C15.5832 64.5679 16.1932 63.8836 16.9438 63.383C17.6944 62.8824 18.5606 62.5821 19.46 62.5107C20.3594 62.4393 21.2621 62.5992 22.0823 62.9751C22.9025 63.3511 23.6128 63.9306 24.1459 64.6585C24.1622 64.6801 24.1776 64.7026 24.193 64.7237C24.3227 64.907 24.4405 65.0984 24.5456 65.2967C24.5856 65.3714 24.6236 65.447 24.6598 65.5237C24.6699 65.5449 24.6801 65.5678 24.6893 65.5872C24.781 65.7872 24.86 65.9927 24.926 66.2025Z" fill="#CEB7FF"/>
</g>
<path d="M15.2663 70.7965L15.1874 70.6691C15.0671 70.4739 14.9589 70.2715 14.8634 70.0631C14.8164 69.9599 14.7723 69.8561 14.7312 69.7515C14.2481 68.4981 14.2392 67.1115 14.7062 65.8521C15.1733 64.5927 16.0841 63.5471 17.2676 62.9118C18.4511 62.2765 19.8258 62.0952 21.1335 62.4019C22.4413 62.7086 23.592 63.4822 24.3697 64.5774C24.5047 64.7685 24.6276 64.9678 24.7377 65.1742C24.7901 65.2729 24.8404 65.3739 24.8876 65.477C24.9828 65.6856 25.0652 65.8997 25.1344 66.1183L25.1785 66.2611L25.0621 66.3559C24.1515 67.099 22.4215 68.085 20.4342 68.9942C18.4468 69.9035 16.5687 70.5678 15.4095 70.7709L15.2663 70.7965ZM19.874 62.698C19.0504 62.6966 18.2389 62.8961 17.5099 63.2792C16.7809 63.6624 16.1564 64.2175 15.6905 64.8966C15.2246 65.5757 14.9314 66.3582 14.8364 67.1763C14.7413 67.9943 14.8473 68.8232 15.1451 69.591C15.1821 69.6874 15.2224 69.7831 15.2658 69.878C15.3324 70.0239 15.4064 70.1671 15.4862 70.3059C16.6071 70.0816 18.4102 69.4337 20.2521 68.591C22.094 67.7482 23.7632 66.8077 24.6663 66.1064C24.6134 65.9552 24.5535 65.8054 24.4865 65.6595C24.4433 65.5646 24.3974 65.4719 24.349 65.3814C24.2476 65.1913 24.1344 65.0077 24.01 64.8318C23.5413 64.1714 22.9211 63.6331 22.2015 63.2618C21.4819 62.8906 20.6837 62.6973 19.874 62.698Z" fill="#371A45"/>
</svg>
