<svg width="101" height="125" viewBox="0 0 101 125" fill="none" xmlns="http://www.w3.org/2000/svg">
<path d="M58.6448 53.1397L59.7609 57.1361L60.328 59.1716L70.1233 94.2752C70.1233 94.2752 72.4791 93.4715 75.5508 92.1397C76.1521 91.8791 76.7803 91.5991 77.4241 91.3001C82.2207 89.0772 87.8543 85.8503 89.2261 82.483C91.2757 77.4489 85.1778 58.6417 79.4839 52.3586C76.8752 49.4786 69.2491 50.55 63.982 51.7299C63.3931 51.8628 62.8335 51.9957 62.3147 52.1237C60.1255 52.6669 58.6448 53.1397 58.6448 53.1397Z" fill="white"/>
<g opacity="0.35">
<path d="M59.7607 57.136L60.3279 59.1715L68.1054 87.0443L70.1232 94.2751L70.2654 94.2255L70.3571 94.1932L70.4426 94.1621C70.4656 94.1551 70.4869 94.1462 70.5113 94.1387C70.5201 94.1351 70.5308 94.1325 70.5396 94.1285C70.584 94.1134 70.6283 94.0966 70.6779 94.078C70.6894 94.0751 70.7007 94.0712 70.7115 94.0664C70.7514 94.0518 70.7935 94.0363 70.8392 94.0221C70.9007 94.0004 70.9637 93.9778 71.0301 93.9521C71.0771 93.9335 71.1285 93.9162 71.179 93.8972L71.3381 93.8378C71.4063 93.813 71.4781 93.7851 71.5516 93.759C71.7 93.7022 71.8573 93.6433 72.023 93.5791C72.1697 93.5246 72.3234 93.4648 72.4834 93.4018C72.6681 93.3292 72.8617 93.2547 73.0616 93.175C73.801 92.8808 74.6442 92.5343 75.5507 92.1413C75.7279 92.0651 75.9052 91.9862 76.0873 91.9069C76.2135 91.8516 76.3425 91.7935 76.4714 91.7355C76.7815 91.5963 77.1032 91.451 77.424 91.3017C82.2224 89.0789 87.8542 85.852 89.2242 82.4847C90.9131 78.3394 87.0784 64.8547 82.4896 56.7138C85.447 64.1626 87.3123 72.5879 86.039 75.712C85.4098 77.257 79.8431 74.42 79.1006 71.9632C77.1861 65.6274 73.4838 57.8844 66.0966 55.012C65.9052 54.9358 62.6695 56.494 59.7607 57.136Z" fill="#371A45"/>
</g>
<path d="M69.6112 95.2464L57.7246 52.6434L58.4162 52.4219C58.5886 52.3665 62.7002 51.0604 67.3945 50.2952C73.8921 49.2349 78.1473 49.7586 80.0432 51.8508C85.9838 58.4082 92.0786 77.4764 89.9235 82.767C87.3289 89.1374 71.0569 94.7524 70.3657 94.9881L69.6112 95.2464ZM59.5682 53.6426L70.6311 93.2929C73.8619 92.1117 86.4831 87.2194 88.5283 82.1981C89.3985 80.0612 88.6191 74.5331 86.5425 68.1197C84.4158 61.5437 81.496 55.6975 78.9266 52.8623C75.9545 49.5823 64.5491 52.145 59.5682 53.6434V53.6426Z" fill="#371A45"/>
<path d="M85.755 67.8874L79.1351 70.6314C78.8478 70.7502 78.6081 70.961 78.4535 71.2307C78.2989 71.5005 78.2382 71.8139 78.2809 72.1218C78.6057 74.4422 79.6336 79.7616 82.3186 80.7461C84.5472 81.5636 87.3633 80.4541 88.5769 78.4772C89.934 76.2654 88.4696 71.198 87.6229 68.7297C87.5607 68.5481 87.4619 68.3811 87.3326 68.2391C87.2034 68.0971 87.0463 67.9831 86.8713 67.9042C86.6962 67.8253 86.5069 67.7831 86.3149 67.7802C86.1229 67.7773 85.9323 67.8138 85.755 67.8874Z" fill="white"/>
<g opacity="0.35">
<path d="M78.2817 72.1227C78.6047 74.4422 79.634 79.7621 82.3189 80.7457C84.548 81.5636 87.3637 80.4541 88.5777 78.4763C89.4111 77.1156 89.1785 74.6748 88.6787 72.424C88.7314 73.6136 88.5427 74.6557 88.1364 75.4324C85.8094 79.8826 81.9658 76.8059 81.9658 76.8059C81.9658 76.8059 81.8356 77.9034 81.5002 78.074C80.0974 78.7856 78.8807 74.0611 78.3079 71.6017C78.2655 71.772 78.2567 71.949 78.2817 72.1227Z" fill="#371A45"/>
</g>
<path d="M83.8963 81.7697C83.2701 81.7733 82.6483 81.6664 82.0593 81.4538C79.0939 80.3665 77.9517 75.2066 77.5347 72.2265C77.4689 71.7532 77.5621 71.2714 77.7996 70.8568C78.0371 70.4421 78.4055 70.1181 78.8471 69.9354L85.4665 67.1915C85.7389 67.0783 86.0316 67.0222 86.3265 67.0266C86.6215 67.031 86.9124 67.0958 87.1813 67.2171C87.4502 67.3383 87.6914 67.5134 87.8899 67.7315C88.0885 67.9497 88.2403 68.2062 88.3358 68.4853C89.5223 71.946 90.6397 76.557 89.2188 78.8716C88.1156 80.6691 85.9689 81.7697 83.8963 81.7697ZM86.2946 68.5331C86.2085 68.5333 86.1233 68.5504 86.0438 68.5836L79.424 71.328C79.2905 71.3824 79.1788 71.4796 79.1066 71.6044C79.0344 71.7292 79.0058 71.8745 79.0252 72.0174C79.6455 76.4525 80.9747 79.4511 82.5764 80.0369C84.4151 80.7112 86.8684 79.8153 87.9326 78.0807C88.7744 76.7072 88.3929 73.3014 86.9087 68.9717C86.8649 68.843 86.782 68.7311 86.6716 68.6517C86.5612 68.5723 86.4288 68.5293 86.2928 68.5287L86.2946 68.5331Z" fill="#371A45"/>
<path d="M85.9045 81.2504C85.7718 81.2233 85.6412 81.1867 85.5137 81.1409C85.3998 81.1006 85.2882 81.0576 85.1823 81.008C84.9704 80.9148 84.7652 80.807 84.5682 80.6855C84.1823 80.4513 83.8241 80.1742 83.5004 79.8596C82.8709 79.2506 82.3511 78.5376 81.9639 77.7519C81.775 77.37 81.6092 76.9772 81.4672 76.5756C81.313 76.1768 81.2062 75.7834 81.0892 75.382C80.9723 74.9805 80.8792 74.5756 80.8017 74.1644C80.7645 73.958 80.7299 73.7515 80.7056 73.5415C80.6773 73.3248 80.6656 73.1064 80.6706 72.8879C80.6719 72.8368 80.6929 72.7882 80.7292 72.7522C80.7655 72.7161 80.8143 72.6955 80.8654 72.6946C80.9166 72.6937 80.9661 72.7126 81.0037 72.7473C81.0412 72.782 81.0639 72.8298 81.0671 72.8809V72.9026C81.0837 73.0927 81.1133 73.2814 81.1557 73.4675C81.1969 73.6611 81.2488 73.8538 81.3028 74.0461C81.4136 74.4303 81.5447 74.81 81.6887 75.1852C81.8327 75.5605 81.982 75.9416 82.1588 76.2929C82.324 76.6487 82.5101 76.9945 82.7162 77.3283C83.1162 77.9799 83.6258 78.5575 84.2226 79.0355C84.5094 79.266 84.8216 79.4631 85.153 79.623C85.3125 79.7017 85.4773 79.7691 85.6462 79.8246C85.729 79.8538 85.811 79.876 85.8925 79.8964C85.9596 79.9134 86.0276 79.9262 86.0963 79.9345C86.2708 79.9434 86.4348 80.0202 86.5534 80.1485C86.672 80.2767 86.7358 80.4462 86.7312 80.6208C86.7265 80.7954 86.6538 80.9613 86.5286 81.083C86.4034 81.2048 86.2355 81.2728 86.0609 81.2725C86.0234 81.2714 85.9861 81.2672 85.9492 81.2601L85.9045 81.2504Z" fill="#371A45"/>
<path d="M68.8903 54.8591C69.6905 54.4683 70.4911 54.1033 71.3023 53.7466C72.1136 53.3899 72.9302 53.0492 73.7591 52.7275C74.5881 52.4059 75.4251 52.1006 76.2846 51.837C77.1441 51.5734 78.0183 51.3319 78.9514 51.1888C79.1491 51.1585 79.3508 51.2079 79.512 51.3263C79.6733 51.4446 79.7809 51.6222 79.8112 51.8199C79.8415 52.0176 79.792 52.2193 79.6737 52.3805C79.5553 52.5418 79.3777 52.6494 79.18 52.6797C79.1628 52.6823 79.1459 52.6841 79.1291 52.6859H79.1216C78.3094 52.7524 77.4685 52.9194 76.6346 53.1139C75.8008 53.3084 74.9652 53.5494 74.1348 53.8051C73.3045 54.0607 72.4782 54.3412 71.6563 54.6354C70.8345 54.9296 70.0143 55.2379 69.2102 55.5658H69.2062C69.1131 55.6022 69.0097 55.6014 68.9172 55.5635C68.8248 55.5256 68.7505 55.4535 68.7098 55.3623C68.669 55.2711 68.665 55.1677 68.6986 55.0735C68.7321 54.9794 68.8006 54.9018 68.8898 54.8569L68.8903 54.8591Z" fill="#371A45"/>
<path d="M30.9393 57.2145C31.7727 59.0904 32.9672 60.9495 33.3469 61.9389L31.3899 65.3882L29.1715 69.2951C28.0544 69.4239 26.9799 69.5196 25.9482 69.5822C7.47234 70.724 2.04257 61.8002 1.43557 57.5308C0.233531 49.0811 5.04965 43.7205 7.27517 41.5393C7.63803 41.1874 8.0193 40.8551 8.4174 40.5437C15.7652 34.7546 34.9965 29.3368 40.5569 37.0515C43.6899 41.3935 41.5277 48.833 31.794 51.7697C29.4081 52.4888 29.8923 54.8631 30.9393 57.2145Z" fill="white"/>
<g opacity="0.35">
<path d="M32.2229 59.747C32.7103 60.6385 33.1453 61.4125 33.3469 61.9389L29.1715 69.2938C8.09663 71.735 2.07625 62.0377 1.43558 57.5308C1.24496 56.2186 1.19816 54.8895 1.29602 53.5671C1.32038 53.8228 1.7732 57.179 1.83567 57.4373C3.01024 62.2907 14.1928 68.354 17.4143 66.7306C18.2065 66.3319 18.8091 65.8534 19.1755 65.7284C19.8432 65.5011 20.1826 66.4555 21.2189 66.3903C22.168 66.331 22.2641 64.7315 22.9952 64.9358C23.5827 65.0997 24.3044 66.5308 25.1662 66.4816L32.2229 59.747Z" fill="#371A45"/>
</g>
<path d="M22.7467 70.4409C16.3989 70.4409 11.199 69.1741 7.23583 66.6549C2.96778 63.942 1.05595 60.2185 0.688646 57.638C-0.197486 51.4116 1.84062 45.8148 6.74801 41.0023C11.3674 36.4715 23.6687 31.7958 32.6058 32.5588C36.5934 32.899 39.4733 34.2628 41.1676 36.611C42.6948 38.7293 43.0595 41.4524 42.1689 44.0829C40.8871 47.8662 37.1844 50.9309 32.0094 52.4914C26.456 54.1662 19.9828 56.9517 19.2088 58.5317C19.1729 58.6053 19.1645 58.6562 19.1694 58.6726C19.2049 58.765 19.2218 58.8634 19.2192 58.9623C19.2167 59.0613 19.1947 59.1587 19.1545 59.2491C19.1142 59.3395 19.0566 59.4211 18.9849 59.4893C18.9131 59.5574 18.8286 59.6107 18.7363 59.6462C18.6439 59.6817 18.5454 59.6987 18.4465 59.6961C18.3476 59.6936 18.2502 59.6716 18.1597 59.6313C18.0693 59.5911 17.9877 59.5335 17.9196 59.4617C17.8515 59.39 17.7981 59.3055 17.7626 59.2131C17.6492 58.9181 17.5734 58.4449 17.8557 57.8684C19.3803 54.7568 31.0772 51.1985 31.5743 51.0488C36.277 49.631 39.6182 46.9154 40.7413 43.5995C41.4742 41.4365 41.1844 39.2105 39.9438 37.4927C38.5194 35.5167 36.0067 34.3616 32.4759 34.0603C24.0701 33.3421 12.1029 37.8596 7.80206 42.0798C3.25798 46.5366 1.36609 51.7001 2.18089 57.4245C2.86986 62.269 9.37982 70.8277 29.0856 68.5454C29.1839 68.5341 29.2835 68.5422 29.3787 68.5693C29.4738 68.5964 29.5627 68.642 29.6403 68.7034C29.7178 68.7649 29.7825 68.841 29.8307 68.9275C29.8788 69.014 29.9094 69.1091 29.9208 69.2074C29.9322 69.3057 29.9241 69.4053 29.897 69.5004C29.8698 69.5956 29.8243 69.6845 29.7628 69.7621C29.7013 69.8396 29.6252 69.9043 29.5387 69.9524C29.4523 70.0006 29.3572 70.0312 29.2589 70.0426C27.0976 70.3001 24.9232 70.4331 22.7467 70.4409Z" fill="#371A45"/>
<path d="M99.7777 34.837C99.5202 36.199 98.9726 37.6762 98.1148 39.2234C91.8463 50.5282 69.8526 59.5012 69.8526 59.5012C69.8526 59.5012 71.1011 63.4188 73.8043 70.3869C73.8672 70.5499 73.9314 70.713 73.9961 70.8795C74.8308 73.0191 75.7981 75.4338 76.9026 78.0989C78.1959 81.2189 79.6793 84.685 81.363 88.4555C85.405 97.5198 88.884 109.473 88.884 109.473C88.884 109.473 98.5428 112.755 98.4042 118.721C98.3968 119.05 98.3605 119.377 98.2956 119.699C97.1605 125.435 75.0347 124.234 73.1782 121.518C70.9558 118.265 70.0599 115.45 67.8681 110.504C66.2447 106.842 64.5269 103.061 60.7471 99.9934C56.4729 96.8516 49.4454 96.8162 44.9031 97.2353C38.3727 97.8392 37.2943 101.875 36.4733 104.799C35.1034 109.666 35.9248 119.693 31.2784 122.553C28.7383 124.117 7.80608 126.537 6.5881 119.352C6.34131 117.89 6.60095 116.669 7.14414 115.655C8.92926 112.318 13.7839 111.22 13.7839 111.22C13.7839 111.22 13.2966 103.354 13.7773 99.0271C14.9585 88.3337 28.2571 83.4312 28.2571 83.4312C28.2571 83.4312 28.2128 82.3953 27.7086 79.0448C27.0883 74.9052 26.4357 71.7121 25.9492 69.5823C25.4835 67.5508 25.1667 66.4808 25.1667 66.4808L23.9377 62.8813L23.2438 60.8472L30.9403 57.2141L60.0608 43.4613C61.0072 42.8734 62.0581 42.1764 63.1906 41.4104C71.8091 35.5619 85.1911 25.5291 94.0222 26.7781C98.5216 27.4153 100.586 30.5677 99.7777 34.837Z" fill="white"/>
<g opacity="0.35">
<path d="M99.7776 34.837C99.5202 36.199 98.9726 37.6762 98.1148 39.2234C91.8463 50.5282 69.8525 59.5012 69.8525 59.5012C69.8525 59.5012 71.1011 63.4188 73.8042 70.3869L72.3962 71.0311C70.7723 66.0107 65.359 68.7426 65.0005 66.713C64.8198 65.689 68.0178 64.6881 67.0089 62.7564C66.0001 60.8246 61.094 62.0306 61.1773 60.4715C61.2429 59.2752 63.9004 59.4604 65.7303 58.9766C67.5601 58.4928 64.7458 55.8822 64.5508 55.0293C64.2438 53.6961 67.1933 54.845 70.7316 54.5756C85.2482 53.4755 95.9673 40.2513 99.7776 34.837Z" fill="#371A45"/>
</g>
<g opacity="0.35">
<path d="M98.4042 118.72C98.3968 119.048 98.3605 119.375 98.2956 119.697C97.1605 125.433 75.0347 124.233 73.1782 121.516C70.9558 118.264 70.0599 115.449 67.8681 110.503C66.2447 106.841 64.5269 103.059 60.7471 99.9921C56.4729 96.8503 49.4454 96.8148 44.9031 97.234C38.3727 97.8379 37.2943 101.874 36.4733 104.798C35.1034 109.665 35.9248 119.691 31.2784 122.552C28.7383 124.116 7.80608 126.536 6.5881 119.351C6.34131 117.889 6.60095 116.668 7.14414 115.654C7.37631 117.022 8.4379 118.526 11.5039 119.499C18.3945 121.686 30.0001 122.093 31.5619 117.088C33.1237 112.082 32.102 107.487 32.1596 103.215C32.2039 99.8197 31.7932 95.4094 33.9895 94.0678C35.1415 93.3634 36.5548 94.954 38.3488 94.7298C40.1428 94.5056 40.1654 90.4196 41.4308 90.362C42.9917 90.2889 42.7524 93.0377 46.0174 94.1347C48.9651 95.125 56.5247 94.9646 59.2057 92.3124C61.7657 89.7798 60.9221 94.2832 61.5982 95.5867C62.9 98.1002 68.0723 93.9207 68.8096 95.8303C69.1481 96.7089 67.8791 99.9469 68.4932 103.738C69.258 108.479 72.207 116.587 78.0719 119.609C82.2367 121.758 94.0014 122.223 98.4042 118.72Z" fill="#371A45"/>
</g>
<path d="M19.2225 125C15.5894 125 11.9266 124.581 9.36298 123.419C7.31381 122.489 6.1286 121.164 5.84371 119.476C4.96954 114.316 9.8313 111.55 12.9952 110.644C12.8911 108.683 12.62 102.622 13.0267 98.9425C14.1224 89.0342 24.876 84.0067 27.4582 82.9367C27.3984 82.3346 27.2628 81.1644 26.9616 79.1565C25.7715 71.2207 24.4556 66.7426 24.4423 66.6979C24.3854 66.5063 24.407 66.3 24.5022 66.1243C24.5975 65.9486 24.7587 65.8179 24.9503 65.761C25.1419 65.7042 25.3482 65.7257 25.5239 65.821C25.6996 65.9163 25.8302 66.0774 25.8871 66.269C25.9421 66.4533 27.2442 70.8804 28.452 78.9327C28.9545 82.2832 29.0067 83.3532 29.0085 83.397L29.0333 83.9473L28.5167 84.1383C28.3882 84.1857 15.6412 89.012 14.5247 99.1082C14.059 103.317 14.53 111.094 14.5349 111.172L14.5739 111.812L13.9487 111.954C13.6408 112.024 6.40109 113.743 7.32976 119.224C7.52692 120.388 8.42014 121.337 9.98505 122.047C16.102 124.818 29.2761 122.899 30.8822 121.911C33.7945 120.117 34.3616 114.888 34.8623 110.274C35.0931 108.147 35.3107 106.142 35.7484 104.593L35.7693 104.518C36.596 101.577 37.845 97.1308 44.8357 96.4843C48.954 96.1037 56.5557 95.9739 61.1955 99.3855L61.2234 99.4077C65.207 102.638 66.9872 106.654 68.5583 110.197C69.1268 111.479 69.6155 112.637 70.047 113.657C71.2943 116.608 72.1955 118.74 73.8007 121.091C74.72 122.436 85.0763 123.927 92.5464 122.4C95.5357 121.788 97.3155 120.777 97.5583 119.552C98.7183 113.692 88.7413 110.219 88.6425 110.185L88.2717 110.059L88.1618 109.682C88.1272 109.563 84.6505 97.6748 80.674 88.7617C72.7475 70.9925 69.1706 59.8392 69.1352 59.7285L68.9243 59.0639L69.5685 58.8007C69.7861 58.7121 91.3886 49.7972 97.4551 38.8548C99.2717 35.5787 99.6886 32.6027 98.6292 30.4755C97.8281 28.8667 96.199 27.8459 93.9172 27.5234C86.2615 26.4418 74.7502 34.3705 66.3443 40.1605C64.1839 41.6487 62.1432 43.0541 60.4591 44.1007C60.2894 44.2061 60.0847 44.2398 59.8901 44.1944C59.6955 44.1489 59.5269 44.028 59.4214 43.8583C59.316 43.6886 59.2823 43.4839 59.3277 43.2893C59.3732 43.0947 59.494 42.9261 59.6638 42.8206C61.3177 41.7927 63.3443 40.3971 65.4897 38.9194C74.0998 32.989 85.8924 24.8658 94.1281 26.0311C96.923 26.4263 98.946 27.7307 99.9766 29.8034C101.261 32.3882 100.836 35.8623 98.7714 39.5858C92.9819 50.0275 74.5574 58.3129 70.7852 59.9225C71.662 62.545 75.2429 72.888 82.0484 88.1458C85.6695 96.2632 88.8738 106.799 89.4967 108.89C91.4759 109.634 100.319 113.347 99.0333 119.842C98.6549 121.755 96.5729 123.111 92.8459 123.874C86.2743 125.22 74.2451 124.416 72.5535 121.939C70.8618 119.462 69.9372 117.273 68.6545 114.242C68.2256 113.226 67.7391 112.076 67.176 110.806C65.6757 107.422 63.9757 103.588 60.2841 100.587C56.0439 97.4812 48.8716 97.6221 44.97 97.9828C39.0112 98.5339 38.0138 102.077 37.2163 104.924L37.195 104.999C36.7936 106.427 36.5823 108.373 36.359 110.434C35.8207 115.392 35.211 121.012 31.6705 123.191C30.3585 124.003 24.826 125 19.2225 125Z" fill="#371A45"/>
<g opacity="0.35">
<path d="M63.1897 40.7462C61.9664 51.114 55.378 59.413 46.5889 63.1029C46.1042 63.3058 45.6121 63.4956 45.1126 63.6722C42.567 64.5645 39.9003 65.0638 37.2043 65.153C35.7362 65.2042 34.2664 65.1352 32.8096 64.9465C32.332 64.8818 31.8583 64.8091 31.3918 64.725C31.3785 64.725 31.367 64.7196 31.3537 64.7179C28.7752 64.2445 26.278 63.4034 23.9385 62.2203C21.1454 60.8057 18.6074 58.9356 16.429 56.6869C11.9912 52.1119 9.17683 46.2075 8.41748 39.8792C15.7653 34.0901 34.9965 28.6723 40.557 36.3869C43.6899 40.729 41.5278 48.1685 31.7941 51.1051C29.4095 51.8233 29.8938 54.1977 30.9407 56.5491L60.0612 42.7963C61.0063 42.2092 62.0572 41.5141 63.1897 40.7462Z" fill="#371A45"/>
</g>
<path d="M13.5601 52.2628C17.1881 55.9128 21.6945 58.5677 26.6456 59.9721C27.6864 60.2674 28.7423 60.507 29.8086 60.6899C30.3323 60.7812 30.8644 60.8565 31.4036 60.9225C34.3416 61.2677 37.3143 61.1816 40.2273 60.6668C41.8042 60.3873 43.3561 59.9813 44.868 59.4528C45.4147 59.2603 45.9545 59.0535 46.4874 58.8326C56.2348 54.7758 63.5671 45.7178 64.8857 34.483C66.8316 17.9363 54.9938 2.94691 38.4493 1.00052C35.3474 0.633036 32.2072 0.750374 29.1414 1.34832C28.7913 1.4139 28.4417 1.48966 28.0944 1.57252C27.1639 1.78785 26.2498 2.04601 25.3518 2.347C21.2285 3.73472 17.4522 5.9935 14.2792 8.96994C13.7785 9.43959 13.2935 9.92696 12.8241 10.4321C8.46496 15.1232 5.71303 21.0807 4.96725 27.4409C3.84541 36.9593 7.28714 45.9606 13.5601 52.2628Z" fill="white"/>
<path d="M34.9464 61.2114C33.7586 61.2112 32.5718 61.1417 31.3921 61.0031C30.8015 60.9305 30.2791 60.8538 29.7971 60.7696C28.728 60.5861 27.6693 60.3461 26.6256 60.0505C21.6634 58.6372 17.1464 55.9753 13.506 52.319C6.94418 45.7262 3.80285 36.6553 4.88791 27.4316C5.63512 21.0546 8.39372 15.0813 12.7638 10.3775C13.2246 9.88132 13.7156 9.38907 14.2224 8.91543C17.404 5.9313 21.1903 3.66651 25.3243 2.27476C26.2202 1.97481 27.1453 1.7134 28.0744 1.49851C28.4444 1.4099 28.7878 1.33635 29.1245 1.27388C32.1983 0.673285 35.347 0.554898 38.4572 0.922971C55.0208 2.87246 66.9113 17.9318 64.9636 34.4941C63.6894 45.3492 56.6211 54.7032 46.517 58.907C45.9854 59.1285 45.4382 59.3363 44.8932 59.5273C42.0959 60.5038 39.1695 61.0616 36.2091 61.1826C35.7879 61.2018 35.367 61.2114 34.9464 61.2114ZM13.6167 52.2065C17.2378 55.8437 21.7311 58.4915 26.6672 59.8968C27.7054 60.1911 28.7584 60.4301 29.8219 60.6128C30.3039 60.6965 30.8236 60.7723 31.4112 60.8445C35.9405 61.3825 40.5329 60.8813 44.8396 59.3788C45.3815 59.1879 45.9251 58.9801 46.455 58.7585C56.506 54.5764 63.537 45.2712 64.8041 34.4737C66.7416 17.9987 54.9136 3.01823 38.4377 1.07981C35.3434 0.713437 32.211 0.831076 29.1528 1.42851C28.8183 1.49098 28.4772 1.56364 28.1094 1.65004C27.1847 1.86404 26.2649 2.12412 25.3735 2.42275C21.2613 3.80716 17.495 6.05984 14.3301 9.02797C13.8259 9.50116 13.3376 9.99075 12.879 10.4843C8.53153 15.1632 5.78692 21.105 5.04299 27.4484C3.96324 36.6234 7.08817 45.6469 13.6154 52.2047L13.6167 52.2065Z" fill="#371A45"/>
<g opacity="0.35">
<path d="M64.8832 34.4843C63.5659 45.7178 56.2336 54.7767 46.4849 58.8339C45.9532 59.0551 45.4137 59.2619 44.8663 59.4542C40.5471 60.9572 35.943 61.4601 31.4011 60.9252C30.8646 60.8574 30.3329 60.7829 29.8088 60.693C28.7424 60.5087 27.6865 60.2685 26.6453 59.9735C21.694 58.5694 17.1876 55.9144 13.5598 52.2641C11.6027 50.2984 9.92421 48.0738 8.57129 45.6522C12.9118 49.8121 18.398 52.5776 24.3236 53.5929C24.846 53.6841 25.3777 53.7581 25.916 53.825C30.4572 54.3649 35.0617 53.8623 39.3794 52.3554C39.927 52.1619 40.467 51.9551 40.9993 51.7351C50.7467 47.6797 58.079 38.6204 59.398 27.3855C60.1484 21.0864 58.8839 14.7114 55.7861 9.17554C62.3781 15.4932 66.0325 24.7178 64.8832 34.4843Z" fill="#371A45"/>
</g>
<path d="M34.9464 61.7457C33.7377 61.7455 32.5301 61.6747 31.3297 61.5335C30.7271 61.4595 30.1963 61.382 29.7032 61.296C28.616 61.1093 27.5394 60.8651 26.4781 60.5645C21.4276 59.1264 16.8302 56.4173 13.125 52.6961C6.44753 45.9872 3.25081 36.7559 4.35538 27.3696C5.11657 20.8805 7.92453 14.8025 12.3722 10.0165C12.8414 9.51137 13.3412 9.00982 13.8574 8.526C17.095 5.48912 20.9483 3.18455 25.1555 1.7688C26.0674 1.46308 27.0093 1.19725 27.9544 0.978373C28.3301 0.889759 28.6819 0.813109 29.0275 0.748865C32.1539 0.139136 35.3561 0.0195552 38.5193 0.394412C55.3757 2.37757 67.4763 17.7037 65.494 34.5583C64.1976 45.6044 57.0044 55.1241 46.7222 59.4028C46.1799 59.627 45.6247 59.8396 45.0709 60.035C42.2228 61.0287 39.2435 61.596 36.2295 61.7187C35.8033 61.7364 35.3756 61.7454 34.9464 61.7457ZM13.9952 51.8299C17.5518 55.402 21.9649 58.0025 26.813 59.3828C27.8336 59.6721 28.8689 59.9069 29.9145 60.086C30.389 60.1688 30.8999 60.2433 31.4785 60.3146C34.3553 60.6523 37.266 60.5678 40.1183 60.0638C41.6628 59.7895 43.1828 59.3918 44.6637 58.8746C45.1954 58.6872 45.7302 58.4825 46.2512 58.2668C56.1227 54.1591 63.0292 45.0191 64.2743 34.4134C66.1794 18.2309 54.5592 3.51625 38.3757 1.61196C35.337 1.25144 32.2607 1.36639 29.2574 1.95267C28.9265 2.01426 28.5928 2.08559 28.2348 2.1711C27.3235 2.38245 26.4183 2.63765 25.5446 2.93096C21.5054 4.29103 17.8059 6.5038 14.697 9.41922C14.2016 9.88399 13.7222 10.3652 13.2721 10.8499C9.00098 15.4452 6.30484 21.2816 5.57469 27.5127C4.51444 36.5251 7.58355 45.3882 13.9952 51.8299Z" fill="#371A45"/>
<path d="M34.9464 61.9239C33.7307 61.9237 32.5162 61.8523 31.3088 61.7103C30.7023 61.6359 30.1688 61.5579 29.673 61.4715C28.5795 61.2837 27.4968 61.038 26.4293 60.7355C21.3495 59.289 16.7254 56.5643 12.9987 52.8215C6.28271 46.0741 3.06782 36.7896 4.17859 27.3488C4.9436 20.8209 7.76806 14.7064 12.2424 9.89199C12.7147 9.38335 13.2171 8.87914 13.7364 8.39266C16.9925 5.33929 20.8673 3.02208 25.0979 1.59825C26.0155 1.29076 26.9628 1.02226 27.9136 0.800727C28.2907 0.712114 28.6456 0.63502 28.9938 0.569889C32.1378 -0.0427455 35.358 -0.162327 38.5388 0.215436C55.4931 2.20923 67.6637 17.6253 65.6699 34.5774C64.366 45.6873 57.1311 55.2619 46.7895 59.5663C46.2441 59.7918 45.6859 60.0058 45.1294 60.2021C42.2646 61.2025 39.2676 61.7737 36.2357 61.8973C35.8077 61.9147 35.3779 61.9236 34.9464 61.9239ZM14.1223 51.7041C17.6573 55.2546 22.0436 57.8395 26.8622 59.2118C27.8762 59.4989 28.9047 59.7322 29.9433 59.9106C30.4152 59.9925 30.9234 60.067 31.4989 60.1378C33.0493 60.3204 34.6117 60.3797 36.1715 60.3151C39.0468 60.1983 41.889 59.6566 44.6057 58.7076C45.1338 58.5215 45.6655 58.3182 46.1834 58.1037C55.9956 54.0209 62.8604 44.9354 64.0979 34.394C65.9893 18.3107 54.4391 3.68287 38.3558 1.79009C35.3355 1.43223 32.278 1.54643 29.2929 2.12859C28.9637 2.19018 28.634 2.26151 28.2774 2.3457C27.3704 2.55615 26.4723 2.80959 25.6026 3.09891C21.5876 4.45046 17.9104 6.64998 14.8206 9.54817C14.3275 10.0103 13.8512 10.4884 13.4028 10.97C9.15751 15.5377 6.47781 21.3391 5.75236 27.5326C4.6983 36.4906 7.74881 45.2996 14.1219 51.7032L14.1223 51.7041Z" fill="#371A45"/>
<path d="M19.6715 56.9974C40.115 63.8454 60.6852 48.6022 55.8748 27.7994C52.6019 13.6448 36.216 5.92079 22.8221 9.93497C13.0747 12.8561 4.83364 19.9726 5.2324 36.3417C5.2324 36.3417 6.52748 43.5606 9.79597 47.6576C13.0645 51.7546 16.9338 55.1897 16.9338 55.1897L19.6715 56.9974Z" fill="#371A45"/>
<path d="M55.8734 27.7977C60.6842 48.6023 40.1136 63.845 19.671 56.9983L19.1167 56.6302C38.7503 54.4591 54.0449 37.814 49.5726 16.6882C52.6058 19.6754 54.8628 23.4299 55.8734 27.7977Z" fill="#220F2D"/>
<path d="M34.9464 61.9239C33.7308 61.9237 32.5162 61.8524 31.3088 61.7104C30.7023 61.6359 30.1688 61.5579 29.673 61.4715C28.5796 61.2838 27.4968 61.0381 26.4293 60.7356C21.3495 59.2891 16.7254 56.5643 12.9987 52.8216C6.28271 46.0741 3.06782 36.7897 4.17859 27.3484C4.81549 21.8976 6.89309 16.7148 10.1976 12.3333L10.2473 12.2678L10.3093 12.2137C13.3164 9.59431 17.1112 7.58589 21.5893 6.24385C29.5645 3.85129 38.8347 5.04403 46.3846 9.42905C53.3226 13.4609 58.0656 19.6639 59.739 26.9049C61.5556 34.7724 60.3438 42.3107 56.2295 48.7037C51.9287 55.3883 44.6872 60.1906 36.3615 61.8801L36.2375 61.8951C35.809 61.9146 35.3779 61.9239 34.9464 61.9239ZM14.1223 51.7042C17.6573 55.2547 22.0436 57.8395 26.8622 59.2119C27.8762 59.499 28.9047 59.7322 29.9433 59.9106C30.4152 59.9926 30.9234 60.067 31.4989 60.1379C33.0279 60.3171 34.5686 60.3763 36.1068 60.3151C43.9903 58.6993 50.8356 54.1565 54.8959 47.8468C58.7736 41.8211 59.914 34.7015 58.1941 27.2602C56.6229 20.4534 52.1444 14.6067 45.5906 10.799C38.4129 6.62931 29.611 5.49418 22.0457 7.76135C17.8161 9.02896 14.2397 10.9102 11.4121 13.3542C8.30614 17.4972 6.35332 22.3892 5.75236 27.5323C4.6983 36.4902 7.74881 45.2992 14.1219 51.7028L14.1223 51.7042Z" fill="#371A45"/>
<path d="M29.7094 59.4427C26.2104 59.4371 22.7354 58.8649 19.4192 57.7484L19.3204 57.7152L16.409 55.7772C16.2491 55.6355 12.4507 52.2518 9.17776 48.1485C5.82331 43.9434 4.50828 36.7817 4.45379 36.4791L4.44183 36.3581C4.09358 22.0347 10.2017 12.8885 22.5947 9.17426C29.7138 7.04046 37.9859 8.10248 44.7231 12.0152C50.9168 15.6129 55.1511 21.1543 56.6456 27.6191C58.8038 36.9527 56.0971 45.8885 49.2198 52.1352C43.954 56.9186 36.9815 59.4427 29.7094 59.4427ZM20.0209 56.2792C30.094 59.6173 40.8654 57.5841 48.1556 50.9624C54.596 45.114 57.1281 36.7338 55.1028 27.9753C53.7076 21.9416 49.7391 16.76 43.9278 13.3847C37.5623 9.68778 29.7573 8.68068 23.0497 10.6909C11.4414 14.1694 5.7152 22.7711 6.02446 36.2558C6.15427 36.9354 7.46353 43.4587 10.4166 47.1605C13.4254 50.9328 17.0018 54.18 17.4205 54.5561L20.0209 56.2792Z" fill="#371A45"/>
<path d="M68.4768 31.7878C67.7373 33.693 66.4635 35.1768 64.7493 35.8906C60.7435 37.5574 55.8525 34.374 53.8242 28.7812C53.6571 28.3204 53.514 27.857 53.3962 27.3953C52.0754 22.2442 53.7293 17.1605 57.4046 15.6314C61.4103 13.9642 66.3031 17.1458 68.3315 22.7404C69.4923 25.9416 69.4639 29.2393 68.4768 31.7878Z" fill="white"/>
<g opacity="0.35">
<path d="M68.4769 31.7879C67.7374 33.6931 66.4636 35.1769 64.7494 35.8907C60.7436 37.5575 55.8526 34.3741 53.8242 28.7812C53.6572 28.3205 53.5141 27.857 53.3962 27.3953C54.3488 28.2234 56.3293 29.3448 58.1565 26.561L62.7644 26.4259C62.7644 26.4259 66.3125 28.4605 68.4769 31.7879Z" fill="#371A45"/>
</g>
<path d="M62.5195 37.1286C61.5133 37.1286 60.4814 36.903 59.4588 36.4529C56.6648 35.2243 54.3396 32.5264 53.0786 29.0501C50.9116 23.0732 52.7153 16.7254 57.0994 14.9004C58.8513 14.1711 60.7862 14.2292 62.6954 15.0688C65.4893 16.2969 67.8145 18.9952 69.0755 22.4711C71.2425 28.4485 69.4388 34.7963 65.0547 36.6213C64.2517 36.957 63.3898 37.1295 62.5195 37.1286ZM59.636 15.9797C58.975 15.9783 58.3203 16.1085 57.71 16.3625C54.0955 17.8689 52.6865 23.3187 54.5695 28.5105C55.667 31.5362 57.7335 33.9633 60.0977 35.0032C61.601 35.6638 63.1048 35.7174 64.4472 35.1591C68.0618 33.6527 69.4707 28.203 67.5877 23.0112C66.4893 19.9855 64.4211 17.5584 62.0582 16.5185C61.2421 16.1596 60.4255 15.9797 59.636 15.9797Z" fill="#371A45"/>
<path d="M65.9676 34.0252C69.3756 33.1146 71.1488 28.6731 69.9281 24.1048C68.7075 19.5365 64.9552 16.5714 61.5472 17.482C58.1392 18.3927 56.366 22.8342 57.5866 27.4025C58.8073 31.9708 62.5596 34.9359 65.9676 34.0252Z" fill="white"/>
<path d="M64.7387 34.2636C64.4974 34.2635 64.2564 34.2469 64.0174 34.214C60.3679 33.716 57.277 29.5175 57.1273 24.8543C57.0435 22.2428 57.8871 19.9411 59.4427 18.5388C60.5876 17.5069 61.9913 17.0696 63.5008 17.2761C67.1503 17.7741 70.2411 21.9726 70.3909 26.6358C70.4746 29.2468 69.631 31.549 68.0754 32.9508C67.1153 33.8166 65.9718 34.2636 64.7387 34.2636ZM62.7817 17.3921C61.5881 17.3921 60.4831 17.8241 59.5539 18.662C58.0351 20.0315 57.211 22.2863 57.2943 24.8489C57.4419 29.4347 60.4684 33.5623 64.0413 34.0496C65.5034 34.2481 66.8588 33.8281 67.9664 32.8281C69.4853 31.4586 70.3094 29.2034 70.2261 26.6411C70.0785 22.055 67.0519 17.9274 63.4791 17.44C63.2479 17.4084 63.015 17.3924 62.7817 17.3921Z" fill="#371A45"/>
<g opacity="0.35">
<path d="M59.3231 31.2109C58.4148 29.8671 57.8725 28.269 57.6904 26.6496C60.0192 29.5401 63.5097 29.798 65.7418 27.1276C67.1844 25.4023 67.7684 22.8499 67.4853 20.3439C67.6333 20.5255 67.7759 20.7209 67.9137 20.9243C70.2248 24.3483 70.1734 29.4267 67.8021 32.2668C65.4308 35.1068 61.6328 34.6332 59.3231 31.2109Z" fill="#371A45"/>
</g>
<path d="M65.0855 34.9101C64.3376 34.9101 63.568 34.7422 62.8015 34.4068C60.5454 33.4205 58.5667 31.0683 57.5091 28.1152C55.7067 23.0833 56.9952 17.9925 60.4422 16.5255C61.7422 15.9721 63.1892 16.0125 64.6278 16.6416C66.8839 17.6279 68.8622 19.9801 69.9203 22.9332C71.7222 27.965 70.4342 33.0559 66.9872 34.5229C66.386 34.7793 65.7391 34.911 65.0855 34.9101ZM62.343 17.7258C61.9029 17.7242 61.4672 17.812 61.0621 17.9837C58.4307 19.1037 57.5056 23.4094 59 27.5822C59.9132 30.1325 61.5698 32.1418 63.4356 32.9571C64.4648 33.4068 65.4781 33.4444 66.3664 33.0669C68.9978 31.9464 69.9229 27.6407 68.4285 23.4684C67.5149 20.9181 65.8587 18.9088 63.9929 18.0935C63.4325 17.8472 62.8764 17.7258 62.343 17.7258Z" fill="#371A45"/>
<g opacity="0.5">
<path d="M31.7457 13.6085C31.7457 13.6085 19.4568 18.1623 14.7275 27.4397C14.7222 27.4494 14.7174 27.4592 14.7125 27.4689C13.7214 29.4247 13.269 31.6091 13.4019 33.7977C13.5738 36.6913 14.1166 38.6599 14.6606 40.3745C16.3186 45.5885 18.0722 47.7214 18.0722 47.7214C14.2309 45.9098 11.5654 43.3134 10.1414 38.9842C10.0023 38.5571 9.87435 38.1122 9.75768 37.6497C9.73021 37.5433 9.70584 37.4374 9.68236 37.3307C9.68236 37.3307 9.68236 37.3276 9.68236 37.324C9.4666 36.1181 9.32338 34.9003 9.25347 33.6772C9.00579 29.3449 9.619 23.398 13.8729 19.3737C21.8246 11.8522 32.0018 12.9275 31.7457 13.6085Z" fill="white"/>
</g>
<g opacity="0.5">
<path d="M47.7258 27.2616C49.6017 26.0614 49.9887 23.3164 48.5902 21.1305C47.1917 18.9445 44.5373 18.1454 42.6613 19.3456C40.7854 20.5457 40.3984 23.2907 41.7969 25.4767C43.1954 27.6626 45.8498 28.4617 47.7258 27.2616Z" fill="white"/>
</g>
<g opacity="0.5">
<path d="M50.974 32.0212C51.7039 31.4619 51.7673 30.319 51.1156 29.4684C50.4639 28.6179 49.3438 28.3818 48.6139 28.941C47.884 29.5003 47.8206 30.6433 48.4723 31.4938C49.124 32.3444 50.244 32.5805 50.974 32.0212Z" fill="white"/>
</g>
<path d="M28.2109 81.6336C30.4161 81.6336 32.2038 79.846 32.2038 77.6407C32.2038 75.4355 30.4161 73.6478 28.2109 73.6478C26.0057 73.6478 24.218 75.4355 24.218 77.6407C24.218 79.846 26.0057 81.6336 28.2109 81.6336Z" fill="white"/>
<g opacity="0.35">
<path d="M24.3019 78.4502C24.4007 78.9709 24.6022 79.4667 24.8946 79.9088C25.187 80.3509 25.5645 80.7303 26.005 81.025C26.4456 81.3196 26.9404 81.5237 27.4606 81.6252C27.9808 81.7267 28.516 81.7236 29.0351 81.6161C29.5541 81.5086 30.0465 81.2989 30.4836 80.9991C30.9207 80.6994 31.2938 80.3156 31.5811 79.8702C31.8684 79.4248 32.0641 78.9267 32.1569 78.4048C32.2497 77.883 32.2377 77.3479 32.1216 76.8308C32.0033 76.2517 31.7565 75.7066 31.3994 75.2357C31.2211 75.9706 30.838 76.6398 30.2944 77.1655C29.7508 77.6911 29.0691 78.0517 28.3287 78.2051C27.5882 78.3586 26.8194 78.2987 26.1117 78.0325C25.4039 77.7662 24.7863 77.3044 24.3307 76.7009C24.1902 77.2745 24.1804 77.8723 24.3019 78.4502Z" fill="#371A45"/>
</g>
<path d="M28.2101 82.3877C27.119 82.386 26.0617 82.009 25.2156 81.3201C24.3694 80.6311 23.786 79.6721 23.5633 78.6039C23.365 77.6448 23.4685 76.6478 23.8596 75.7498C24.2506 74.8519 24.91 74.0969 25.7472 73.5887C26.5844 73.0804 27.5584 72.8437 28.5355 72.9112C29.5126 72.9786 30.4449 73.3468 31.2044 73.9652C31.9639 74.5836 32.5133 75.4219 32.7773 76.3651C33.0413 77.3083 33.0069 78.31 32.6788 79.2329C32.3508 80.1557 31.7451 80.9544 30.945 81.5192C30.1449 82.0841 29.1896 82.3875 28.2101 82.3877ZM25.0387 78.2982C25.1909 79.0322 25.593 79.6906 26.1763 80.1614C26.7596 80.6322 27.488 80.8862 28.2376 80.8801C28.9872 80.874 29.7114 80.6082 30.287 80.128C30.8626 79.6478 31.2538 78.9829 31.3941 78.2465C31.5344 77.5102 31.4151 76.748 31.0565 76.0898C30.6978 75.4316 30.122 74.9181 29.4272 74.6368C28.7325 74.3554 27.9616 74.3237 27.2461 74.547C26.5305 74.7703 25.9145 75.2348 25.503 75.8614C25.0314 76.58 24.8644 77.4565 25.0387 78.2982Z" fill="#371A45"/>
<path d="M33.1938 87.6212L53.3644 86.0514C55.752 85.8666 57.5553 83.7603 57.3697 81.3699L56.5345 70.6362C56.3714 68.5432 54.7361 66.9025 52.7277 66.6513C52.4375 66.6145 52.1442 66.6077 51.8526 66.6309L31.6847 68.2003C29.2922 68.3855 27.4911 70.4918 27.6798 72.8817L28.3396 81.3832L28.5124 83.6158C28.6976 86.0062 30.8061 87.8059 33.1938 87.6212Z" fill="white"/>
<path d="M73.1229 67.8095C73.1229 67.8095 75.7999 67.7555 76.6076 70.8445C77.1229 72.8139 76.0139 75.0576 76.0139 75.0576C76.0139 75.0576 68.6382 79.2087 55.9931 79.2716C55.9931 79.2716 51.9833 75.7435 55.6771 72.1516C55.6771 72.1516 67.2031 71.1821 73.1229 67.8095Z" fill="white"/>
<path d="M33.1938 87.6212L53.3644 86.0514C55.752 85.8666 57.5553 83.7603 57.3697 81.3699L56.5345 70.6362C56.3714 68.5432 54.7361 66.9025 52.7277 66.6513C52.4375 66.6145 52.1442 66.6077 51.8526 66.6309L31.6847 68.2003C29.2922 68.3855 27.4911 70.4918 27.6798 72.8817L28.3396 81.3832L28.5124 83.6158C28.6976 86.0062 30.8061 87.8059 33.1938 87.6212Z" fill="white"/>
<path d="M73.1229 67.8095C73.1229 67.8095 75.7999 67.7555 76.6076 70.8445C77.1229 72.8139 76.0139 75.0576 76.0139 75.0576C76.0139 75.0576 68.6382 79.2087 55.9931 79.2716C55.9931 79.2716 51.9833 75.7435 55.6771 72.1516C55.6771 72.1516 67.2031 71.1821 73.1229 67.8095Z" fill="white"/>
<g opacity="0.35">
<path d="M58.9328 84.0683C59.1176 86.4582 57.3148 88.564 54.9266 88.7506L34.7565 90.3195C32.3684 90.5047 30.2607 88.7054 30.0742 86.3133L29.9027 84.0815L29.2426 75.5791C29.0538 73.1892 30.8571 71.0833 33.247 70.8986L53.4154 69.3297C53.7066 69.3059 53.9996 69.3124 54.2895 69.3492C56.2979 69.6013 57.9337 71.2415 58.0954 73.3341L58.2062 74.7519C60.9696 74.4506 69.0197 73.3939 73.9953 70.8773C74.83 73.0169 75.0613 73.6425 76.1663 76.3075C73.7512 78.3806 69.7082 81.3305 58.7676 81.9482L58.9328 84.0683Z" fill="#371A45"/>
</g>
<path d="M33.1938 87.6212L53.3644 86.0514C55.752 85.8666 57.5553 83.7603 57.3697 81.3699L56.5345 70.6362C56.3714 68.5432 54.7361 66.9025 52.7277 66.6513C52.4375 66.6145 52.1442 66.6077 51.8526 66.6309L31.6847 68.2003C29.2922 68.3855 27.4911 70.4918 27.6798 72.8817L28.3396 81.3832L28.5124 83.6158C28.6976 86.0062 30.8061 87.8059 33.1938 87.6212Z" fill="white"/>
<g opacity="0.35">
<path d="M33.1938 87.6212L53.3644 86.0514C55.7521 85.8667 57.5554 83.7603 57.3697 81.37L56.5345 70.6363C56.3715 68.5433 54.7361 66.9026 52.7277 66.6514C51.6413 67.5012 50.9519 68.0448 50.9519 68.0448C50.6418 76.7373 51.5159 83.0953 38.0782 83.2491C33.4455 83.3022 30.2528 82.1857 28.3396 81.3833L28.5124 83.6159C28.6976 86.0062 30.8061 87.806 33.1938 87.6212Z" fill="#371A45"/>
</g>
<path d="M32.8527 88.3887C31.567 88.3862 30.3293 87.8998 29.3859 87.0263C28.4426 86.1528 27.8626 84.9561 27.7614 83.6744L26.9266 72.9389C26.8229 71.5884 27.2592 70.2519 28.1396 69.2226C29.0201 68.1933 30.2729 67.5553 31.6231 67.4485L51.7937 65.8791C53.1439 65.7773 54.4794 66.2142 55.5083 67.0943C56.5373 67.9744 57.1759 69.226 57.2846 70.5756L58.1198 81.3111C58.2234 82.6617 57.7872 83.9982 56.9067 85.0275C56.0263 86.0569 54.7736 86.695 53.4233 86.802L33.2536 88.3714C33.1185 88.3833 32.9847 88.3887 32.8527 88.3887ZM52.1925 67.3709C52.099 67.3709 52.0051 67.374 51.9107 67.3816L31.741 68.9509C30.7887 69.026 29.9052 69.4758 29.2842 70.2017C28.6632 70.9275 28.3555 71.87 28.4286 72.8224L29.2634 83.5579C29.341 84.5093 29.7916 85.3914 30.5169 86.012C31.2422 86.6326 32.1834 86.9412 33.1353 86.8707L53.3046 85.3014C54.2569 85.2262 55.1405 84.7764 55.7615 84.0506C56.3826 83.3248 56.6904 82.3823 56.6174 81.4299L55.7813 70.6944C55.71 69.7909 55.3011 68.9473 54.6362 68.3315C53.9712 67.7157 53.0988 67.3728 52.1925 67.3709Z" fill="#371A45"/>
<path d="M32.3777 87.6049C32.6484 87.639 32.9219 87.6445 33.1938 87.6213L53.3644 86.0515C54.1983 85.9846 54.9954 85.6795 55.6608 85.1724C56.3262 84.6654 56.8319 83.9778 57.1176 83.1915C57.3314 82.6097 57.4164 81.9884 57.3666 81.3705L56.9975 76.6018L56.8757 75.028L56.5341 70.6363C56.3484 68.2438 54.2399 66.4458 51.8522 66.631L47.4938 66.9713C49.5319 67.1928 51.2 68.8455 51.3657 70.9589L51.8185 76.7569L52.2018 81.6957C52.387 84.083 50.5841 86.1919 48.1969 86.3771L32.3777 87.6049Z" fill="white"/>
<g opacity="0.35">
<path d="M32.3777 87.6048C32.6484 87.639 32.9219 87.6445 33.1938 87.6212L53.3644 86.0514C55.7521 85.8667 57.5553 83.7603 57.3666 81.3704L56.8757 75.028C56.4556 76.1883 55.651 77.6345 54.204 77.8924C53.41 78.0359 52.5779 77.5211 51.8185 76.7572L52.2018 81.6961C52.387 84.0833 50.5841 86.1923 48.1969 86.3775L32.3777 87.6048Z" fill="#371A45"/>
</g>
<path d="M32.8609 88.3886C32.6684 88.3887 32.476 88.3772 32.2849 88.3541L32.3168 86.8547L48.1369 85.6252C49.0881 85.5481 49.9701 85.0978 50.5903 84.3726C51.2106 83.6474 51.5187 82.7062 51.4475 81.7546L50.6123 71.0187C50.5462 70.1821 50.1903 69.3947 49.6059 68.7923C49.0216 68.19 48.2454 67.8103 47.4112 67.7187L47.4347 66.2185L51.7913 65.8787C53.1419 65.7771 54.4777 66.2145 55.5067 67.0952C56.5357 67.9759 57.1741 69.2282 57.2822 70.5783L58.1174 81.3124C58.2198 82.6628 57.7832 83.9987 56.903 85.0278C56.0228 86.057 54.7708 86.6955 53.4209 86.8038L33.2499 88.3722C33.1223 88.3829 32.9916 88.3886 32.8609 88.3886ZM50.432 67.4963C51.4109 68.3724 52.014 69.5924 52.1156 70.9022L52.9508 81.6372C53.0042 82.3061 52.9243 82.979 52.7157 83.6168C52.5071 84.2546 52.1739 84.8447 51.7355 85.3528C51.7138 85.3785 51.6912 85.4033 51.6699 85.4281L53.3053 85.3014C54.2564 85.2238 55.1383 84.7732 55.7585 84.0479C56.3787 83.3226 56.6869 82.3815 56.6159 81.4299L55.7811 70.6944C55.7039 69.7428 55.2534 68.8604 54.528 68.2397C53.8027 67.619 52.8612 67.3104 51.9092 67.3811L50.432 67.4963Z" fill="#371A45"/>
<path d="M43.8371 77.0337C43.8704 77.4325 44.6958 80.5866 44.6958 80.5866L46.9554 80.3979C48.5119 80.2676 49.6391 78.5508 49.4729 76.5623C49.3068 74.5738 47.9102 73.0683 46.3537 73.1985L44.0941 73.3873C44.0941 73.3873 43.7831 76.3877 43.8371 77.0337Z" fill="#22A7F0"/>
<g opacity="0.35">
<path d="M43.8371 77.0337C43.8704 77.4325 44.6958 80.5866 44.6958 80.5866L46.9554 80.3979C48.5119 80.2676 49.6391 78.5508 49.4729 76.5623C49.3068 74.5738 47.9102 73.0683 46.3537 73.1985L44.0941 73.3873C44.0941 73.3873 43.7831 76.3877 43.8371 77.0337Z" fill="#371A45"/>
</g>
<path d="M44.2694 81.1892L44.1489 80.7298C43.9526 79.9765 43.3071 77.4954 43.2739 77.0807C43.2172 76.401 43.4994 73.6416 43.5317 73.3292L43.58 72.8631L46.3075 72.6354C47.238 72.5574 48.1401 72.9362 48.8498 73.7018C49.5246 74.4294 49.946 75.4298 50.0368 76.5153C50.2287 78.8108 48.868 80.8051 47.0036 80.961L44.2694 81.1892ZM44.4024 76.9859C44.425 77.2052 44.7692 78.6066 45.125 79.9841L46.9114 79.8348C48.1547 79.7306 49.0528 78.284 48.9128 76.6097C48.8428 75.7732 48.5269 75.0147 48.0235 74.4701C47.5548 73.965 46.9783 73.7134 46.4041 73.7612L44.6115 73.911C44.4976 75.0585 44.3687 76.6066 44.4001 76.9859H44.4024Z" fill="#371A45"/>
<path d="M44.7003 80.5831C46.2568 80.4529 47.3838 78.7358 47.2175 76.7477C47.0513 74.7596 45.6548 73.2534 44.0983 73.3836C42.5418 73.5138 41.4148 75.2309 41.581 77.219C41.7473 79.2071 43.1438 80.7133 44.7003 80.5831Z" fill="#22A7F0"/>
<g opacity="0.35">
<path d="M47.2133 76.752C47.3803 78.7391 46.2527 80.4573 44.6967 80.5876C43.1406 80.7179 41.7419 79.211 41.577 77.2203C41.5542 76.9576 41.5551 76.6933 41.5797 76.4308C42.0945 77.7626 43.2066 78.6496 44.4153 78.5468C45.7596 78.4343 46.7853 77.1383 46.9293 75.5034C47.0826 75.904 47.1783 76.3244 47.2133 76.752Z" fill="#371A45"/>
</g>
<path d="M47.2132 76.752C47.2249 76.8856 47.2297 77.0197 47.2274 77.1538C46.7883 75.6221 45.588 74.5632 44.2712 74.6727C42.8211 74.7954 41.7413 76.2947 41.7404 78.1082C41.6568 77.8189 41.6021 77.5221 41.577 77.2221C41.4099 75.2354 42.5375 73.5171 44.0936 73.3869C45.6496 73.2566 47.0462 74.763 47.2132 76.752Z" fill="white"/>
<path d="M44.511 81.1596C42.7414 81.1596 41.1973 79.4698 41.0135 77.2699C40.9248 76.1831 41.1725 75.1277 41.717 74.2983C42.2899 73.4255 43.1176 72.9018 44.0471 72.8242C45.9138 72.6678 47.585 74.4091 47.7764 76.7041C47.8672 77.7914 47.6173 78.8464 47.0728 79.6758C46.5004 80.5491 45.6727 81.0723 44.7427 81.1499C44.6652 81.1565 44.5877 81.1596 44.511 81.1596ZM42.1397 77.1756C42.2797 78.8499 43.4073 80.1237 44.6488 80.0236C45.2248 79.9753 45.7503 79.6319 46.1282 79.0559C46.5345 78.4356 46.7201 77.635 46.6501 76.7985C46.5101 75.1246 45.3808 73.8468 44.1411 73.9505C43.5651 73.9988 43.04 74.3422 42.6617 74.9186C42.2554 75.5389 42.0697 76.3395 42.1397 77.1756Z" fill="#371A45"/>
<path d="M39.4572 87.6208C39.3173 87.6207 39.1824 87.5688 39.0786 87.475C38.9748 87.3812 38.9096 87.2522 38.8954 87.113L38.2308 80.5796C38.2123 80.3964 38.1487 80.2206 38.0455 80.068C37.9424 79.9154 37.8029 79.7908 37.6398 79.7054L35.6344 78.6518C35.2982 78.477 35.012 78.2195 34.8028 77.9036C34.5935 77.5876 34.468 77.2237 34.4382 76.8459L33.7231 68.0497C33.717 67.9758 33.7256 67.9013 33.7484 67.8307C33.7711 67.7601 33.8075 67.6946 33.8556 67.6381C33.9036 67.5815 33.9623 67.535 34.0283 67.5011C34.0943 67.4673 34.1664 67.4467 34.2403 67.4407C34.3143 67.4347 34.3887 67.4433 34.4593 67.466C34.53 67.4888 34.5954 67.5252 34.652 67.5732C34.7085 67.6213 34.755 67.68 34.7889 67.746C34.8228 67.812 34.8433 67.884 34.8493 67.958L35.5644 76.7542C35.5793 76.9417 35.6416 77.1224 35.7453 77.2793C35.8491 77.4362 35.991 77.5642 36.1577 77.6514L38.163 78.7045C38.4917 78.8767 38.7724 79.1277 38.9801 79.4351C39.1878 79.7425 39.316 80.0966 39.3531 80.4657L40.0177 86.9987C40.0329 87.148 39.9883 87.2971 39.8936 87.4134C39.7988 87.5298 39.6618 87.6037 39.5126 87.619C39.4953 87.6199 39.4763 87.6208 39.4572 87.6208Z" fill="#371A45"/>
<path d="M73.1229 67.8095C73.1229 67.8095 75.7999 67.7555 76.6076 70.8445C77.1229 72.8139 76.0139 75.0576 76.0139 75.0576C76.0139 75.0576 68.6382 79.2087 55.9931 79.2716C55.9931 79.2716 51.9833 75.7435 55.6771 72.1516C55.6771 72.1516 67.2031 71.1821 73.1229 67.8095Z" fill="white"/>
<g opacity="0.35">
<path d="M76.0141 75.0585C76.0141 75.0585 68.6393 79.2087 55.9929 79.2725C55.9929 79.2725 53.3788 76.9721 54.3154 74.1946C54.3203 74.2096 54.3256 74.2243 54.3305 74.2389C54.8578 75.724 56.3115 76.6846 57.8861 76.6239C69.3491 76.1808 75.9769 72.4515 75.9769 72.4515C76.2379 71.8862 76.4341 71.2932 76.5618 70.6837C76.5777 70.7364 76.5937 70.7905 76.6061 70.845C77.1218 72.8135 76.0141 75.0585 76.0141 75.0585Z" fill="#371A45"/>
</g>
<path d="M57.0262 80.0102C56.536 80.0108 56.0527 79.8943 55.6167 79.6702C55.1807 79.4462 54.8046 79.1211 54.5197 78.7222C53.0479 76.6597 52.969 74.4838 54.3026 72.5964C54.5553 72.2391 54.8811 71.9398 55.2584 71.7182C55.6357 71.4967 56.0559 71.358 56.4909 71.3115C58.9008 71.0514 67.1476 70.0071 72.0966 67.5033C72.911 67.0913 73.8436 67.0474 74.6557 67.3837C75.5897 67.7696 76.813 68.6504 77.3363 70.6522C77.6841 71.9814 77.4023 73.3793 77.105 74.3186C76.9745 74.7241 76.7611 75.0982 76.4786 75.417C76.196 75.7359 75.8504 75.9926 75.4635 76.171C73.1436 77.2481 66.7107 79.7785 57.1006 80.0075L57.0262 80.0102ZM73.5202 68.6677C73.2617 68.669 73.0072 68.7311 72.7772 68.8489C67.7417 71.3966 59.8237 72.4683 56.6531 72.8108C56.4308 72.834 56.2161 72.9043 56.0231 73.017C55.8301 73.1297 55.6634 73.2822 55.5339 73.4643C54.5725 74.8268 54.6442 76.3 55.7466 77.8463C55.8962 78.0547 56.0945 78.2235 56.3242 78.3378C56.554 78.4521 56.8082 78.5084 57.0647 78.502C66.3917 78.2805 72.5946 75.8436 74.8285 74.8051C75.0263 74.7149 75.2032 74.5848 75.3481 74.4228C75.493 74.2608 75.6027 74.0705 75.6704 73.864C75.9074 73.1148 76.1369 72.0155 75.8804 71.0341C75.5857 69.9083 74.9805 69.1489 74.0815 68.7771C73.9034 68.7044 73.7126 68.6675 73.5202 68.6686V68.6677Z" fill="#371A45"/>
<path d="M18.4662 58.943C17.6102 56.7152 27.5047 53.063 31.7918 51.7702C41.5273 48.834 43.6886 41.3962 40.5566 37.052C34.6757 28.896 13.5158 35.4193 7.27568 41.5402C5.0506 43.7228 0.230938 49.0834 1.43475 57.5322" fill="white"/>
<g opacity="0.35">
<path d="M31.7927 51.7705C27.7891 52.9752 18.9021 56.2388 18.4329 58.4799C10.495 54.6606 24.7599 50.3895 28.8831 49.2716C37.0107 47.0665 41.2725 43.195 41.7497 39.7971C42.5999 44.0483 39.6863 49.3895 31.7927 51.7705Z" fill="#371A45"/>
</g>
<g opacity="0.35">
<path d="M19.4587 58.931L18.4148 58.6523C18.4143 58.5951 18.4204 58.538 18.433 58.4822C18.7651 58.6533 19.1077 58.8032 19.4587 58.931Z" fill="#371A45"/>
</g>
<path d="M18.4662 59.6965C18.3138 59.6966 18.165 59.6504 18.0393 59.5641C17.9137 59.4778 17.8172 59.3554 17.7626 59.2131C17.6492 58.918 17.5734 58.4449 17.8557 57.8684C19.3803 54.7568 31.0772 51.1985 31.5743 51.0488C36.277 49.6309 39.6182 46.9154 40.7413 43.5995C41.4742 41.4364 41.1844 39.2105 39.9438 37.4927C38.5194 35.5166 36.0067 34.3616 32.4759 34.0603C24.0701 33.3421 12.1029 37.8596 7.80206 42.0798C3.25798 46.5366 1.36609 51.7001 2.18089 57.4245C2.19483 57.5225 2.18932 57.6222 2.1647 57.7181C2.14008 57.8139 2.09682 57.904 2.03739 57.9831C1.97796 58.0623 1.90352 58.1289 1.81833 58.1793C1.73314 58.2297 1.63886 58.2628 1.54088 58.2767C1.4429 58.2906 1.34313 58.2851 1.24727 58.2605C1.15142 58.2359 1.06135 58.1926 0.982214 58.1332C0.903077 58.0738 0.836421 57.9993 0.78605 57.9142C0.73568 57.829 0.702581 57.7347 0.688646 57.6367C-0.197486 51.4103 1.84062 45.8135 6.74801 41.0009C11.3674 36.4701 23.6687 31.7945 32.6058 32.5574C36.5934 32.8977 39.4733 34.2614 41.1676 36.6097C42.6948 38.728 43.0595 41.4511 42.1689 44.0815C40.8871 47.8649 37.1844 50.9296 32.0094 52.49C26.456 54.1648 19.9828 56.9504 19.2088 58.5304C19.1729 58.6039 19.1645 58.6549 19.1694 58.6713C19.2133 58.7854 19.2288 58.9085 19.2145 59.0299C19.2002 59.1514 19.1566 59.2675 19.0874 59.3684C19.0182 59.4692 18.9254 59.5516 18.8172 59.6085C18.709 59.6655 18.5885 59.6952 18.4662 59.6952V59.6965Z" fill="#371A45"/>
<path d="M86.8402 50.9832C86.7187 50.9831 86.5995 50.9496 86.4959 50.8862C78.324 45.9172 75.2863 33.6952 75.1614 33.176C75.1242 33.0062 75.155 32.8287 75.2471 32.6814C75.3392 32.5341 75.4853 32.4287 75.6542 32.3878C75.823 32.3469 76.0012 32.3738 76.1505 32.4626C76.2998 32.5515 76.4083 32.6952 76.4529 32.8632C76.4826 32.985 79.4902 45.0709 87.1862 49.7506C87.3102 49.8259 87.4062 49.9398 87.4594 50.0748C87.5127 50.2098 87.5202 50.3585 87.481 50.4982C87.4418 50.638 87.3579 50.761 87.2422 50.8486C87.1265 50.9361 86.9853 50.9834 86.8402 50.9832Z" fill="#371A45"/>
<path d="M20.5831 57.0483H20.5782C16.2805 57.0182 12.4165 54.8188 9.98233 51.0146C7.64693 47.3655 7.14671 43.0045 8.67174 39.6327C8.70776 39.5532 8.75909 39.4816 8.82279 39.4219C8.88649 39.3622 8.96132 39.3157 9.04301 39.2849C9.12469 39.2542 9.21164 39.2398 9.29888 39.2427C9.38612 39.2455 9.47194 39.2655 9.55145 39.3015C9.63096 39.3375 9.70259 39.3889 9.76227 39.4526C9.82194 39.5163 9.86849 39.5911 9.89924 39.6728C9.92999 39.7545 9.94436 39.8414 9.94151 39.9287C9.93866 40.0159 9.91866 40.1017 9.88264 40.1812C8.53927 43.1471 9.00626 47.0239 11.1015 50.2982C13.2889 53.7165 16.7466 55.6921 20.5876 55.7191C20.7638 55.7197 20.9326 55.7903 21.0568 55.9153C21.1811 56.0404 21.2505 56.2097 21.2499 56.3859C21.2493 56.5622 21.1788 56.731 21.0537 56.8552C20.9287 56.9794 20.7594 57.0489 20.5831 57.0483Z" fill="#371A45"/>
<path d="M36.8365 104.212C36.6881 104.212 36.544 104.162 36.4272 104.071C36.3103 103.979 36.2275 103.851 36.1919 103.707C34.7914 98.0572 20.4967 95.5051 15.1077 94.9965C15.0208 94.9884 14.9364 94.9632 14.8592 94.9224C14.782 94.8816 14.7137 94.826 14.658 94.7588C14.6023 94.6916 14.5604 94.6141 14.5347 94.5307C14.5089 94.4473 14.4999 94.3597 14.508 94.2728C14.5162 94.1859 14.5414 94.1014 14.5821 94.0243C14.6229 93.9471 14.6785 93.8787 14.7457 93.823C14.8129 93.7673 14.8904 93.7254 14.9738 93.6997C15.0572 93.674 15.1449 93.6649 15.2318 93.6731C16.0612 93.751 35.5685 95.6669 37.4825 103.386C37.5068 103.483 37.5085 103.586 37.4874 103.684C37.4663 103.783 37.423 103.876 37.3608 103.955C37.2985 104.035 37.219 104.099 37.1283 104.143C37.0375 104.187 36.9379 104.21 36.837 104.21L36.8365 104.212Z" fill="#371A45"/>
<path d="M66.2819 105.807C65.8512 105.807 65.452 105.79 65.0896 105.754C64.9142 105.736 64.753 105.649 64.6415 105.513C64.5299 105.377 64.4772 105.201 64.4948 105.026C64.5124 104.851 64.599 104.689 64.7355 104.578C64.8719 104.466 65.0471 104.414 65.2225 104.431C70.378 104.945 83.1884 101.545 84.258 97.203C84.2788 97.1182 84.3162 97.0384 84.368 96.9681C84.4197 96.8978 84.4847 96.8384 84.5594 96.7932C84.6341 96.7481 84.717 96.7181 84.8033 96.705C84.8896 96.6918 84.9776 96.6958 85.0623 96.7167C85.1471 96.7376 85.2269 96.775 85.2972 96.8267C85.3675 96.8784 85.4269 96.9435 85.4721 97.0182C85.5172 97.0929 85.5472 97.1757 85.5604 97.262C85.5735 97.3483 85.5695 97.4363 85.5486 97.5211C84.7391 100.806 79.6075 102.941 76.6204 103.922C73.0714 105.086 69.0444 105.807 66.2819 105.807Z" fill="#371A45"/>
<path d="M13.5928 110.49C13.7444 110.448 13.848 110.425 13.9699 110.401C14.0917 110.377 14.2029 110.357 14.3199 110.337C14.5516 110.301 14.7829 110.271 15.0124 110.253C15.4691 110.212 15.9275 110.195 16.3859 110.202C17.2921 110.22 18.1955 110.307 19.0886 110.462C19.9747 110.619 20.8502 110.817 21.6969 111.111C21.9105 111.175 22.1187 111.258 22.3265 111.342C22.5343 111.426 22.7421 111.506 22.9468 111.596C23.3558 111.782 23.7551 111.988 24.1431 112.214C23.689 112.203 23.2486 112.163 22.8139 112.119C22.3708 112.091 21.9415 112.037 21.5091 111.998L20.2198 111.882C20.0058 111.866 19.7935 111.837 19.58 111.824L18.9402 111.784C18.0891 111.739 17.241 111.719 16.4023 111.746C15.9832 111.755 15.5654 111.779 15.1542 111.813C14.9473 111.827 14.7444 111.852 14.5419 111.872L14.2437 111.91C14.1502 111.922 14.039 111.94 13.9779 111.95L13.9189 111.96C13.7302 111.988 13.5379 111.943 13.381 111.834C13.224 111.726 13.1141 111.562 13.0735 111.375C13.0328 111.189 13.0644 110.994 13.1619 110.83C13.2593 110.666 13.4154 110.545 13.5986 110.492L13.5928 110.49Z" fill="#371A45"/>
<path d="M78.3186 114.052C78.6287 113.057 79.2694 112.177 80.0235 111.434C80.7807 110.681 81.7014 110.105 82.6735 109.646C83.1702 109.448 83.6686 109.234 84.1892 109.106C84.448 109.038 84.7054 108.949 84.9695 108.908L85.7608 108.772C86.0266 108.72 86.2925 108.708 86.5583 108.691C86.8241 108.674 87.09 108.657 87.3558 108.647C87.8875 108.647 88.4147 108.687 88.9415 108.721C89.1303 108.74 89.305 108.83 89.4307 108.972C89.5563 109.114 89.6237 109.298 89.6194 109.488C89.6151 109.678 89.5394 109.859 89.4074 109.995C89.2754 110.131 89.0969 110.212 88.9074 110.223H88.8277C88.3439 110.23 87.8618 110.213 87.382 110.211C87.143 110.227 86.904 110.239 86.6651 110.249C86.4265 110.251 86.1883 110.27 85.9522 110.304L85.2433 110.389C85.1251 110.402 85.0081 110.423 84.8928 110.452L84.5446 110.523C84.0709 110.594 83.6288 110.762 83.1666 110.883C82.2644 111.201 81.402 111.623 80.5969 112.14C79.7566 112.674 78.9905 113.317 78.3186 114.052Z" fill="#371A45"/>
</svg>
