<svg width="97" height="151" viewBox="0 0 97 151" fill="none" xmlns="http://www.w3.org/2000/svg">
<g opacity="0.2">
<path d="M46.3488 151C69.4893 151 88.2484 148.549 88.2484 145.525C88.2484 142.501 69.4893 140.05 46.3488 140.05C23.2083 140.05 4.44922 142.501 4.44922 145.525C4.44922 148.549 23.2083 151 46.3488 151Z" fill="#371A45"/>
</g>
<path d="M67.0251 67.6639H35.2939C30.4137 67.6639 26.4575 71.6201 26.4575 76.5003V107.431C26.4575 112.311 30.4137 116.267 35.2939 116.267H67.0251C71.9053 116.267 75.8615 112.311 75.8615 107.431V76.5003C75.8615 71.6201 71.9053 67.6639 67.0251 67.6639Z" fill="white"/>
<path d="M67.0246 117.152H35.2939C29.9339 117.152 25.573 112.791 25.573 107.431V76.5009C25.573 71.1404 29.9339 66.7795 35.2939 66.7795H67.0246C72.3851 66.7795 76.7455 71.1404 76.7455 76.5009V107.431C76.7455 112.791 72.3851 117.152 67.0246 117.152ZM35.2939 68.5496C30.9092 68.5496 27.3421 72.1163 27.3421 76.5019V107.432C27.3421 111.816 30.9088 115.384 35.2939 115.384H67.0246C71.4098 115.384 74.9769 111.817 74.9769 107.432V76.5009C74.9769 72.1158 71.4102 68.5486 67.0246 68.5486L35.2939 68.5496Z" fill="#371A45"/>
<path d="M81.8716 99.2919C81.8716 99.2919 84.0516 106.092 76.8854 107.551C75.5942 107.816 74.3601 107.708 73.2568 107.305C68.5013 105.552 66.201 98.2195 72.4484 90.8826C72.778 90.4936 73.1318 90.1065 73.5098 89.7175C73.5268 89.7028 73.5427 89.6869 73.5574 89.6699C73.5574 89.6699 73.2245 89.1216 72.1645 88.3474C71.4987 87.8633 70.5438 87.2883 69.206 86.7067L66.638 78.8462L66.6333 78.8329L66.1781 77.4395L63.4009 68.9531C63.4009 68.9531 65.9456 69.8177 69.1984 71.2905C70.2732 71.777 71.4274 72.332 72.5925 72.9445C72.913 73.1124 73.2359 73.2869 73.5588 73.4638C73.5588 73.4638 74.2641 73.8443 75.3697 74.53C81.0222 78.0491 97.089 89.6052 81.8716 99.2919Z" fill="white"/>
<g opacity="0.2">
<path d="M72.591 72.9435C71.1406 74.6993 68.9292 76.2358 66.1767 77.4385L63.3994 68.9521C63.3994 68.9521 65.9441 69.8167 69.197 71.2895C70.2717 71.776 71.424 72.331 72.591 72.9435Z" fill="#371A45"/>
</g>
<path d="M44.5645 67.6628L36.1266 76.9015C33.6014 75.6408 31.6179 74.0777 30.3838 72.32C34.6887 69.6958 39.5419 68.1019 44.5645 67.6628Z" fill="#D8D8D8"/>
<path d="M68.8033 76.0899C64.6313 78.6018 58.5279 80.1849 51.7265 80.1849C44.4162 80.1849 37.911 78.3564 33.7451 75.5131C33.8669 75.2544 33.9881 74.9975 34.1146 74.7388C34.1146 74.7388 31.7882 61.3656 43.428 56.8193C46.1589 56.2629 48.9394 55.9858 51.7265 55.9923C54.7534 55.9923 57.6415 56.3066 60.2837 56.8768C70.2937 61.4698 68.1647 74.7388 68.1647 74.7388C68.3834 75.1901 68.5979 75.641 68.8033 76.0899Z" fill="#D8D8D8"/>
<g opacity="0.2">
<path d="M68.4381 80.31L69.2047 86.7044C72.6762 88.2119 73.5579 89.6676 73.5579 89.6676C73.5418 89.6842 73.5251 89.7009 73.5104 89.7151C74.4415 88.9471 75.6908 88.0688 77.0024 87.5751C77.0024 87.5751 74.5295 86.2911 73.7776 85.2977C71.3604 82.12 71.31 80.9734 70.385 79.6652C70.0859 79.2467 68.0985 79.6071 68.4381 80.31Z" fill="#371A45"/>
</g>
<g opacity="0.2">
<path d="M76.8859 107.553C83.9674 106.109 81.9216 99.4514 81.874 99.293C81.874 99.293 80.6442 105.883 74.2422 104.075C70.1486 102.917 70.4948 97.1473 71.2762 93.1398C71.2074 92.9812 71.1503 92.8178 71.1054 92.6509H71.1031C65.4501 101.055 70.4729 108.86 76.8859 107.553Z" fill="#371A45"/>
</g>
<path d="M75.5044 108.58C72.7657 108.58 70.2676 107.094 68.8789 104.535C67.0195 101.111 67.0086 95.4514 72.3581 89.6496C71.8921 89.2159 71.009 88.5344 69.4805 87.8068C69.3742 87.7578 69.2786 87.6881 69.1994 87.6019C69.1202 87.5156 69.0589 87.4145 69.019 87.3044C68.9792 87.1943 68.9616 87.0773 68.9673 86.9604C68.973 86.8434 69.0019 86.7287 69.0523 86.623C69.1027 86.5173 69.1735 86.4226 69.2608 86.3445C69.348 86.2664 69.4499 86.2064 69.5605 86.1679C69.6711 86.1295 69.7883 86.1134 69.9052 86.1206C70.0221 86.1278 70.1363 86.1582 70.2414 86.2099C73.3216 87.6765 74.2233 89.0604 74.316 89.2135L74.6722 89.8022L74.1895 90.2921C68.9484 95.6183 68.8128 100.707 70.4326 103.692C71.7213 106.07 74.1263 107.216 76.7071 106.688C78.5941 106.304 79.9152 105.486 80.6347 104.257C81.8474 102.186 81.0371 99.5907 81.029 99.565L80.8207 98.9154L81.3961 98.5487C85.4664 95.9574 87.4719 93.0546 87.3577 89.9206C87.0624 81.8333 73.2779 74.3199 73.1385 74.2448C68.2545 71.5498 63.1651 69.8116 63.1142 69.7945C62.8941 69.7176 62.7133 69.5569 62.6111 69.3474C62.5088 69.1378 62.4935 68.8964 62.5683 68.6756C62.6431 68.4548 62.8021 68.2724 63.0107 68.1682C63.2192 68.064 63.4605 68.0464 63.682 68.1191C63.8955 68.1914 68.9664 69.922 73.9855 72.6916C74.5814 73.0121 88.7911 80.7566 89.1254 89.8541C89.2595 93.5121 87.1589 96.8196 82.8794 99.6924C83.1053 100.807 83.355 103.116 82.1613 105.151C81.1774 106.832 79.4611 107.932 77.0605 108.422C76.5484 108.527 76.0271 108.58 75.5044 108.58Z" fill="#371A45"/>
<path d="M82.0046 99.9972C80.7206 100.476 79.3582 100.798 77.98 100.774C78.4708 100.431 79.1575 99.9786 79.6559 99.6434C80.197 99.2843 80.7549 98.9162 81.3046 98.5872L82.0046 99.9972Z" fill="#371A45"/>
<path d="M86.6553 95.6368C86.5681 95.6366 86.4819 95.6193 86.4014 95.5857C86.321 95.5521 86.2479 95.503 86.1865 95.4411C86.125 95.3793 86.0764 95.3059 86.0433 95.2253C86.0103 95.1446 85.9934 95.0582 85.9938 94.971C85.9976 93.4126 84.5843 91.7406 82.3934 90.7124C79.7592 89.476 75.7598 89.1454 72.4342 91.9232C72.3676 91.9811 72.2902 92.0252 72.2063 92.0529C72.1225 92.0805 72.034 92.0911 71.946 92.0841C71.858 92.0771 71.7723 92.0527 71.6939 92.0121C71.6155 91.9716 71.546 91.9158 71.4894 91.8481C71.4328 91.7803 71.3903 91.702 71.3644 91.6176C71.3385 91.5332 71.3297 91.4445 71.3385 91.3567C71.3473 91.2689 71.3735 91.1837 71.4157 91.1061C71.4578 91.0286 71.515 90.9602 71.5839 90.905C75.3884 87.7278 79.9537 88.1025 82.9569 89.5116C85.6129 90.7581 87.3254 92.9024 87.3202 94.9744C87.3193 95.1502 87.2489 95.3186 87.1243 95.4427C86.9998 95.5668 86.8312 95.6366 86.6553 95.6368Z" fill="#371A45"/>
<path d="M72.866 89.047C74.1847 88.3812 75.5591 87.7872 77.0033 87.4948C75.804 88.2556 74.7777 89.25 73.8342 90.2887L72.8669 89.047H72.866Z" fill="#371A45"/>
<path d="M50.468 115.819C50.331 118.028 50.2426 120.234 50.185 122.386C50.1717 122.93 50.1584 123.471 50.1475 124.006C49.9639 133.444 50.3201 141.495 49.6149 143.529C48.6504 146.298 46.1475 146.538 46.1475 146.538H37.5875C37.5875 146.538 31.6711 146.835 30.0979 145.388C28.5248 143.942 28.6803 141.888 29.8278 140.466C30.8098 139.246 32.5699 138.732 32.5699 138.732C32.5699 138.732 31.381 129.927 30.164 118.206C30.1165 117.73 30.0646 117.251 30.0161 116.766C29.6447 113.144 29.2776 109.28 28.9437 105.33L50.468 115.819Z" fill="white"/>
<g opacity="0.2">
<path d="M50.4682 115.819C50.3312 118.028 50.2427 120.234 50.1852 122.386C50.1719 122.93 50.1586 123.471 50.1476 124.006C40.4362 124.577 33.913 121.153 30.1651 118.205C30.1176 117.729 30.0657 117.25 30.0172 116.765C29.6458 113.143 29.2787 109.278 28.9448 105.329L50.4682 115.819Z" fill="#371A45"/>
</g>
<g opacity="0.2">
<path d="M30.098 145.388C31.6673 146.832 37.5857 146.537 37.5857 146.537H46.1457C46.1457 146.537 48.65 146.295 49.614 143.528C49.7348 143.181 49.8251 142.659 49.8917 141.982C48.7951 142.832 47.6837 142.939 47.6837 142.939H38.0051C38.0051 142.939 31.3178 143.272 29.5401 141.638C29.4469 141.553 29.3582 141.463 29.2743 141.37C28.6875 142.674 28.8373 144.229 30.098 145.388Z" fill="#371A45"/>
</g>
<path d="M36.2112 147.456C34.1934 147.456 30.8269 147.261 29.5001 146.04C27.7362 144.418 27.5845 141.841 29.1391 139.912C29.862 139.015 30.9082 138.452 31.602 138.153C31.174 134.889 29.3555 120.678 28.062 105.406C28.0422 105.172 28.1162 104.94 28.2675 104.761C28.4189 104.581 28.6352 104.47 28.869 104.45C29.1028 104.43 29.3348 104.504 29.5141 104.655C29.6933 104.807 29.8051 105.023 29.8249 105.257C31.2882 122.537 33.4263 138.456 33.4477 138.615C33.476 138.825 33.4281 139.038 33.3127 139.215C33.1972 139.393 33.0219 139.523 32.8185 139.582C32.8057 139.586 31.3081 140.039 30.5163 141.022C29.6984 142.037 29.4373 143.579 30.6971 144.738C31.5916 145.56 35.2377 145.768 37.5418 145.656C37.556 145.656 37.5708 145.656 37.5855 145.656H46.0914C46.3468 145.618 48.0668 145.286 48.7788 143.239C49.1987 142.032 49.1992 137.805 49.2001 132.91C49.2001 127.999 49.2001 121.888 49.5858 115.764C49.6005 115.53 49.7076 115.311 49.8836 115.156C50.0595 115.001 50.2899 114.922 50.5241 114.936C50.7582 114.951 50.9769 115.058 51.1321 115.234C51.2873 115.41 51.3662 115.64 51.3515 115.875C50.9711 121.943 50.9711 128.024 50.9711 132.911C50.9711 138.584 50.9711 142.331 50.4518 143.82C49.3147 147.088 46.3577 147.408 46.2326 147.421C46.2046 147.423 46.176 147.425 46.148 147.425H37.6069C37.3444 147.437 36.8437 147.456 36.2112 147.456Z" fill="#371A45"/>
<path d="M41.8515 130.503C38.3575 130.503 34.321 130.064 30.8541 128.532C30.647 128.433 30.4866 128.257 30.4069 128.042C30.3273 127.826 30.3346 127.588 30.4273 127.378C30.52 127.168 30.6908 127.002 30.9036 126.916C31.1165 126.829 31.3546 126.829 31.5675 126.915C39.0238 130.209 49.8028 127.999 49.9112 127.975C50.0249 127.951 50.1422 127.95 50.2564 127.972C50.3706 127.993 50.4794 128.037 50.5767 128.1C50.674 128.164 50.7578 128.246 50.8234 128.342C50.8889 128.438 50.935 128.545 50.9589 128.659C50.9828 128.773 50.984 128.89 50.9626 129.004C50.9412 129.118 50.8974 129.227 50.8339 129.325C50.7704 129.422 50.6884 129.506 50.5925 129.571C50.4966 129.637 50.3887 129.683 50.275 129.707C50.0139 129.759 46.3907 130.503 41.8515 130.503Z" fill="#371A45"/>
<path d="M32.3639 137.875C34.6889 137.489 36.973 137.68 39.2519 138.057C39.3625 138.077 39.4617 138.138 39.5291 138.228C39.5966 138.318 39.6274 138.43 39.6154 138.541C39.6033 138.653 39.5492 138.756 39.464 138.83C39.3789 138.903 39.2691 138.941 39.1568 138.937C37.0291 138.865 34.7926 138.973 32.779 139.594C31.5711 139.927 31.136 138.133 32.3644 137.875H32.3639Z" fill="#371A45"/>
<path d="M51.811 115.819C51.9485 118.028 52.0369 120.234 52.0964 122.386C52.1092 122.93 52.1225 123.471 52.1339 124.006C52.3175 133.444 51.9613 141.495 52.6666 143.529C53.6305 146.298 56.1339 146.538 56.1339 146.538H64.6939C64.6939 146.538 70.6089 146.835 72.1811 145.389C73.7533 143.943 73.5988 141.888 72.4508 140.466C71.4692 139.246 69.7092 138.733 69.7092 138.733C69.7092 138.733 70.8981 129.928 72.115 118.206C72.1626 117.731 72.2144 117.252 72.2629 116.767C72.6343 113.145 73.0015 109.28 73.3353 105.331L51.811 115.819Z" fill="white"/>
<g opacity="0.2">
<path d="M51.811 115.819C51.9485 118.028 52.0369 120.234 52.0964 122.386C52.1092 122.93 52.1225 123.471 52.1339 124.006C61.8453 124.577 68.3681 121.153 72.1165 118.205C72.164 117.729 72.2158 117.25 72.2643 116.765C72.6358 113.143 73.0029 109.278 73.3367 105.329L51.811 115.819Z" fill="#371A45"/>
</g>
<g opacity="0.2">
<path d="M72.1817 145.388C70.6123 146.832 64.6945 146.537 64.6945 146.537H56.1344C56.1344 146.537 53.6301 146.295 52.6662 143.528C52.5449 143.181 52.455 142.659 52.3884 141.982C53.4851 142.832 54.596 142.939 54.596 142.939H64.2745C64.2745 142.939 70.9623 143.272 72.7395 141.638C72.8327 141.553 72.9215 141.463 73.0053 141.37C73.5922 142.674 73.4424 144.229 72.1817 145.388Z" fill="#371A45"/>
</g>
<path d="M66.0682 147.456C65.4352 147.456 64.9349 147.437 64.6719 147.424H56.1333C56.1052 147.424 56.0767 147.424 56.0486 147.42C55.9236 147.408 52.9661 147.087 51.8295 143.819C51.3116 142.331 51.3111 138.583 51.3102 132.91C51.3102 128.023 51.3102 121.942 50.9297 115.874C50.915 115.64 50.9939 115.409 51.1491 115.233C51.3043 115.057 51.523 114.95 51.7572 114.936C51.9913 114.921 52.2217 115 52.3977 115.155C52.5737 115.31 52.6808 115.529 52.6955 115.763C53.0792 121.887 53.0802 127.999 53.0811 132.909C53.0811 137.804 53.0811 142.032 53.502 143.239C54.2106 145.274 55.9155 145.613 56.1918 145.655H64.6957C64.7105 145.655 64.7252 145.655 64.7395 145.655C67.0431 145.768 70.6897 145.56 71.5842 144.737C72.844 143.578 72.5829 142.036 71.7649 141.021C70.9731 140.038 69.4756 139.585 69.4604 139.581C69.2579 139.521 69.0835 139.39 68.9686 139.213C68.8537 139.036 68.8058 138.824 68.8336 138.614C68.855 138.455 70.9931 122.536 72.4564 105.256C72.4761 105.022 72.5879 104.806 72.7672 104.655C72.9464 104.503 73.1785 104.429 73.4123 104.449C73.646 104.469 73.8624 104.581 74.0137 104.76C74.1651 104.939 74.239 105.171 74.2193 105.405C72.9258 120.678 71.1067 134.89 70.6792 138.152C71.3731 138.451 72.4193 139.014 73.1421 139.912C74.6967 141.84 74.545 144.417 72.7812 146.04C71.4525 147.261 68.086 147.456 66.0682 147.456Z" fill="#371A45"/>
<path d="M60.4281 130.503C55.8879 130.503 52.2656 129.761 52.0035 129.706C51.8898 129.682 51.782 129.636 51.6861 129.57C51.5902 129.505 51.5081 129.421 51.4446 129.324C51.3811 129.226 51.3374 129.118 51.316 129.003C51.2945 128.889 51.2958 128.772 51.3197 128.658C51.3436 128.544 51.3896 128.437 51.4552 128.341C51.5208 128.245 51.6046 128.163 51.7019 128.099C51.7992 128.036 51.908 127.992 52.0222 127.971C52.1364 127.949 52.2537 127.95 52.3673 127.974C52.4753 127.997 63.2657 130.203 70.7106 126.914C70.8177 126.861 70.9344 126.83 71.0537 126.823C71.1731 126.817 71.2926 126.834 71.405 126.875C71.5173 126.915 71.6203 126.979 71.7077 127.06C71.7951 127.142 71.865 127.24 71.9132 127.35C71.9615 127.459 71.987 127.577 71.9884 127.696C71.9898 127.816 71.9669 127.935 71.9212 128.045C71.8755 128.155 71.8078 128.255 71.7224 128.339C71.6369 128.423 71.5354 128.488 71.4239 128.531C67.9585 130.061 63.9215 130.503 60.4281 130.503Z" fill="#371A45"/>
<path d="M69.5009 139.593C67.4869 138.972 65.2508 138.864 63.1231 138.936C62.5762 138.955 62.4897 138.153 63.028 138.056C65.3069 137.679 67.5905 137.486 69.916 137.874C71.1415 138.13 70.7126 139.923 69.5013 139.593H69.5009Z" fill="#371A45"/>
<path d="M66.0682 147.456C65.4352 147.456 64.9349 147.437 64.6719 147.424H56.1333C56.1052 147.424 56.0767 147.424 56.0486 147.42C55.9236 147.408 52.9661 147.087 51.8295 143.819C51.3116 142.331 51.3111 138.583 51.3102 132.91C51.3102 128.023 51.3102 121.942 50.9297 115.874C50.915 115.64 50.9939 115.409 51.1491 115.233C51.3043 115.057 51.523 114.95 51.7572 114.936C51.9913 114.921 52.2217 115 52.3977 115.155C52.5737 115.31 52.6808 115.529 52.6955 115.763C53.0792 121.887 53.0802 127.999 53.0811 132.909C53.0811 137.804 53.0811 142.032 53.5025 143.239C54.2106 145.274 55.9159 145.613 56.1922 145.655H64.6957C64.7105 145.655 64.7252 145.655 64.7395 145.655C67.0436 145.768 70.6897 145.56 71.5842 144.737C72.844 143.578 72.5829 142.036 71.7649 141.021C70.9731 140.038 69.4756 139.585 69.4604 139.581C69.2579 139.521 69.0835 139.39 68.9686 139.213C68.8537 139.036 68.8058 138.824 68.8336 138.614C68.855 138.455 70.9931 122.536 72.4564 105.256C72.4761 105.022 72.5879 104.806 72.7672 104.655C72.9464 104.503 73.1785 104.429 73.4123 104.449C73.646 104.469 73.8624 104.581 74.0137 104.76C74.1651 104.939 74.239 105.171 74.2193 105.405C72.9258 120.678 71.1067 134.89 70.6792 138.152C71.3731 138.451 72.4193 139.014 73.1421 139.912C74.6967 141.84 74.545 144.417 72.7817 146.04C71.4525 147.261 68.086 147.456 66.0682 147.456Z" fill="#371A45"/>
<path d="M68.1654 74.7385C73.7294 86.2508 76.2327 96.7864 74.5345 104.976C73.9287 107.898 72.9176 110.303 71.6236 112.28C68.8297 116.539 64.7014 118.807 60.4004 119.962C57.257 120.806 54.0199 121.056 51.1418 121.056C48.9261 121.056 46.4975 120.907 44.0621 120.454C43.3792 120.326 42.6958 120.175 42.0172 119.997C38.1828 118.988 34.4772 117.105 31.7195 113.726C29.9123 111.511 28.5104 108.652 27.7481 104.976C26.0498 96.7859 28.5527 86.2504 34.1172 74.738" fill="white"/>
<path d="M75.0569 99.292C75.0768 101.289 74.9061 103.188 74.5337 104.977C74.4501 105.386 74.3573 105.785 74.2556 106.173C73.6407 108.564 72.7385 110.58 71.6219 112.281C68.8289 116.539 64.7006 118.806 60.3987 119.962C57.2543 120.807 54.0172 121.056 51.1405 121.056C48.9249 121.056 46.4948 120.908 44.0604 120.454C43.377 120.326 42.6936 120.176 42.0155 119.997C38.1792 118.988 34.475 117.105 31.7158 113.726C30.0989 111.742 28.8059 109.242 28.0032 106.102C27.908 105.734 27.8239 105.361 27.7445 104.976C27.373 103.187 27.2028 101.288 27.2213 99.2911C27.2836 92.1401 29.7622 83.7356 34.1141 74.738C34.1141 74.738 30.8803 56.1332 51.1391 55.3528C71.3979 54.5724 68.1641 74.738 68.1641 74.738C72.5179 83.7365 74.9946 92.1411 75.0569 99.292Z" fill="white"/>
<g opacity="0.2">
<path d="M68.8033 76.0899C64.6313 78.6018 58.5279 80.1849 51.7265 80.1849C44.4162 80.1849 37.911 78.3564 33.7451 75.5131C33.8669 75.2544 33.9881 74.9975 34.1146 74.7388C34.1146 74.7388 31.7882 61.3656 43.428 56.8193C46.1589 56.2629 48.9394 55.9858 51.7265 55.9923C54.7534 55.9923 57.6415 56.3066 60.2837 56.8768C70.2937 61.4698 68.1647 74.7388 68.1647 74.7388C68.3834 75.1901 68.5979 75.641 68.8033 76.0899Z" fill="#371A45"/>
</g>
<g opacity="0.2">
<path d="M74.5346 104.977C73.9287 107.898 72.9205 110.303 71.6227 112.28C68.8298 116.539 64.7014 118.806 60.3995 119.962C57.2551 120.807 54.018 121.056 51.1414 121.056C48.9257 121.056 46.4956 120.908 44.0612 120.454C43.3779 120.326 42.6945 120.176 42.0163 119.997C38.18 118.988 34.4759 117.104 31.7167 113.726C29.9095 111.51 28.5081 108.651 27.7453 104.975C27.2764 102.715 27.1271 100.277 27.2764 97.6874C27.3441 98.9039 27.5008 100.114 27.7453 101.307C28.5062 104.984 29.91 107.841 31.7167 110.058C34.4749 113.436 38.18 115.321 42.0163 116.329C42.695 116.508 43.3783 116.658 44.0612 116.786C46.4956 117.24 48.9257 117.388 51.1414 117.388C54.018 117.388 57.2551 117.138 60.3995 116.294C64.7024 115.14 68.8307 112.87 71.6227 108.612C72.9205 106.636 73.9287 104.23 74.5346 101.309C74.7793 100.116 74.936 98.9058 75.0035 97.6893C75.1519 100.278 75.0035 102.717 74.5346 104.977Z" fill="#371A45"/>
</g>
<path d="M31.3733 114.007C29.6722 112.622 28.5875 110.638 27.8275 108.615C25.5002 102.558 25.9824 95.7962 27.6373 89.6405C27.6956 89.4156 27.84 89.2227 28.0394 89.1034C28.2388 88.9841 28.4771 88.9481 28.7028 89.003C28.9286 89.058 29.1236 89.1996 29.2459 89.3972C29.3681 89.5948 29.4076 89.8325 29.356 90.059C29.1477 91.0615 28.948 92.0635 28.7791 93.0689C28.1485 97.0498 27.9141 101.149 28.7506 105.103C29.3103 108.099 30.6657 110.76 32.06 113.449C32.2854 113.872 31.7471 114.318 31.3747 114.009L31.3733 114.007Z" fill="#371A45"/>
<path d="M60.5133 120.389C55.5675 122.271 49.2901 122.361 44.164 121.143C43.3998 120.931 42.6423 120.688 41.9018 120.425C41.847 120.405 41.7965 120.375 41.7532 120.336C41.71 120.298 41.6748 120.25 41.6498 120.198C41.6248 120.145 41.6103 120.088 41.6073 120.03C41.6043 119.972 41.6127 119.914 41.6322 119.859C41.6677 119.761 41.7366 119.678 41.827 119.625C41.9173 119.572 42.0234 119.552 42.1267 119.569C42.8957 119.635 43.6438 119.759 44.3966 119.844C48.1664 120.235 51.9718 120.265 55.752 120.026C57.2643 119.921 58.7694 119.751 60.286 119.535C60.7977 119.461 60.9993 120.197 60.5133 120.391V120.389Z" fill="#371A45"/>
<path d="M70.7934 79.5001C75.2493 88.6213 78.4118 100.718 73.6548 110.291C72.9372 111.665 72.0317 112.952 70.9061 114.007C70.5309 114.35 69.9511 113.891 70.2208 113.447C76.8415 103.135 73.6538 90.64 69.9763 79.8396C69.8089 79.3331 70.5385 79.005 70.7934 79.5001Z" fill="#371A45"/>
<g opacity="0.2">
<path d="M65.2165 99.2919V94.0018C65.2142 93.2432 64.9119 92.5163 64.3755 91.9799C63.8391 91.4435 63.1122 91.1412 62.3536 91.1389H39.7474C38.9888 91.1412 38.262 91.4435 37.7256 91.9799C37.1892 92.5163 36.8868 93.2432 36.8846 94.0018V99.2919H27.2217L28.0025 106.102C30.7556 105.73 33.8296 105.332 36.8846 104.972V108.424C36.8868 109.182 37.1892 109.909 37.7256 110.445C38.262 110.982 38.9888 111.284 39.7474 111.286H62.3536C63.1122 111.284 63.8391 110.982 64.3755 110.445C64.9119 109.909 65.2142 109.182 65.2165 108.424V104.925C68.3552 105.321 71.5053 105.765 74.2559 106.173C74.3577 105.784 74.4506 105.385 74.5346 104.977C74.906 103.188 75.0767 101.289 75.0577 99.2919H65.2165Z" fill="#371A45"/>
</g>
<path d="M63.7299 96.9327C63.7299 96.9327 71.297 96.3558 74.4823 98.649C77.8669 101.086 74.4566 103.906 74.4566 103.906C74.4566 103.906 68.3624 102.574 63.2444 102.764L63.7299 96.9327Z" fill="white"/>
<g opacity="0.2">
<path d="M74.4576 103.907C74.4576 103.907 68.3609 102.575 63.2444 102.765L63.428 100.55C66.9851 100.441 70.9717 101.047 73.04 101.42C74.1394 101.617 75.2542 101.064 75.7112 100.044C75.7159 100.034 75.7202 100.024 75.7245 100.015C76.726 102.029 74.4576 103.907 74.4576 103.907Z" fill="#371A45"/>
</g>
<path d="M39.181 96.9327C39.181 96.9327 31.6139 96.3558 28.4286 98.649C25.0436 101.086 28.4538 103.906 28.4538 103.906C28.4538 103.906 34.5486 102.574 39.6665 102.764L39.181 96.9327Z" fill="white"/>
<path d="M74.6887 104.862L74.2684 104.77C74.2084 104.757 68.2183 103.467 63.2768 103.649L62.2781 103.686L62.9115 96.1082L63.6629 96.0506C63.9853 96.0264 71.5914 95.4771 74.9993 97.9315C76.1972 98.7941 76.8245 99.8175 76.863 100.975C76.9305 102.986 75.0987 104.524 75.0207 104.589L74.6887 104.862ZM64.2868 101.862C68.409 101.862 72.768 102.662 74.1818 102.946C74.5832 102.518 75.122 101.766 75.0944 101.028C75.073 100.45 74.693 99.8912 73.9654 99.3672C71.8192 97.8216 66.9852 97.6766 64.5493 97.7726L64.2089 101.862L64.2868 101.862Z" fill="#371944"/>
<path d="M28.2195 104.862L27.8866 104.588C27.8086 104.523 25.9772 102.985 26.0443 100.974C26.0828 99.817 26.7101 98.7936 27.908 97.93C31.3158 95.4761 38.9219 96.0244 39.2444 96.0492L39.9962 96.1067L40.6268 103.685L39.6281 103.648C34.6852 103.466 28.6965 104.756 28.6366 104.769L28.2195 104.862ZM37.1533 97.7502C34.5658 97.7502 30.7723 98.0498 28.9428 99.3671C28.2152 99.8902 27.8352 100.45 27.8138 101.028C27.7862 101.766 28.3246 102.514 28.7269 102.946C30.1407 102.66 34.5002 101.862 38.6214 101.862H38.7013L38.3608 97.7721C38.0046 97.7588 37.5966 97.7502 37.1533 97.7502Z" fill="#371944"/>
<path d="M64.2189 94.6781V105.453C64.2189 107.453 62.6439 109.089 60.7202 109.089H41.6137C39.6882 109.089 38.1155 107.453 38.1155 105.453V94.6781C38.1155 92.6807 39.6882 91.0448 41.6137 91.0448H60.7202C62.2568 91.0448 63.5736 92.091 64.0382 93.5286C64.1578 93.9001 64.2187 94.2879 64.2189 94.6781Z" fill="white"/>
<g opacity="0.2">
<path d="M64.2189 94.6781V105.453C64.2189 107.453 62.6439 109.089 60.7202 109.089H41.6137C39.6882 109.089 38.1155 107.453 38.1155 105.453V101.827C41.4121 103.722 47.9424 106.567 54.4971 104.219C57.699 103.072 61.3698 99.1379 61.3698 99.1379C61.3698 99.1379 61.5125 103.265 62.1013 103.2C63.7405 103.019 63.7286 94.6681 64.0382 93.5292C64.1577 93.9005 64.2187 94.2881 64.2189 94.6781Z" fill="#371A45"/>
</g>
<path d="M60.8505 109.972H41.4824C40.355 109.971 39.2741 109.523 38.4769 108.725C37.6797 107.928 37.2312 106.847 37.23 105.72V94.4129C37.2312 93.2854 37.6797 92.2045 38.4769 91.4073C39.2741 90.6101 40.355 90.1617 41.4824 90.1604H60.8505C61.978 90.1617 63.0589 90.6101 63.8561 91.4073C64.6533 92.2045 65.1017 93.2854 65.103 94.4129V105.72C65.1017 106.847 64.6533 107.928 63.8561 108.725C63.0589 109.523 61.978 109.971 60.8505 109.972ZM41.4824 91.9295C40.824 91.9302 40.1927 92.1921 39.7271 92.6577C39.2615 93.1232 38.9995 93.7544 38.9986 94.4129V105.72C38.9995 106.378 39.2615 107.009 39.7271 107.475C40.1927 107.94 40.824 108.202 41.4824 108.203H60.8505C61.509 108.202 62.1402 107.94 62.6059 107.475C63.0715 107.009 63.3335 106.378 63.3344 105.72V94.4129C63.3335 93.7544 63.0715 93.1232 62.6059 92.6577C62.1402 92.1921 61.509 91.9302 60.8505 91.9295H41.4824Z" fill="#371944"/>
<path d="M57.9354 103.2C59.6019 103.2 60.9528 101.797 60.9528 100.066C60.9528 98.3355 59.6019 96.9326 57.9354 96.9326C56.2689 96.9326 54.918 98.3355 54.918 100.066C54.918 101.797 56.2689 103.2 57.9354 103.2Z" fill="#22A7F0"/>
<path d="M60.9531 100.067C60.9537 100.276 60.9338 100.485 60.8936 100.69C60.6149 99.2548 59.3956 98.1748 57.9347 98.1748C56.4738 98.1748 55.2544 99.2548 54.9777 100.69C54.9377 100.485 54.9178 100.276 54.9182 100.067C54.9182 98.3369 56.2683 96.9326 57.9347 96.9326C59.6011 96.9326 60.9531 98.3365 60.9531 100.067Z" fill="white"/>
<path d="M60.9521 100.068C60.9521 101.8 59.6006 103.201 57.9352 103.201C56.2698 103.201 54.9182 101.8 54.9182 100.068C54.9181 99.7843 54.9549 99.5021 55.0276 99.2283C55.3824 100.55 56.5494 101.52 57.9352 101.52C59.3209 101.52 60.488 100.55 60.8427 99.2283C60.9154 99.5021 60.9522 99.7843 60.9521 100.068Z" fill="#1C7AEA"/>
<path d="M57.9352 103.863C55.9055 103.863 54.2544 102.16 54.2544 100.066C54.2544 97.9723 55.9055 96.2693 57.9352 96.2693C59.9649 96.2693 61.6161 97.9727 61.6161 100.066C61.6161 102.16 59.963 103.863 57.9352 103.863ZM57.9352 97.5961C56.6374 97.5961 55.5812 98.7042 55.5812 100.066C55.5812 101.428 56.6374 102.536 57.9352 102.536C59.233 102.536 60.2892 101.428 60.2892 100.066C60.2892 98.7042 59.233 97.5947 57.9352 97.5947V97.5961Z" fill="#371944"/>
<path d="M48.3856 109.972C48.151 109.972 47.926 109.879 47.7601 109.713C47.5942 109.547 47.501 109.322 47.501 109.088V103.571C47.501 102.484 47.0046 101.446 46.1728 100.795L45.6877 100.415C44.4304 99.4319 43.6799 97.873 43.6799 96.2452V91.0449C43.6799 90.8104 43.7731 90.5854 43.939 90.4195C44.1049 90.2536 44.3299 90.1604 44.5645 90.1604C44.7991 90.1604 45.0241 90.2536 45.1899 90.4195C45.3558 90.5854 45.449 90.8104 45.449 91.0449V96.2485C45.449 97.3366 45.9455 98.3743 46.7772 99.0244L47.2623 99.4048C48.5197 100.388 49.2701 101.947 49.2701 103.574V109.091C49.2694 109.325 49.1758 109.549 49.01 109.714C48.8442 109.879 48.6197 109.972 48.3856 109.972Z" fill="#371944"/>
<path d="M51.3508 90.1397C51.8126 92.8594 51.4569 94.5357 50.8201 95.6875C50.4021 96.4484 49.858 96.9834 49.3497 97.4366C47.3704 99.201 41.1458 99.6718 41.1458 99.6718C41.1458 99.6718 29.1151 104.823 21.6807 101.214C16.7258 98.8053 15.4984 91.845 17.6722 86.4027C17.8401 85.9847 18.037 85.5467 18.2647 85.0873C18.2651 85.0851 18.2651 85.0829 18.2647 85.0807C21.4448 78.6682 30.3887 68.9302 44.5632 67.6628L32.6181 80.7407L30.751 85.8482C35.7064 85.7973 39.1779 85.667 40.1752 85.2115C41.1724 84.7559 40.8762 81.2867 41.8425 79.9575C42.3842 79.2104 44.4804 79.2479 45.1462 80.696C45.929 82.408 44.8185 84.4001 45.8624 85.1715C46.6385 85.7465 49.4291 84.8048 51.0607 86.2948C51.9809 87.1346 51.736 89.0563 51.3508 90.1397Z" fill="white"/>
<g opacity="0.2">
<path d="M44.5645 67.6628L36.1266 76.9015C33.6014 75.6408 31.6179 74.0777 30.3838 72.32C34.6887 69.6958 39.5419 68.1019 44.5645 67.6628Z" fill="#371A45"/>
</g>
<g opacity="0.2">
<path d="M50.8201 95.6879C50.4021 96.4487 49.858 96.9838 49.3497 97.437C47.3704 99.2013 41.1458 99.6721 41.1458 99.6721C41.1458 99.6721 29.1151 104.823 21.6807 101.214C16.7258 98.8056 15.4984 91.8453 17.6722 86.403C17.8401 85.985 18.037 85.547 18.2647 85.0876C18.1806 85.4148 15.0785 97.6933 23.8288 100.068C31.6855 102.201 37.9277 97.202 40.4524 96.9343C42.5435 96.7117 47.2111 98.8189 50.8201 95.6879Z" fill="#371A45"/>
</g>
<path d="M44.6429 68.5452C35.9877 69.2752 27.8081 73.7388 22.3468 80.4727C20.5653 82.6831 18.9613 85.1175 18.11 87.8348C16.9634 91.7101 17.3819 96.4966 20.4507 99.3262C23.6098 102.045 28.5576 101.84 32.4652 101.225C35.3195 100.736 38.1131 99.9425 40.798 98.8573C40.8879 98.8206 40.9828 98.7973 41.0795 98.7884C42.4161 98.6744 43.7445 98.4785 45.0571 98.2015C46.2488 97.9343 47.6161 97.5833 48.5829 96.9175C50.7662 95.2968 50.9207 92.8453 50.4789 90.2873C50.4537 90.138 50.4671 89.9848 50.5179 89.8421C50.7766 89.0755 50.9283 88.1273 50.7039 87.3597C50.6287 87.1576 50.5769 87.0378 50.4138 86.9056C50.0576 86.5936 49.5578 86.4181 48.9747 86.3349C47.3954 86.0776 45.0381 86.8794 44.5639 84.6153C44.2505 83.133 45.3248 80.5592 43.1529 80.3633C42.9052 80.3514 42.6622 80.4056 42.5537 80.4836C42.4841 80.5853 42.4261 80.6946 42.3811 80.8094C41.799 82.2361 42.0482 84.095 41.1622 85.4965C40.759 86.1242 39.7808 86.2674 39.1516 86.3634C37.6973 86.5603 36.3168 86.6012 34.9191 86.654C33.4805 86.6882 32.0477 86.7387 30.6163 86.722C30.0456 86.6935 29.6718 86.0562 29.9191 85.5436L32.2018 80.5906C32.4357 80.1032 33.1705 80.3752 33.0326 80.895L31.5797 86.1513L30.7399 84.9624C32.119 84.9477 33.4939 84.9277 34.863 84.8854C36.5222 84.7903 38.2547 84.8421 39.7955 84.4098C39.814 84.4027 39.7917 84.4098 39.7831 84.417C39.7746 84.4241 39.7127 84.4712 39.7327 84.4512C39.9034 84.1659 39.9705 83.7464 40.049 83.3503C40.3034 82.0615 40.3196 80.6496 41.1194 79.4431C41.5845 78.7859 42.53 78.5557 43.2247 78.5957C45.3443 78.687 46.411 80.4137 46.3297 82.3806C46.3587 83.0545 46.1466 83.8582 46.3492 84.4227C46.3577 84.4398 46.4029 84.4674 46.3539 84.4384C46.4609 84.4897 46.8504 84.4973 47.0364 84.5007C48.599 84.4669 50.6549 84.5007 51.8343 85.8251C52.9014 87.1258 52.6551 88.9638 52.1814 90.438L52.2204 89.9929C52.5904 92.1301 52.6223 94.7328 51.2622 96.6507C50.8041 97.2952 50.2519 97.8672 49.6239 98.3475C48.9281 98.8469 48.2248 99.1179 47.5262 99.3657C45.4618 100.041 43.3631 100.353 41.2108 100.555L41.4923 100.486C38.6781 101.626 35.7487 102.458 32.7553 102.969C28.2775 103.673 22.9112 103.795 19.2699 100.642C15.6452 97.3203 15.085 91.8248 16.4165 87.3236C19.2 79.0222 27.5227 71.779 35.6096 68.8015C38.4568 67.7177 41.459 67.0681 44.4855 66.7818C44.6019 66.7701 44.7195 66.7815 44.8314 66.8156C44.9434 66.8496 45.0475 66.9055 45.1377 66.98C45.2279 67.0545 45.3024 67.1462 45.3569 67.2498C45.4114 67.3533 45.4449 67.4666 45.4553 67.5832C45.4657 67.6997 45.4529 67.8172 45.4176 67.9287C45.3823 68.0403 45.3252 68.1437 45.2496 68.2331C45.1741 68.3224 45.0815 68.3959 44.9774 68.4492C44.8732 68.5026 44.7595 68.5347 44.6429 68.5438V68.5452Z" fill="#371A45"/>
<path d="M22.5874 87.8933C22.5874 87.8933 24.6799 86.2288 30.7518 85.8484L22.5874 87.8933Z" fill="white"/>
<path d="M22.3116 87.5461C23.5257 86.6425 24.9681 86.1632 26.4014 85.7599C27.7658 85.3795 29.289 85.1345 30.6962 84.9652C31.9198 84.853 32.0639 86.6506 30.8332 86.7301C28.7821 86.7629 26.653 86.9255 24.6809 87.4976C24.0389 87.6878 23.3869 87.918 22.8172 88.2652C22.3525 88.5424 21.8931 87.8895 22.3112 87.5461H22.3116Z" fill="#371A45"/>
<path d="M23.6271 102.603C23.521 102.604 23.4163 102.578 23.3221 102.529C23.2278 102.481 23.1466 102.41 23.0854 102.323C21.0515 99.4504 20.5369 96.5167 21.556 93.6039C23.2409 88.7879 28.4516 85.8237 30.5674 85.2107C30.6534 85.1778 30.7454 85.163 30.8374 85.1674C30.9295 85.1718 31.0196 85.1952 31.1021 85.2363C31.1846 85.2773 31.2577 85.335 31.3168 85.4058C31.3758 85.4765 31.4196 85.5587 31.4452 85.6472C31.4708 85.7358 31.4778 85.8286 31.4657 85.92C31.4536 86.0113 31.4226 86.0992 31.3748 86.1779C31.327 86.2567 31.2633 86.3247 31.1879 86.3776C31.1124 86.4305 31.0268 86.4671 30.9364 86.4852C28.8088 87.1035 24.2401 89.9497 22.8082 94.0423C21.9393 96.5262 22.3968 99.0543 24.1678 101.556C24.2381 101.655 24.2798 101.772 24.2882 101.893C24.2967 102.015 24.2717 102.136 24.2158 102.244C24.16 102.352 24.0756 102.442 23.9717 102.506C23.8679 102.569 23.7487 102.602 23.6271 102.602V102.603Z" fill="#371A45"/>
<path d="M86.0441 28.0352C86.0441 28.0352 94.0949 31.0873 94.9223 32.5777C96.4565 35.3407 96.1716 51.582 91.9263 55.8159C90.2647 57.4742 78.0566 59.0235 78.0566 59.0235L86.0441 28.0352Z" fill="white"/>
<g opacity="0.2">
<path d="M78.0586 59.0234C78.0586 59.0234 90.2667 57.4736 91.9273 55.8153C93.588 54.157 94.638 50.6792 95.213 46.8819C95.0784 47.0036 90.7665 50.7249 82.1651 43.1607L82.1494 43.1473L78.0586 59.0234Z" fill="#371A45"/>
</g>
<path d="M51.1434 44.986V45.1251L51.0544 45.0567L51.1434 44.986Z" fill="#D8D8D8"/>
<path d="M51.0548 45.0567L50.9663 45.1251V44.986L51.0548 45.0567Z" fill="#D8D8D8"/>
<path d="M24.4645 59.0236C24.4645 59.0236 12.2564 57.4737 10.5957 55.8154C8.93508 54.1572 7.88505 50.6794 7.3101 46.8821C6.41034 40.9556 6.66904 34.265 7.60447 32.5801C8.43147 31.0897 16.4822 28.0356 16.4822 28.0356L20.3761 43.1494L24.4645 59.0236Z" fill="white"/>
<g opacity="0.2">
<path d="M24.4644 59.0234C24.4644 59.0234 12.2564 57.4736 10.5957 55.8153C8.93505 54.157 7.88501 50.6792 7.31006 46.8819C7.44512 47.0036 11.7565 50.7249 20.3584 43.1607C20.3627 43.1564 20.3694 43.1516 20.3737 43.1473L24.4644 59.0234Z" fill="#371A45"/>
</g>
<path d="M76.8767 60.0651L85.4339 26.8578L86.3575 27.2078C88.8689 28.1589 94.8072 30.5477 95.6955 32.1484C97.3957 35.211 97.1798 51.8251 92.553 56.4423C90.7678 58.2233 80.2584 59.6357 78.1698 59.9011L76.8767 60.0651ZM86.6523 29.2189L79.2421 57.9741C84.7363 57.2132 90.4653 56.0281 91.3033 55.1902C95.2224 51.2796 95.5234 35.4825 94.149 33.0072C93.7362 32.3277 90.1077 30.5885 86.6523 29.2189Z" fill="#371A45"/>
<path d="M25.6471 60.0651L24.3541 59.9011C22.2654 59.6357 11.756 58.2233 9.97125 56.4423C5.34406 51.8251 5.12816 35.211 6.82828 32.1484C7.7171 30.5477 13.6549 28.1603 16.1664 27.2078L17.0899 26.8578L25.6471 60.0651ZM15.872 29.2194C12.4156 30.5862 8.78616 32.3281 8.37385 33.0087C7.00091 35.4816 7.30147 51.2796 11.2205 55.1902C12.0599 56.0281 17.7875 57.2132 23.2817 57.9741L15.872 29.2194Z" fill="#371A45"/>
<path d="M51.259 75.5411C71.8747 75.5411 88.587 58.8288 88.587 38.2131C88.587 17.5973 71.8747 0.88501 51.259 0.88501C30.6432 0.88501 13.9309 17.5973 13.9309 38.2131C13.9309 58.8288 30.6432 75.5411 51.259 75.5411Z" fill="white"/>
<g opacity="0.2">
<path d="M88.5879 38.212C88.5879 58.828 71.8758 75.5401 51.2599 75.5401C30.6439 75.5401 13.9285 58.828 13.9285 38.212C13.927 36.0723 14.1097 33.9365 14.4744 31.8281C17.5028 49.4015 32.8196 62.7699 51.2589 62.7699C69.6982 62.7699 85.0127 49.4015 88.041 31.8281C88.4061 33.9365 88.5891 36.0723 88.5879 38.212Z" fill="#371A45"/>
</g>
<path d="M51.2602 76.4256C30.1896 76.4256 13.0476 59.2836 13.0476 38.213C13.0476 17.1424 30.1882 0.000366211 51.2602 0.000366211C72.3322 0.000366211 89.4728 17.1424 89.4728 38.213C89.4728 59.2836 72.3275 76.4256 51.2602 76.4256ZM51.2602 1.76945C31.165 1.76945 14.8162 18.1177 14.8162 38.213C14.8162 58.3082 31.165 74.657 51.2602 74.657C71.3554 74.657 87.7037 58.3082 87.7037 38.213C87.7037 18.1177 71.354 1.76945 51.2602 1.76945Z" fill="#371A45"/>
<path d="M51.2602 76.4256C30.1896 76.4256 13.0476 59.2836 13.0476 38.213C13.0476 17.1424 30.1882 0.000366211 51.2602 0.000366211C72.3322 0.000366211 89.4728 17.1424 89.4728 38.213C89.4728 59.2836 72.3275 76.4256 51.2602 76.4256ZM51.2602 1.76945C31.165 1.76945 14.8162 18.1177 14.8162 38.213C14.8162 58.3082 31.165 74.657 51.2602 74.657C71.3554 74.657 87.7037 58.3082 87.7037 38.213C87.7037 18.1177 71.354 1.76945 51.2602 1.76945Z" fill="#371A45"/>
<path d="M51.2602 76.4256C30.1896 76.4256 13.0476 59.2836 13.0476 38.213C13.0476 17.1424 30.1882 0.000366211 51.2602 0.000366211C72.3322 0.000366211 89.4728 17.1424 89.4728 38.213C89.4728 59.2836 72.3275 76.4256 51.2602 76.4256ZM51.2602 1.76945C31.165 1.76945 14.8162 18.1177 14.8162 38.213C14.8162 58.3082 31.165 74.657 51.2602 74.657C71.3554 74.657 87.7037 58.3082 87.7037 38.213C87.7037 18.1177 71.354 1.76945 51.2602 1.76945Z" fill="#371A45"/>
<path d="M51.2602 76.4252C33.8486 76.4252 18.6502 64.6789 14.2793 47.8555C14.2722 47.8351 14.266 47.8146 14.2608 47.7932C13.0956 43.2709 12.7663 38.5737 13.2892 33.9331C15.4387 14.5902 31.7623 0.000976562 51.2602 0.000976562C70.7582 0.000976562 87.087 14.5945 89.2351 33.9464C89.7519 38.5824 89.4229 43.2738 88.264 47.7923C88.2583 47.8142 88.2521 47.836 88.2449 47.857C83.8669 64.6803 68.6657 76.4252 51.2602 76.4252ZM15.979 47.3638C20.1316 63.4344 34.638 74.6562 51.2602 74.6562C67.8824 74.6562 82.3899 63.433 86.5467 47.3624C86.5524 47.3381 86.5596 47.3148 86.5676 47.2906C87.6608 42.9986 87.9692 38.5444 87.4779 34.1428C85.4258 15.6868 69.8546 1.76958 51.2602 1.76958C32.6659 1.76958 17.0994 15.6821 15.0474 34.1309C14.8935 35.486 14.8166 36.8488 14.8172 38.2126C14.8146 41.2745 15.1981 44.3246 15.9585 47.2906C15.9633 47.3148 15.9704 47.3391 15.9766 47.3638H15.979Z" fill="#371A45"/>
<path d="M87.2867 29.3082C87.1138 29.3081 86.9447 29.2574 86.8003 29.1624C86.6559 29.0673 86.5424 28.932 86.474 28.7732C80.5771 15.0795 66.7526 6.23173 51.2589 6.23173C35.7746 6.23173 21.9544 15.0719 16.0499 28.7537C15.9598 28.9569 15.7966 29.1187 15.5926 29.207C15.3887 29.2953 15.159 29.3036 14.9492 29.2302C14.7395 29.1569 14.565 29.0072 14.4605 28.8111C14.3561 28.6149 14.3292 28.3867 14.3854 28.1716C18.8856 11.5846 34.0488 0 51.2603 0C68.4817 0 83.6482 11.5932 88.1413 28.1926C88.1766 28.3237 88.1813 28.4611 88.155 28.5943C88.1287 28.7275 88.0721 28.8529 87.9896 28.9608C87.9072 29.0686 87.8011 29.1561 87.6794 29.2164C87.5578 29.2768 87.4239 29.3083 87.2882 29.3087L87.2867 29.3082ZM51.2603 4.46217C59.3006 4.46217 67.0488 6.74485 73.6672 11.0653C76.4475 12.875 78.989 15.0273 81.2319 17.4716C74.5627 7.85671 63.4498 1.76956 51.2603 1.76956C39.1183 1.76956 28.0449 7.81486 21.3662 17.3636C28.7858 9.28814 39.571 4.46217 51.2603 4.46217Z" fill="#371A45"/>
<path d="M88.5846 38.214C88.5868 41.3708 88.1897 44.5153 87.4029 47.5725C87.402 47.5725 87.4011 47.5729 87.4005 47.5735C87.3999 47.5741 87.3996 47.575 87.3996 47.5758C80.9239 60.0864 67.1712 70.8511 51.2571 70.8511C35.343 70.8511 21.5922 60.0864 15.1179 47.5758C15.1179 47.575 15.1176 47.5741 15.1169 47.5735C15.1163 47.5729 15.1155 47.5725 15.1146 47.5725C14.3251 44.5158 13.9272 41.3711 13.9304 38.214C13.9303 36.8175 14.0097 35.4222 14.1682 34.0348C19.2039 20.1009 33.9039 10.019 51.2618 10.019C68.6197 10.019 83.3254 20.1076 88.3554 34.0443C88.5095 35.4288 88.586 36.8209 88.5846 38.214Z" fill="#371A45"/>
<g opacity="0.35">
<path d="M88.586 38.2149C88.5888 41.3717 88.1923 44.5162 87.4057 47.5735C87.4048 47.5735 87.4039 47.5738 87.4033 47.5744C87.4027 47.5751 87.4023 47.5759 87.4023 47.5768C80.9271 60.0873 67.1744 70.8516 51.2598 70.8516C35.3453 70.8516 21.594 60.0873 15.1178 47.5768C15.1178 47.5759 15.1175 47.5751 15.1169 47.5744C15.1162 47.5738 15.1154 47.5735 15.1145 47.5735C14.6491 45.7709 14.3195 43.9359 14.1287 42.0841C22.4985 51.4864 34.6671 58.3273 48.2148 58.3273C65.4748 58.3273 80.5053 47.2253 88.2854 33.865C88.3092 33.9263 88.333 33.9844 88.3539 34.0457C88.5087 35.43 88.5862 36.822 88.586 38.2149Z" fill="#111A28"/>
</g>
<path d="M51.257 71.3266C43.6837 71.3266 36.118 68.896 29.3813 64.2978C23.267 60.1257 18.0587 54.2764 14.7122 47.824C14.6866 47.7829 14.6675 47.7382 14.6556 47.6913C13.8557 44.5957 13.4518 41.4111 13.4534 38.2139C13.4525 36.7997 13.5319 35.3866 13.6912 33.9814C13.695 33.9447 13.7035 33.9086 13.7164 33.8739C16.2535 26.8532 21.1351 20.8132 27.8281 16.4057C34.6462 11.9174 42.7473 9.5448 51.2556 9.5448C59.7638 9.5448 67.8683 11.9188 74.6873 16.4095C81.3832 20.8194 86.2629 26.8618 88.7986 33.8844C88.8115 33.9193 88.82 33.9558 88.8238 33.9928C89.3353 38.5798 89.0098 43.2215 87.8632 47.6922C87.8509 47.739 87.8318 47.7837 87.8066 47.8249C84.4601 54.2768 79.2508 60.1267 73.1356 64.2988C66.3969 68.896 58.8308 71.3266 51.257 71.3266ZM15.5587 47.395C21.4989 58.8403 34.8317 70.3755 51.257 70.3755C67.6823 70.3755 81.0184 58.8403 86.9586 47.395C88.0592 43.073 88.3735 38.5883 87.8865 34.155C82.748 20.0014 68.0361 10.4964 51.257 10.4964C34.4778 10.4964 19.7717 19.9976 14.6309 34.1455C14.1384 38.5823 14.4527 43.0716 15.5587 47.3964V47.395Z" fill="#371A45"/>
<g opacity="0.5">
<path d="M82.2383 37.3713C82.8051 33.8363 81.188 30.6377 78.6263 30.2269C76.0647 29.8161 73.5285 32.3488 72.9617 35.8837C72.3948 39.4187 74.0119 42.6173 76.5736 43.0281C79.1353 43.4388 81.6715 40.9062 82.2383 37.3713Z" fill="white"/>
</g>
<g opacity="0.5">
<path d="M74.4588 49.6239C74.9354 48.0462 74.2243 46.4358 72.8706 46.0269C71.5169 45.6179 70.0331 46.5653 69.5565 48.143C69.0799 49.7206 69.791 51.331 71.1448 51.74C72.4985 52.1489 73.9822 51.2015 74.4588 49.6239Z" fill="white"/>
</g>
<g opacity="0.5">
<path d="M22.6584 49.4039C22.6584 49.4039 16.4205 30.8571 26.3292 23.2148C36.238 15.5726 50.7116 15.3101 50.3925 16.245C50.3925 16.245 34.4489 20.4485 28.4364 33.242C23.7988 43.1075 22.6584 49.4039 22.6584 49.4039Z" fill="white"/>
</g>
<path d="M20.7883 146.503C31.3724 146.503 39.9524 137.923 39.9524 127.339C39.9524 116.755 31.3724 108.175 20.7883 108.175C10.2043 108.175 1.62427 116.755 1.62427 127.339C1.62427 137.923 10.2043 146.503 20.7883 146.503Z" fill="#FFD62C"/>
<path d="M39.9516 127.34C39.9516 137.922 31.3735 146.502 20.7866 146.502C13.3935 146.502 6.97824 142.317 3.78296 136.182C7.22078 141.315 13.0721 144.691 19.7142 144.691C30.2987 144.691 38.8792 136.111 38.8792 125.526C38.8844 122.453 38.1458 119.423 36.7264 116.697C38.8354 119.845 39.9582 123.551 39.9516 127.34Z" fill="#FFB42E"/>
<g opacity="0.7">
<path d="M39.0451 121.503C36.4157 115.368 30.6753 110.882 23.8091 110.031V110.041C23.8396 110.76 22.4243 111.403 20.6505 111.481C18.8766 111.558 17.4124 111.035 17.3815 110.316V110.31C8.73819 112.164 2.2587 119.849 2.2587 129.047C2.25631 131.018 2.55935 132.978 3.15703 134.857C2.14305 132.481 1.62194 129.924 1.62526 127.34C1.62526 116.755 10.2058 108.175 20.7903 108.175C29.337 108.175 36.5788 113.774 39.0451 121.503Z" fill="white"/>
</g>
<path d="M20.7884 147.423C9.71404 147.423 0.704102 138.414 0.704102 127.339C0.704102 116.264 9.71404 107.255 20.7884 107.255C31.8627 107.255 40.8727 116.265 40.8727 127.339C40.8727 138.413 31.8627 147.423 20.7884 147.423ZM20.7884 109.096C10.7289 109.096 2.54499 117.28 2.54499 127.339C2.54499 137.399 10.7289 145.582 20.7884 145.582C30.8479 145.582 39.0318 137.399 39.0318 127.339C39.0318 117.28 30.8479 109.096 20.7884 109.096Z" fill="#371A45"/>
<path d="M20.7885 141.744C28.7442 141.744 35.1936 135.295 35.1936 127.339C35.1936 119.383 28.7442 112.934 20.7885 112.934C12.8327 112.934 6.3833 119.383 6.3833 127.339C6.3833 135.295 12.8327 141.744 20.7885 141.744Z" fill="#FF9C43"/>
<path d="M20.7885 141.744C28.7442 141.744 35.1936 135.295 35.1936 127.339C35.1936 119.383 28.7442 112.934 20.7885 112.934C12.8327 112.934 6.3833 119.383 6.3833 127.339C6.3833 135.295 12.8327 141.744 20.7885 141.744Z" fill="#FF9C43"/>
<path d="M35.1941 127.34C35.1941 135.295 28.7441 141.745 20.7889 141.745C14.2781 141.745 8.77917 137.427 6.99487 131.499C9.15581 136.723 14.3023 140.399 20.3105 140.399C28.2676 140.399 34.7157 133.949 34.7157 125.994C34.7177 124.586 34.5124 123.185 34.1065 121.837C34.828 123.582 35.1976 125.452 35.1941 127.34Z" fill="#FF7A45"/>
<path d="M6.38333 127.339C6.38333 119.384 12.8333 112.934 20.7885 112.934C27.2994 112.934 32.7983 117.252 34.5826 123.18C32.4216 117.956 27.2751 114.28 21.2669 114.28C13.3098 114.28 6.86174 120.73 6.86174 128.685C6.85972 130.093 7.06498 131.494 7.47093 132.842C6.74942 131.097 6.37981 129.227 6.38333 127.339Z" fill="#FF7A45"/>
<path d="M25.0093 130.227C25.0093 131.958 23.6749 133.292 21.8816 133.71V135.794H19.5452V133.668C17.7309 133.188 16.3114 131.749 16.1687 131.603L17.8365 129.935C17.9616 130.081 19.2546 131.436 20.7559 131.436C21.8821 131.436 22.6106 130.874 22.6106 130.248C22.6106 128.371 16.4383 128.016 16.4383 124.43C16.4383 122.699 17.7518 121.365 19.5452 120.968V118.883H21.8806V121.01C23.6949 121.49 25.1144 122.907 25.2571 123.055L23.6098 124.723C23.4638 124.556 22.1503 123.263 20.6699 123.263C19.5437 123.263 18.8152 123.787 18.8152 124.41C18.8152 126.286 25.0093 126.64 25.0093 130.227Z" fill="#FFD62C"/>
</svg>
